<?xml version="1.0" encoding="UTF-8"?>
<!DOCTYPE svg PUBLIC "-//W3C//DTD SVG 1.1//EN" "http://www.w3.org/Graphics/SVG/1.1/DTD/svg11.dtd">
<!-- Creator: CorelDRAW (Evaluation Version) -->
<svg xmlns="http://www.w3.org/2000/svg" xml:space="preserve" width="22.9778mm" height="6.1969mm" version="1.1" style="shape-rendering:geometricPrecision; text-rendering:geometricPrecision; image-rendering:optimizeQuality; fill-rule:evenodd; clip-rule:evenodd"
viewBox="0 0 312.19 84.19"
 xmlns:xlink="http://www.w3.org/1999/xlink"
 xmlns:xodm="http://www.corel.com/coreldraw/odm/2003">
 <defs>
  <style type="text/css">
   <![CDATA[
    .fil1 {fill:#2B2B2A;fill-rule:nonzero}
    .fil0 {fill:#E60C80;fill-rule:nonzero}
   ]]>
  </style>
 </defs>
 <g id="Layer_x0020_1">
  <metadata id="CorelCorpID_0Corel-Layer"/>
  <path class="fil0" d="M-0 0l9.71 0 0 29.61c2.2,-2.85 4.8,-5.03 7.84,-6.53 3.05,-1.5 6.34,-2.26 9.9,-2.26 7.42,0 13.41,2.56 18.04,7.65 4.61,5.1 6.91,12.61 6.91,22.54 0,3.51 -0.32,6.79 -0.95,9.85l0 -0.64c-0.16,-0.03 -0.27,-0.06 -0.34,-0.07 -0.07,-0.01 -0.11,-0.02 -0.14,-0.02 -0.59,0 -1.11,0.42 -1.57,1.26 -0.45,0.84 -0.74,1.55 -0.85,2.13l0 -3 -1.41 0 0 11.57c-0.49,0.81 -1.01,1.61 -1.57,2.36 -0.16,0.22 -0.33,0.44 -0.49,0.66 0.26,-0.92 0.44,-2.04 0.53,-3.37l-1.44 0c-0.14,1.28 -0.39,2.29 -0.75,3.04 -0.36,0.74 -0.85,1.11 -1.47,1.11 -0.81,0 -1.4,-0.6 -1.77,-1.79 -0.38,-1.18 -0.57,-2.65 -0.57,-4.39 0,-1.73 0.13,-3.18 0.4,-4.36 0.41,-1.81 1.09,-2.72 2.04,-2.72 0.7,0 1.2,0.35 1.51,1.06 0.31,0.71 0.51,1.6 0.6,2.67l1.44 0c-0.13,-2.32 -0.5,-3.96 -1.13,-4.91 -0.62,-0.95 -1.44,-1.43 -2.43,-1.43 -0.23,0 -0.46,0.03 -0.67,0.1 0.53,-2.6 0.8,-5.47 0.8,-8.62 0,-6.26 -1.33,-11.44 -4.02,-15.56 -2.69,-4.12 -6.64,-6.17 -11.88,-6.17 -4.55,0 -8.54,1.69 -11.97,5.07 -3.43,3.36 -5.14,8.92 -5.14,16.66 0,5.6 0.7,10.15 2.11,13.62 0.32,0.8 0.68,1.55 1.07,2.26l1.54 10.5 1.55 0 0.77 -5.9c0.68,0.53 1.4,0.98 2.17,1.36l0.61 4.54 1.55 0 0.52 -3.53c1.13,0.3 2.34,0.5 3.63,0.58 0.14,0.44 0.3,0.84 0.48,1.21 0.77,1.57 1.7,2.36 2.8,2.36 0.45,0 0.86,-0.08 1.22,-0.26 0.67,-0.3 1.23,-0.89 1.68,-1.75 0.27,-0.5 0.51,-1.14 0.73,-1.92 0.06,-0.2 0.11,-0.4 0.15,-0.59 2.58,-1 4.66,-2.77 6.3,-5.29 -0.01,0.32 -0.01,0.65 -0.01,0.99 0,2.48 0.35,4.55 1.03,6.21 0.69,1.66 1.61,2.49 2.77,2.49l0.19 -0.01c-4.11,3.62 -9.25,5.43 -15.4,5.43 -4.52,0 -8.33,-1.1 -11.44,-3.28 -1.86,-1.31 -3.85,-3.38 -5.96,-6.22l0 7.61 -9.22 0 0 -81.92zm50.89 63.22c-0.58,2.16 -1.34,4.2 -2.26,6.12l0 -1.44c0,-1.23 0.2,-2.32 0.6,-3.26 0.39,-0.92 0.94,-1.39 1.65,-1.42zm-24.38 11.74c1.2,-0.03 2.33,-0.17 3.39,-0.42 -0.46,0.95 -1.07,1.42 -1.82,1.42 -0.66,0 -1.18,-0.34 -1.57,-1.01zm-12.38 -4.96c0.29,0.35 0.6,0.68 0.93,0.99l-0.4 3.21 -0.52 -4.2zm5.64 3.94l0.04 0.02 -0.02 0.16 -0.02 -0.17z"/>
  <path class="fil1" d="M13.45 61.55l2.8 0 -1.53 12.12 -0.13 0 -1.14 -9.13 0 -2.99zm75.41 -40.49c4.23,0 8.33,0.99 12.29,2.98 3.96,1.97 6.98,4.54 9.05,7.68 2.01,3.02 3.34,6.51 4,10.51 0.61,2.75 0.89,7.11 0.89,13.13l-1.7 0 0 -1.36 -1.44 0 0 1.36 -40.49 0c0.05,1.61 0.19,3.13 0.42,4.57l0 0.6 -1.2 0 0 1.02 0 1.37 1.2 0 0 10.76 0 0.73c0,1.11 0.12,2.02 0.37,2.72 0.25,0.7 0.72,1.05 1.41,1.05 0.21,0 0.41,-0.02 0.6,-0.07 0.19,-0.04 0.36,-0.11 0.53,-0.21l0 -2.3c-0.11,0.02 -0.21,0.03 -0.29,0.04 -0.08,0.01 -0.16,0.01 -0.23,0.01 -0.27,0 -0.46,-0.06 -0.58,-0.18 -0.21,-0.21 -0.32,-0.61 -0.32,-1.22l0 -0.57 0 -8.1 0 -2.66 1.41 0 0 -1.37 2.82 0c-0.24,0.34 -0.46,0.74 -0.67,1.21 -0.77,1.74 -1.16,4 -1.16,6.79l0 0.41 0 0.03 0 0.07 0 0.02 0 0.05 0 0.07 0 0 0 0.07 0 0.05 0 0.02 0 0.07 0 0.03 0 0.04 0 0.07 0 0.01 0 0.06 0 0.06 0 0.01 0 0.07 0 0.04 0 0.02 0 0.07 0 0.02 0 0.04 0 0.07 0 0 0 0.06 0 0.05 0 0.01 0 0.07 0 0.03 0 0.03 0 0.07 0 0.01 0 0.05 0.01 0.06 0 0 0 0.07 0 0.04 0 0.02 0.01 0.07 0 0.02 0 0.04 0.01 0.06 0 0.01 0.01 0.06 0 0.05 0 0.01 0.01 0.06 0 0.03 0 0.03 0.01 0.06 0 0.01 0.01 0.05 0.01 0.06 0 0 0.01 0.06 0 0.04 0 0.02 0.01 0.06 0 0.02 0.01 0.04 0.01 0.06 0 0.01 0.01 0.06 0.01 0.05 0 0.01 0.01 0.06 0.01 0.03 0 0.03 0.01 0.06 0 0.01 0.01 0.04 0.01 0.06 0 0 0.01 0.06 0.01 0.04 0 0.02 0.01 0.06 0 0.02 0.01 0.04 0.01 0.06 0 0.01 0.01 0.05 0.01 0.05 0 0.01 0.01 0.06 0.01 0.03 0 0.03 0.01 0.06 0 0.01 0.01 0.04 0.01 0.05 0 0c0.19,0.95 0.46,1.78 0.8,2.48 0.77,1.57 1.7,2.36 2.8,2.36 0.45,0 0.86,-0.08 1.22,-0.26 0.67,-0.3 1.23,-0.89 1.68,-1.75 0.24,-0.45 0.46,-1.01 0.66,-1.68 1.46,0.36 3.06,0.54 4.84,0.54 1.22,0 2.37,-0.09 3.48,-0.28l0.41 2.81 1.55 0 0.44 -3.4c0.71,-0.23 1.39,-0.5 2.04,-0.82l-1.94 0 1.2 -9.22 1.21 8.98 0.03 0.24 0.57 4.22 1.55 0 0.62 -4.22 0.37 -2.48 1.43 -9.64 2.89 0c-0.24,0.34 -0.46,0.74 -0.67,1.21 -0.64,1.45 -1.02,3.26 -1.12,5.43l-0 0.02 0 0.02 -0 0.02 -0 0.02 0 0 -0 0.02 0 0.02 -0 0.02 -0 0.02 0 0.02 -0 0.02 0 0 -0 0.02 0 0.02 -0 0.02 0 0.02 -0 0.02 0 0.02 -0 0 0 0.02 -0 0.02 0 0.02 -0 0.02 0 0.02 -0 0.02 0 0 0 0.02 -0 0.02 0 0.02 -0 0.02 0 0.02 0 0.02 0 0 -0 0.02 0 0.02 -0 0.02 0 0.02 0 0.02 -0 0.02 0 0 0 0.02 0 0.02 -0 0.02 0 0.02 0 0.02 -0 0.02 0 0 0 0.02 0 0.02 0 0.02 -0 0.02 0 0.02 0 0.02 0 0 0 0.02 0 0.02 -0 0.02 0 0.02 0 0.02 0 0.02 0 0 0 0.02 0 0.02 -0 0.02 0 0.02 0 0.02 0 0.02 0 0.02 0 0.02 0 0.02 0 0.02 0 0.02 0 0.02 0 0.07 0 0.06 0 0.01 0 0.07 0 0.04 0 0.03 0 0.07 0 0.03 0 0.04 0 0.07 0 0.01 0 0.06 0 0.07 0 0 0 0.07 0 0.06 0 0.01 0 0.07 0 0.04 0 0.03 0 0.07 0 0.03 0 0.04 0 0.07 0 0.02 0 0.05 0 0.07 0 0 0 0.07 0 0.06 0 0.01 0 0.07 0 0.04 0 0.02 0 0.07 0 0.03 0 0.04 0 0.07 0 0.02 0 0.05 0 0.07 0 0 0 0.06 0 0.06 0 0.01 0.01 0.07 0 0.04 0 0.02 0.01 0.07 0 0.03 0 0.03 0.01 0.06 0 0.02 0 0.05 0.01 0.06 0 0 0.01 0.06 0.01 0.05 0 0.01 0.01 0.06 0 0.04 0 0.02 0.01 0.06 0 0.03 0 0.03 0.01 0.06 0 0.02 0.01 0.04 0.01 0.06 0 0.01 0.01 0.05 0.01 0.05 0 0.01 0.01 0.06 0.01 0.04 0 0.02 0.01 0.06 0 0.03 0 0.03 0.01 0.06 0 0.02 0.01 0.04 0.01 0.06 0 0.01 0.01 0.05 0.01 0.05 0 0 0.01 0.06 0.01 0.04 0 0.02 0.01 0.06 0.01 0.03 0.01 0.03 0.01 0.06 0 0.02 0.01 0.04 0.01 0.06 0 0.01 0.01 0.05c0.19,0.95 0.46,1.77 0.8,2.48 0.6,1.22 1.29,1.96 2.08,2.24 -2.78,2.29 -6.08,3.9 -9.9,4.75 -2.41,0.61 -5.14,0.89 -8.18,0.89 -6.62,0 -12.35,-2.16 -17.18,-6.48l0 -1.74c-0.09,0.03 -0.18,0.06 -0.26,0.07 -0.08,0.02 -0.16,0.03 -0.22,0.03 -0.2,0 -0.34,-0.09 -0.4,-0.28 -0.06,-0.18 -0.1,-0.43 -0.1,-0.73l0 -1.24 0 -8.76 0 -0.07 0 -0.01 -0 -0.06 0 -0.02 0 -0.05 -0 -0.02 0 -0.04 -0 -0.03 0 -0.03 -0 -0.04 -0 -0.03 -0 -0.05 -0 -0.02 -0 -0.06 -0 -0.01 -0 -0.06 0 -0 -0 -0.06 0 -0.01 -0 -0.06 0 -0.01 -0 -0.05 -0 -0.02 -0 -0.04 -0 -0.03 -0 -0.03 -0 -0.04 -0 -0.02 -0 -0.04 -0 -0.02 -0.01 -0.05 -0 -0.01 -0.01 -0.06 0 -0 -0.01 -0.06 -0 -0.01 -0.01 -0.05 -0 -0.01 -0.01 -0.05 -0 -0.02 -0.01 -0.04 -0 -0.03 -0.01 -0.03 -0 -0.03 -0 -0.02 -0.01 -0.04 -0 -0.02 -0.01 -0.04 -0 -0.01 -0.01 -0.05 0 -0 -0.01 -0.06 0 -0 -0.01 -0.05 -0 -0.01 -0.01 -0.04 -0 -0.02 -0.01 -0.04 -0.01 -0.02 -0.01 -0.03 -0.01 -0.03 -0 -0.02 -0.01 -0.04 -0 -0.02 -0.01 -0.04 -0 -0.01 -0.01 -0.05 -0 -0 -0.01 -0.05 -0 -0 -0.01 -0.05 -0 -0.01 -0.01 -0.04 -0 -0.01 -0.01 -0.03 -0.01 -0.02 -0.01 -0.03 -0.01 -0.03 -0.01 -0.02 -0.01 -0.03 -0.01 -0.01 -0.01 -0.04 -0 -0.01 -0.01 -0.04 -0 -0 -0.02 -0.05 0 -0 -0.02 -0.04 -0 -0.01 -0.01 -0.04 -0.01 -0.01 -0.01 -0.03 -0.01 -0.02 -0.01 -0.03 -0.01 -0.02 -0.01 -0.02 -0.01 -0.03 -0.01 -0.01 -0.02 -0.03 -0 -0.01 -0.02 -0.04 -0 -0 -0.02 -0.04 0 -0 -0.02 -0.04 -0 -0.01 -0.02 -0.03 -0.01 -0.01 -0.01 -0.03 -0.01 -0.01 -0.01 -0.02 -0.01 -0.02 -0.01 -0.02 -0.01 -0.02 -0.01 -0.01 -0.02 -0.03 -0.01 -0.01 -0.02 -0.03 -0 -0 -0.02 -0.04c-0.06,-0.1 -0.13,-0.19 -0.2,-0.27 -0.65,-0.78 -1.5,-1.17 -2.54,-1.17 -0.9,0 -1.69,0.42 -2.37,1.26l-0.14 0.18 -0.02 0.03 -0.01 0.01 -0.02 0.02 -0.01 0.02 -0.01 0.02 -0.01 0.02 -0.01 0.02 -0.01 0.03 -0.01 0.01 -0.02 0.03 -0.01 0.01 -0.02 0.04 -0 0 -0.02 0.04 0 0 -0.02 0.04 -0 0.01 -0.02 0.04 -0.01 0.01 -0.02 0.03 -0.01 0.01 -0.01 0.03 -0.01 0.02 -0.01 0.02 -0.01 0.03 -0.01 0.02 -0.01 0.03 -0.01 0.02 -0.01 0.04 -0.01 0.01 -0.02 0.04 -0 0.01 -0.02 0.05 -0.02 0.05 -0 0.01 -0.02 0.04 -0 0.01 -0.01 0.04 -0.01 0.02 -0.01 0.03 -0.01 0.02 -0.01 0.03 -0.01 0.03 -0.01 0.02 -0.01 0.04 -0.02 0.06 -0.01 0.01 -0.01 0.05 -0 0.01 -0.01 0.05 0 0 -0.02 0.06 0 0 -0.01 0.05 -0 0.01 -0.01 0.05 -0 0.02 -0.02 0.1 -0.01 0.03 -0.01 0.03 -0.01 0.04 -0.01 0.02 -0.01 0.04 -0 0.01 -0.01 0.05 -0 0.01 -0.01 0.06 0 0 -0.01 0.06 -0 0 -0.01 0.06 -0 0.01 -0.01 0.05 -0 0.02 -0.02 0.14 -0.01 0.03 -0.01 0.04 -0 0.03 -0.01 0.05 -0 0.02 -0.01 0.06 -0 0.01 -0.01 0.07 -0 0 -0.01 0.07 0 0 -0.01 0.07 -0 0.01 -0.01 0.06 -0 0.02 -0.01 0.05 -0 0.03 -0 0.04 -0 0.04 -0 0.04 -0 0.04 -0 0.03 -0 0.05 -0 0.02 -0.01 0.06 -0 0.01 -0 0.07 -0 0 -0.01 0.08c-0.02,0.31 -0.03,0.63 -0.04,0.98l0.34 0 1.05 0c0.05,-0.9 0.17,-1.57 0.36,-2.02 0.32,-0.82 0.87,-1.23 1.65,-1.23 0.67,0 1.19,0.23 1.55,0.68 0.36,0.45 0.54,1.17 0.54,2.16 0,0.49 -0.03,0.86 -0.1,1.12 -0.12,0.48 -0.35,0.76 -0.69,0.85l-2.37 0.58 -0.02 0 -0.02 0 -0.01 0 -0.01 0 -0.02 0 -0.01 0 -0.01 0 -0.02 0 -0.01 0 -0 0 -0.02 0 -0.02 0.01 -0.02 0.01 -0.02 0.01 -0 0 -0.01 0 -0.02 0.01 -0.01 0 -0.01 0 -0.02 0.01 -0.01 0 -0 0 -0.02 0.01 -0.02 0.01 -0 0 -0.02 0.01 -0.02 0.01 -0 0 -0.01 0.01 -0.02 0.01 -0.01 0 -0.01 0 -0.02 0.01 -0.01 0.01 -0 0 -0.02 0.01 -0.02 0.01 -0 0 -0.01 0.01 -0.02 0.01 -0.01 0 -0.01 0.01 -0.02 0.01 -0.01 0 -0.01 0 -0.02 0.01 -0.01 0.01 -0 0 -0.02 0.01 -0.01 0.01 -0 0 -0.01 0.01 -0.01 0.01 -0.01 0 -0.01 0.01 -0.01 0.01 -0.01 0.01 -0.01 0 -0.02 0.01 -0.01 0.01 -0 0 -0.01 0.01 -0.02 0.01 -0 0 -0.01 0.01 -0.01 0.01 -0.01 0 -0.01 0.01 -0.02 0.01 -0.01 0 -0.01 0.01 -0.01 0.01 -0 0 -0.01 0.01 -0.03 0.02 -0.01 0.01 -0.01 0 -0.01 0.01 -0.01 0.01 -0.01 0.01 -0.01 0 -0.01 0.01 -0.01 0.01 -0 0 -0.01 0.01 -0.01 0.01 -0 0 -0.01 0.01c-0.38,0.28 -0.72,0.67 -1,1.16 -0.51,0.88 -0.77,2.13 -0.77,3.74l0.01 0.33 -1.71 0c0.09,-0.43 0.14,-0.84 0.17,-1.22l-1.46 0c-0.06,0.44 -0.15,0.85 -0.27,1.22l-4.23 0c-0.26,-0.96 -0.39,-2.13 -0.41,-3.53l6.49 0c0,-1.75 -0.04,-3.03 -0.13,-3.83 -0.1,-1.17 -0.3,-2.18 -0.6,-3.06 -0.22,-0.65 -0.51,-1.22 -0.87,-1.7l2.73 0c-0.48,-2.56 -0.72,-5.32 -0.72,-8.26 0,-9.56 2.6,-17.32 7.78,-23.28 5.2,-5.98 11.97,-8.95 20.34,-8.95zm-70.67 40.49l3.28 0 -1.61 12.12 -0.12 0 -1.55 -12.12zm4.76 0l2.88 0c-0.24,0.34 -0.46,0.74 -0.67,1.21 -0.77,1.74 -1.16,4 -1.16,6.79 0,1.57 0.12,2.95 0.35,4.13l-3.21 0 1.8 -12.12zm7.55 0l9.21 0c-0.19,0.3 -0.38,0.64 -0.55,1.02 -0.75,1.7 -1.13,4.07 -1.13,7.12 0,1.47 0.12,2.8 0.36,3.98l-6.58 0c0.09,-0.43 0.14,-0.84 0.17,-1.22l-1.46 0c-0.06,0.44 -0.15,0.85 -0.27,1.22l-4.23 0c-0.25,-0.96 -0.39,-2.13 -0.41,-3.53l6.49 0c0,-1.75 -0.04,-3.03 -0.13,-3.83 -0.1,-1.17 -0.3,-2.18 -0.6,-3.06 -0.22,-0.65 -0.51,-1.22 -0.87,-1.7zm14.05 0l2.6 0 0 12.12 -1.75 0c0.1,-0.58 0.17,-1.22 0.22,-1.92l-1.44 0c-0.08,0.73 -0.19,1.37 -0.34,1.92l-3.77 0c-0.29,-1.1 -0.44,-2.42 -0.44,-3.95 0,-1.73 0.13,-3.18 0.4,-4.36 0.41,-1.81 1.09,-2.72 2.04,-2.72 0.7,0 1.2,0.35 1.51,1.06 0.31,0.71 0.51,1.6 0.6,2.67l1.44 0c-0.12,-2.25 -0.48,-3.85 -1.07,-4.82zm4.01 0l0.77 0c-0.4,0.77 -0.66,1.43 -0.77,1.98l0 -1.98zm2.9 0l2.62 0c-0.24,0.34 -0.46,0.74 -0.67,1.21 -0.77,1.74 -1.16,4 -1.16,6.79 0,1.57 0.12,2.95 0.35,4.13l-3.97 0 0 -5.77c0,-1.23 0.2,-2.32 0.6,-3.26 0.4,-0.95 0.98,-1.42 1.73,-1.42 0.09,0 0.17,0.01 0.24,0.02 0.08,0.01 0.15,0.03 0.25,0.06l0 -1.75zm30.83 0l7.34 0 1.79 12.12 -7.82 0c0.09,-0.43 0.14,-0.84 0.16,-1.22l-1.46 0c-0.06,0.44 -0.15,0.85 -0.27,1.22l-1.85 0c0.51,0.26 1.04,0.49 1.6,0.69l-0.05 0.11c-0.46,1 -1.08,1.5 -1.86,1.5 -0.83,0 -1.45,-0.53 -1.84,-1.59 -0.08,-0.22 -0.16,-0.46 -0.22,-0.71l-0 0 -0.01 -0.03 -0 -0.01 -0.01 -0.02 -0.01 -0.02 -0 -0.02 -0.01 -0.03 -0 -0.01 -0.01 -0.04 0 -0 -0.01 -0.04 -0 -0.01 -0.01 -0.03 -0 -0.01 -0.01 -0.02 -0.01 -0.02 -0 -0.02 -0.01 -0.03 -0 -0.01 -0.01 -0.04 0 -0 -0.01 -0.04 -0 -0.01 -0.01 -0.03 -0 -0.01 -0 -0.03 -0.01 -0.02 -0 -0.02 -0.01 -0.03 -0 -0.01 -0.01 -0.04 0 -0 -0.01 -0.04 -0 -0.01 -0.01 -0.04 -0 -0.01 -0 -0.03 -0.01 -0.02 -0 -0.02 -0.01 -0.03 -0 -0.01 -0.01 -0.04 0 -0 -0.01 -0.04 -0 -0.01 -0.01 -0.04 -0 -0.01 -0 -0.03 -0 -0.02 -0 -0.02 -0.01 -0.03 -0 -0.01 -0.01 -0.04 0 -0 -0.01 -0.04 -0 -0.01 -0 -0.04 -0 -0.01 -0 -0.03 -0 -0.02 -0 -0.02 -0 -0.03 -0 -0.01 -0.01 -0.04 0 -0.01 -0.01 -0.04 -0 -0 -0.01 -0.04 -0 -0.01 -0 -0.03 -0 -0.02 -0 -0.02 -0 -0.03 -0 -0.01 -0.01 -0.04 0 -0.01 -0.01 -0.05 0 -0 -0 -0.04 -0 -0.01 -0 -0.03c-0.05,-0.51 -0.07,-1.07 -0.09,-1.67l6.49 0c0,-1.75 -0.04,-3.03 -0.13,-3.83 -0.1,-1.17 -0.3,-2.18 -0.6,-3.06 -0.22,-0.65 -0.51,-1.22 -0.87,-1.7zm8.95 0l3.18 0 -1.53 12.12 -0.13 0 -1.51 -12.12zm5.11 0l3.28 0 -1.45 10.86 -0.17 1.26 -0.06 0.46 -0.06 -0.46 -0.12 -0.98 -1.42 -11.14zm12.3 0l3.32 0 0 1.7 0 6.79 0 3.63 -2 0 0.07 -0.4 0 -0 0 -0.01 0 -0.01 0 -0.01 0 -0.01 0 -0 0.01 -0.05 0 -0 0 -0.01 0 -0.01 0 -0 0 -0.01 0 -0 0 -0.01 0 -0.01 0 -0 0 -0.01 0 -0 0 -0.01 0 -0.01 0 -0.01 0 -0.01 0 -0.01 0 -0.01 0 -0.01 0 -0.01 0 -0 0 -0.01 0 -0.01 0 -0.01 0 -0.03 0 -0 0 -0.01 0 -0.01 0 -0 0 -0.01 0 -0 0 -0.02 0 -0 0 -0.01 0 -0 0 -0.01 0 -0.01 0 -0.01 0 -0.01 0 0 0 -0.01 0 -0.01 0 -0.01 0 -0.03 0 -0.01 0 -0.01 0 -0.02 0 -0 0 -0.01 0 -0.01 0 -0 0 -0.01 0 -0 0 -0.01 0 -0.01 0 -0 0 -0.01 0 -0.01 0 -0.01 0 -0.01 0 -0 0 -0.01 0 0 0 -0.01 0 -0.01 0 -0.01 0 -0.01 0 -0 0 -0.01 0 -0.01 0 -0.01 0 -0.01 0 -0 0 -0.01 0 -0 0 -0.01 0 -0.01 0 -0 0 -0.01 0 -0 0 -0.01 0 -0.01 0 -0.01 0 -0.01 0 -0 0 -0.01 0 -0.01 0 -0.01 0 -0.01 -1.46 0 -0 0.02 -0 0.01 0 0.01 -0 0.02 -0 0.01 -0 0.01 -0 0.02 -0 0.01 -0 0.01 -0 0.02 -0 0.02 -0 0.01 -0 0.01 -0 0.02 -0 0.01 -0 0.01 -0 0.02 -0 0 -0 0.02 -0 0.02 -0 0.02 -0 0.01 0 0.01 -0 0.02 -0 0.01 -0 0.01 -0 0.02 -0 0 -0 0.01 -0 0.02 0 0 -0 0.02 -0 0.01 0 0.01 -0 0.02 -0 0.01 -0 0.01 -0 0.02 0 0 -0 0.02 -0 0.02 0 0 -0 0.02 -0 0.01 -0 0.01 -0 0.02 -0 0.01 -0 0.01 -0 0.02 0 0 -0 0.02 -0 0.02 0 0 -0 0.02 -0 0.01 -0 0.01 -0.01 0.02 -0 0.01 -0 0.01 -0 0.02 -0 0 -0 0.02 -0 0.02 0 0 -0 0.02 0 0 -0 0.01 -0 0.01 -0 0.02 -0 0.01 -0 0.01 -0.01 0.02 0 0 -0 0.02 -0.01 0.02 0 0 -0 0.02 -0 0.01 -0 0.01 -0.01 0.02 -0 0.01 -0 0.01 -0.01 0.02 0 0 -0.01 0.02 -0 0.02 0 0 -0.01 0.02 -0 0.01 -0 0.01 -0.01 0.02 -0 0.01 -0 0.01 -0.01 0.02 -0 0 -0 0.02 -0.01 0.01 0 0 -0.01 0.02c-0.09,0.29 -0.19,0.55 -0.3,0.8 -0.46,1 -1.08,1.5 -1.86,1.5 -0.83,0 -1.45,-0.53 -1.84,-1.59 -0.08,-0.22 -0.16,-0.46 -0.23,-0.71l-0.01 -0.04 -0 -0.01 -0.01 -0.05 0 -0 -0.02 -0.09 -0.01 -0.03 -0 -0.02 -0.01 -0.04 -0 -0.01 -0.01 -0.05 -0 -0.01 -0.01 -0.04 -0 -0.02 -0.01 -0.03 -0.01 -0.03 -0 -0.02 -0.01 -0.04 -0 -0 -0.01 -0.05 -0 -0.01 -0.01 -0.04 -0 -0.02 -0.01 -0.03 -0.01 -0.04 -0 -0.01 -0.01 -0.05 -0 0 -0.01 -0.05 -0 -0.01 -0.01 -0.04 -0 -0.03 -0.01 -0.02 -0.01 -0.04 -0 -0.01 -0.01 -0.05 0 -0 -0.01 -0.05 -0 -0.02 -0.01 -0.04 -0 -0.03 -0 -0.02 -0.01 -0.11 0 -0.01 -0.01 -0.05 -0 -0.02 -0.01 -0.04 -0 -0.03 -0 -0.02 -0.01 -0.05 -0 -0.01 -0.01 -0.05 0 -0.01 -0.01 -0.05 -0 -0.02 -0 -0.03 -0 -0.04 -0 -0.02 -0.01 -0.05 0 -0 -0.01 -0.06 0 -0.01 -0.01 -0.04 -0 -0.03 -0 -0.03 -0 -0.04 -0 -0.01 -0.01 -0.06 0 -0 -0 -0.06 -0 -0.01 -0 -0.04 -0 -0.03 -0 -0.03 -0 -0.05 -0 -0.01 -0 -0.06 0 -0 -0 -0.06 -0 -0.02 -0 -0.04 -0 -0.04 -0 -0.02 -0 -0.05 0 -0.01 -0 -0.06 0 -0.01 -0 -0.05 -0 -0.02 -0 -0.04 -0 -0.04 -0 -0.02 -0 -0.05 0 -0.01 -0 -0.06 0 -0.01 -0 -0.05 -0 -0.03 0 -0.04 -0 -0.04 0 -0.02 -0 -0.06 0 -0 -0 -0.06 0 -0.01 -0 -0.05 -0 -0.03 0 -0.03 -0 -0.05 0 -0.02 -0 -0.07 6.49 0c0,-1.75 -0.04,-3.03 -0.13,-3.83 -0.1,-1.17 -0.3,-2.18 -0.6,-3.06 -0.22,-0.65 -0.51,-1.22 -0.87,-1.7zm4.76 0l0.53 0c-0.19,0.32 -0.37,0.68 -0.53,1.09l0 -1.09zm4.91 0l1.45 0 0 12.12 -0.45 0c0.29,-1.4 0.44,-3 0.44,-4.79 0,-2.89 -0.34,-5.08 -1.03,-6.57 -0.13,-0.28 -0.27,-0.53 -0.41,-0.76zm-0.59 12.12l-3.93 0c-0.06,-0.21 -0.12,-0.44 -0.16,-0.68 -0.21,-1.01 -0.31,-2.34 -0.31,-3.97 0,-0.87 0.04,-1.64 0.11,-2.32l0 -0.03 0 -0.02 0.01 -0.05 0 -0.01 0 -0.04 0.01 -0.04 0 -0.01 0.01 -0.05 0 -0.02 0 -0.02 0.01 -0.05 0 -0.01 0.01 -0.04 0 -0.04 0 -0.01 0.01 -0.05 0 -0.02 0 -0.03 0.01 -0.05 0.01 -0.05 0 -0.03 0 -0.02 0.01 -0.05 0 -0.01 0.01 -0.04 0.01 -0.04 0 -0.01 0.01 -0.04 0 -0.02 0 -0.02 0.01 -0.04 0 -0.01 0.01 -0.04 0.01 -0.03 0 -0.01 0.01 -0.04 0 -0.02 0.01 -0.03 0.01 -0.04 0.01 -0.04 0.01 -0.03 0 -0.01 0.01 -0.04 0 -0.01 0.01 -0.03 0.01 -0.04 0 -0.01 0.01 -0.04 0.01 -0.02 0.01 -0.02 0.01 -0.04 0 -0.01 0.01 -0.03 0.01 -0.03 0 -0.01 0.01 -0.04 0 -0.01 0.01 -0.02 0.01 -0.04 0 -0 0.01 -0.04 0.01 -0.02 0 -0.01 0.01 -0.04 0 -0.01 0.01 -0.03 0.01 -0.03 0 -0 0.01 -0.04 0.01 -0.02 0.01 -0.02 0.01 -0.04 0 -0 0.01 -0.03 0.01 -0.03 0 -0.01 0.01 -0.03 0.01 -0.01 0.01 -0.02 0.01 -0.03 0.01 -0.03 0.01 -0.02 0.01 -0.01 0.01 -0.03 0 -0.01 0.01 -0.02 0.01 -0.03 0.01 -0.03 0.01 -0.01 0.01 -0.02 0.01 -0.03 0 -0 0.01 -0.03 0.01 -0.02 0 -0.01 0.01 -0.03 0.01 -0.01 0.01 -0.02 0.01 -0.03 0.02 -0.05 0.02 -0.04 0.01 -0.03c0.5,-0.91 1.07,-1.36 1.72,-1.36 0.78,0 1.37,0.6 1.77,1.8 0.4,1.2 0.6,2.71 0.6,4.54 0,1.89 -0.17,3.44 -0.51,4.65zm-51.18 0l-3.23 0c-0.01,-0.13 -0.01,-0.26 -0.01,-0.4 0,-1.11 0.23,-1.93 0.68,-2.43 0.14,-0.15 0.3,-0.29 0.51,-0.4l0.01 -0.01 0.02 -0.01 0.01 -0 0 -0 0.03 -0.01 0.01 -0 0 -0 0.02 -0.01 0 -0 0.02 -0.01 0 -0 0.06 -0.03 0 -0 0.02 -0.01 0 -0 0.02 -0.01 0 -0 0.01 -0 0.01 -0 0 -0 0.01 -0 0.01 -0 0 -0 0.01 -0 0.01 -0 0 -0 0.01 -0 0.01 -0 0 -0 0.01 -0 0.01 -0 0.01 -0 0.01 -0.01 0.01 -0 0.01 -0 0 -0 0.01 -0 0.01 -0 0 -0 0.01 -0 0.01 -0 0 -0 0.01 -0 0.01 -0 0 -0 0.01 -0 0.01 -0 0 -0 0.01 -0 0.01 -0 0.02 -0.01 0.02 -0.01 0.01 -0 0.01 -0 0 0 0.01 -0 0.01 -0 0.01 -0 0.01 -0 0 -0 0.01 -0 0.01 -0 0.02 -0.01 0.02 -0.01 0.03 -0.01 0.9 -0.23c0.28,-0.06 0.56,-0.17 0.84,-0.32 0.29,-0.15 0.52,-0.34 0.7,-0.57l0 2.35 0 0.04 0 0.02 0 0.02 0 0.03 0 0.01 -0 0.04 0 0.01 0 0.03 -0 0.02 0 0.02 -0 0.04 0 0 0 0.04 -0 0.01 0 0.02 -0 0.03 0 0.01 -0 0.04 -0 0.01 -0 0.03 0 0.02 -0 0.02 -0 0.04 0 0 -0 0.04 0 0.01 -0 0.03 -0 0.03 0 0.01 -0 0.04 0 0 -0 0.03 -0 0.02 -0 0.02 -0 0.03 0 0 -0 0.04 0 0.01 -0 0.03 -0 0.03 0 0.01 -0 0.04 0 0 -0 0.03 -0 0.02 -0 0.02 -0 0.03 0 0.01 -0 0.04 -0 0.01 -0 0.03 -0 0.02 -0 0.01 -0 0.04 0 0 -0.01 0.03 -0 0.02 -0 0.02 -0 0.03 -0 0.01 -0.01 0.03 0 0.01 -0 0.03 -0 0.02 -0 0.01 -0.01 0.03 0 0 -0.01 0.03 -0 0.01 -0 0.02 -0 0.03 -0 0.01 -0.01 0.03 -0 0.01 -0 0.03 -0 0.02 -0 0.01 -0.01 0.03 -0.01 0.03 -0 0.01 -0 0.02 -0.01 0.02 -0 0.01 -0.01 0.03 -0 0.01 -0.01 0.03 -0 0.02 -0 0.01 -0.01 0.03 -0 0 -0.01 0.03 -0 0.01 -0.01 0.02 -0.01 0.02 -0 0.01 -0.01 0.03 -0 0 -0.01 0.03 -0 0.02 -0 0.01 -0.01 0.03 -0 0 -0.01 0.03 -0 0.01 -0.01 0.02 -0.01 0.02 -0 0.01 -0.01 0.03c-0.08,0.25 -0.17,0.48 -0.28,0.7 -0.18,-0.23 -0.36,-0.46 -0.54,-0.7zm-48.13 0l-2.43 0 1.2 -9.22 1.24 9.22zm12.15 -5.84c-0.06,-1.27 -0.2,-2.27 -0.42,-3.03 -0.41,-1.4 -1.09,-2.11 -2.04,-2.11 -0.68,0 -1.26,0.48 -1.72,1.45 -0.46,0.97 -0.71,2.2 -0.74,3.69l4.92 0zm28.24 0c-0.06,-1.27 -0.2,-2.27 -0.42,-3.03 -0.41,-1.4 -1.09,-2.11 -2.04,-2.11 -0.68,0 -1.26,0.48 -1.72,1.45 -0.46,0.97 -0.71,2.2 -0.74,3.69l4.92 0zm23.55 0c-0.06,-1.27 -0.2,-2.27 -0.42,-3.03 -0.41,-1.4 -1.09,-2.11 -2.04,-2.11 -0.68,0 -1.26,0.48 -1.72,1.45 -0.46,0.97 -0.71,2.2 -0.74,3.69l4.92 0zm25.16 -4.57c-0.35,-0.38 -0.77,-0.56 -1.26,-0.56 -0.43,0 -0.81,0.19 -1.15,0.56l-0 0 -0.01 0.01 -0.01 0.01 -0.01 0.01 -0 0 -0.01 0.01 -0.01 0.01 -0.01 0.01 -0.01 0.01 -0.01 0.01 -0 0 -0.01 0.01 -0.01 0.01 -0.01 0.01 -0 0 -0.02 0.02 -0.01 0.01 -0 0.01 -0.01 0.01 -0.01 0.01 -0 0 -0.01 0.01 -0.01 0.01 -0.01 0.01 -0 0 -0.01 0.01 -0.01 0.01 -0 0.01 -0 0.01 -0.01 0.01 -0.01 0.01 -0 0 -0.02 0.03 -0.01 0.01 -0 0 -0.01 0.01 -0.01 0.01 -0 0.01 -0.01 0.01 -0.01 0.01 -0.01 0.01 -0 0 -0.01 0.01 -0.01 0.01 -0.01 0.01 -0 0 -0.01 0.01 -0.01 0.01 -0 0.01 -0.01 0.01 -0.01 0.01 -0.01 0.01 0 0 -0.01 0.01 -0.01 0.01 -0.01 0.01 -0 0 -0.01 0.01 -0.01 0.01 -0 0.01 -0.01 0.01 -0.01 0.01 -0.01 0.02 -0.01 0.01 -0.01 0.01 -0.01 0.01 -0 0 -0.01 0.02 -0.01 0.01 -0 0.01 -0.01 0.01 -0.01 0.02 -0.01 0.02 -0 0 -0.01 0.02 -0.01 0.02 -0.01 0.01 -0 0.01 -0.01 0.02 -0.01 0.02 -0 0.01 -0.01 0.01 -0.01 0.02 -0.01 0.02c-0.46,0.97 -0.71,2.2 -0.74,3.69l4.92 0c-0.06,-1.27 -0.2,-2.27 -0.42,-3.03l-0.01 -0.03 -0.01 -0.03 0 -0 -0.01 -0.03 -0.01 -0.03 -0 -0 -0.01 -0.03 -0.01 -0.03 -0 -0.01 -0.01 -0.02 -0.01 -0.03 -0 -0.01 -0.01 -0.02 -0.01 -0.03 -0 -0.01 -0.01 -0.02 -0.01 -0.03 -0.01 -0.01 -0.01 -0.02 -0.01 -0.03 -0.01 -0.01 -0.01 -0.01 -0.01 -0.03 -0.01 -0.02 -0 -0.01 -0.01 -0.03 -0.01 -0.02 -0 -0.01 -0.02 -0.05 -0 -0.01 -0.01 -0.03 -0.01 -0.02 -0 -0.01 -0.01 -0.03 -0.01 -0.02 -0 -0 -0.01 -0.03 -0.01 -0.02 0 -0 -0.01 -0.03 -0.01 -0.02 -0.04 -0.07 -0.01 -0.02 -0 -0 -0.01 -0.02 -0.01 -0.02 -0 -0.01 -0.01 -0.02 -0.01 -0.02 -0 -0.01 -0.01 -0.02 -0.01 -0.02 -0.01 -0.01 -0.02 -0.04 -0.01 -0.01 -0.02 -0.03 -0.01 -0.01 -0.01 -0.01 -0.01 -0.02 -0.01 -0.01 -0.01 -0.01 -0.01 -0.02 -0.01 -0.01 -0 -0.01 -0.02 -0.03 -0 -0.01 -0.03 -0.04 -0 -0 -0.01 -0.02 -0.03 -0.04 -0.01 -0.02 0 -0 -0.03 -0.04 -0 0 -0.01 -0.02 -0.01 -0.02 -0 -0 -0.01 -0.02 -0.01 -0.02 -0 -0 -0.01 -0.01 -0.01 -0.02zm165.65 -62.98l10.02 0 0 81.65 -10.02 0 0 -81.65zm27.41 69.53l11.61 0 0 12.12 -11.61 -12.12zm-52.7 -69.53l10.02 0 0 81.65 -10.02 0 0 -81.65zm-39.95 75.2c6.62,0 11.17,-2.51 13.64,-7.53 2.47,-5.01 3.7,-10.6 3.7,-16.75 0,-5.56 -0.89,-10.07 -2.68,-13.56 -2.81,-5.48 -7.66,-8.23 -14.55,-8.23 -6.13,0 -10.57,2.33 -13.34,7.02 -2.79,4.67 -4.17,10.3 -4.17,16.89 0,6.34 1.38,11.63 4.17,15.84 2.77,4.23 7.17,6.34 13.22,6.34zm0.38 -54.81c7.68,0 14.15,2.56 19.46,7.68 5.29,5.1 7.95,12.63 7.95,22.56 0,9.6 -2.33,17.53 -7,23.79 -4.69,6.26 -11.91,9.39 -21.74,9.39 -8.2,0 -14.68,-2.77 -19.5,-8.31 -4.82,-5.54 -7.23,-12.98 -7.23,-22.31 0,-10 2.54,-17.97 7.61,-23.9 5.08,-5.92 11.89,-8.9 20.45,-8.9zm-74.97 42.59c0.3,3.32 1.14,5.88 2.5,7.66 2.52,3.23 6.89,4.84 13.11,4.84 3.72,0 6.98,-0.82 9.79,-2.43 2.83,-1.61 4.23,-4.1 4.23,-7.48 0,-2.54 -1.14,-4.5 -3.4,-5.82 -1.44,-0.82 -4.31,-1.76 -8.56,-2.85l-7.95 -1.99c-5.08,-1.27 -8.82,-2.68 -11.23,-4.23 -4.29,-2.69 -6.45,-6.45 -6.45,-11.23 0,-5.63 2.03,-10.19 6.09,-13.66 4.06,-3.49 9.52,-5.23 16.37,-5.23 8.97,0 15.42,2.64 19.39,7.89 2.49,3.34 3.7,6.94 3.62,10.79l-9.45 0c-0.19,-2.26 -0.99,-4.32 -2.39,-6.18 -2.29,-2.62 -6.28,-3.95 -11.95,-3.95 -3.78,0 -6.64,0.74 -8.59,2.18 -1.93,1.44 -2.92,3.34 -2.92,5.71 0,2.6 1.29,4.69 3.85,6.24 1.48,0.91 3.66,1.73 6.55,2.43l6.62 1.61c7.19,1.74 12.01,3.43 14.46,5.07 3.89,2.56 5.82,6.58 5.82,12.06 0,5.29 -2.01,9.87 -6.03,13.72 -4.02,3.87 -10.13,5.79 -18.36,5.79 -8.86,0 -15.12,-2.01 -18.82,-6.03 -3.68,-4.02 -5.65,-8.99 -5.92,-14.91l9.62 0zm-28.51 -15.84c-0.4,-4.34 -1.35,-7.8 -2.83,-10.4 -2.75,-4.82 -7.32,-7.23 -13.73,-7.23 -4.59,0 -8.44,1.65 -11.55,4.97 -3.11,3.32 -4.76,7.53 -4.95,12.65l33.07 0z"/>
 </g>
</svg>
