<?xml version="1.0"?><svg version="1.2" baseProfile="tiny-ps" viewBox="0 0 300 300" xmlns="http://www.w3.org/2000/svg" xmlns:xlink="http://www.w3.org/1999/xlink"><title>Owlweb Studio</title><g><g fill="#e7eaec" transform="matrix(.1 0 0 -.1 0 300)"><path d="M1255 2974c-310-57-570-191-793-408-127-123-216-245-297-405-58-117-90-204-122-339l-25-107-5-167-6-166 17-104c54-326 184-584 415-821C666 223 935 83 1265 25l90-16h282l94 15c481 77 889 378 1110 819 82 162 129 333 150 540l11 117-11 115c-14 138-32 232-67 340-73 225-206 439-380 610l-82 81-93 67-94 67-120 59c-123 61-223 96-355 126l-75 17-195 4-195 3-80-15zm397-5 103-11 110-28 111-28 87-37c108-46 243-123 322-183 90-69 220-198 284-282 63-82 133-192 127-197-7-7-130 17-271 54l-140 37-55 54c-181 178-405 288-665 327-164 24-298 16-474-31l-95-25-94-44c-124-59-215-120-311-211l-80-75-126-35c-117-33-276-66-283-59-4 4 75 131 112 180 320 425 825 649 1338 594zM190 2117v-33l24-21 24-21 7-59c18-163 36-274 51-318l17-50 2-125 3-125 22-104 21-103 35-90 36-90-11-26c-17-46-31-142-31-221v-76l14-52c26-99 73-151 153-172l42-12 45 12 45 11 30 32c17 17 38 41 48 54l19 24 54-37c81-55 201-113 300-145l89-29 104-15c131-20 211-20 335-1 123 19 174 33 290 79l94 38 27-12 27-11 25 9c32 13 54 38 76 88l18 41 38 33 37 32V450h50l1 33v32l17-25c9-13 25-33 35-42l17-18h76l23 22c13 11 35 45 48 75l25 54 14 77c16 94 18 193 3 300l-11 80 25 74c14 40 33 109 43 153l17 80 7 165 8 165 11 36c6 20 18 88 26 150 18 140 29 180 60 218 14 16 25 34 25 40 0 27 19 7 40-41 58-134 92-266 111-428l12-105-6-110c-8-146-31-268-72-391-77-230-203-432-377-600-264-257-576-394-953-420l-100-6-115 12-115 12-95 24C655 191 262 556 100 1040c-40 117-59 212-70 347l-9 113 10 120 10 120 28 113 29 114 38 91c22 51 42 92 47 92 4 0 7-15 7-33zM2547 771l-5-126-12-35c-15-42-38-70-65-80l-20-8-26 13-25 14-12 26c-7 14-15 43-18 65l-6 39 46 52c26 28 65 80 87 115l42 64 10-7 10-6-6-126zM531 818c18-29 69-89 111-134l78-81-23-34-23-34-28-13-28-14-32 6-32 6-27 28c-14 15-31 40-37 56l-11 30v97c-1 84 5 139 15 139 1 0 18-24 37-52z"/></g><g fill="#f4a203" transform="matrix(.1 0 0 -.1 0 300)"><path d="M1355 2679c-38-5-112-21-164-34l-95-26-94-44c-124-59-215-121-311-211l-80-75-138-38c-77-21-163-42-193-46s-65-13-77-21l-21-13 5-43 5-43 23-22 23-22 7-58c18-163 36-274 51-318l17-50 2-125 3-125 22-104 21-103 35-90 36-90-11-26c-17-46-31-142-31-221v-76l14-52c26-99 73-151 153-172l42-12 45 12 45 11 30 32c17 17 38 41 48 54l19 24 54-37c81-55 201-113 300-145l89-29 104-15c131-20 211-20 335-1 123 19 174 33 290 79l94 38 27-12 27-11 25 9c32 13 54 38 76 88l18 41 38 33 37 32V450h50l1 33v32l17-25c9-13 25-33 35-42l17-18h76l23 22c13 11 35 45 48 75l25 54 14 77c16 94 18 193 3 300l-11 80 25 74c14 40 33 109 43 153l17 80 7 165 8 165 11 36c6 20 18 88 26 150 17 139 29 180 59 216 13 15 27 38 30 51l8 23-16 23-15 24-68 11c-37 6-131 28-208 48l-140 37-55 54c-181 178-405 288-665 327l-100 15-70-1c-38-1-101-6-140-10zm637-1071c-7-7-12-20-12-29 0-10-5-21-10-24l-10-6-6 16-6 16 17 19c10 11 23 20 29 20h10l-12-12zm116-72-3-17-19 14-19 14 7 18 7 19 15-16 16-16-4-16zm86 0-4-11-35-1-35-1v39l24-6 25-6 7 11 7 11 7-13c5-6 6-17 4-23zm-184-33v-24l-19 10-18 10 5 26 4 25 14-11 14-11v-25zm-960-25c0-5-6-8-14-8h-15l-6 20-6 20 7 11 7 12 13-24c7-13 13-27 14-31zm1157-10-5-13-1 19c-1 11 2 17 5 13 3-3 4-12 1-19zm37 6 6-17-15 13c-17 14-19 20-6 20 5 0 12-7 15-16zm303-703-5-126-12-35c-15-42-38-70-65-80l-20-8-26 13-25 14-12 26c-7 14-15 43-18 65l-6 39 46 52c26 28 65 80 87 115l42 64 10-7 10-6-6-126zM531 818c18-29 69-89 111-134l78-81-23-34-23-34-28-13-28-14-32 6-32 6-27 28c-14 15-31 40-37 56l-11 30v97c-1 84 5 139 15 139 1 0 18-24 37-52z"/></g><g fill="#1475aa" transform="matrix(.1 0 0 -.1 0 300)"><path d="M1355 2679c-38-5-113-21-165-34l-95-25-111-55-112-54-78-60c-44-33-101-82-129-110l-50-52 75 5 75 5-50-8c-27-5-79-12-115-16s-110-20-165-35-125-31-155-35-65-13-77-21l-21-13 5-43 5-43 23-22 23-22 7-58c18-163 36-274 51-318l17-50 2-125 3-125 21-101c19-92 48-182 82-256l12-28 23 34 23 34 44 21c24 12 56 21 70 21 40 0 97-26 133-61l31-30 24-50 23-50-14-10c-8-5-25-9-37-9h-22l-6 21c-4 11-20 35-36 54l-30 34-28 6-29 6-36-15-36-15-18-31-17-30-45 5-45 5 20-9c11-5 30-10 43-10l22-1v-11c0-22 77-126 149-201l74-78h80l-6-28-6-29 62-40c90-59 197-110 297-143l89-29 104-15c58-9 135-16 173-16 73 0 218 20 294 39 49 13 217 76 238 90l13 8-21 36c-26 44-50 129-50 177v35l35 24c19 13 51 29 72 37l38 13 53 1h52v-38l-27-6c-16-3-63-8-105-12l-78-6v-25c0-14 7-52 16-85l15-60-16-12-15-11 54-2 54-2 18 20 17 19h53l42 36 42 36v128l23 1h22l-22 11-23 11v239l16-6c9-3 27-9 41-12l24-6-7-17c-17-42-24-94-23-191V675l49 52c27 29 68 83 91 119l43 66 33-5c41-7 43 1 4 14l-28 10-12 40c-7 22-21 49-32 60l-19 19h-38l-31-26-30-25-39 12-39 11-7 106c-3 58-6 120-6 137v33l24 4 24 5 6-51c3-28 6-89 6-136l1-85 19 37c11 20 32 46 46 57l27 21h74l20-23c11-12 29-39 40-60l19-38 27 83c15 46 35 115 43 153l15 70 9 170 8 170 11 36c6 20 18 88 26 150 17 139 29 180 59 216 13 15 27 38 30 51l8 23-16 23-15 24-68 11c-37 6-131 28-208 48l-140 37-55 54c-181 178-405 288-665 327l-100 15-70-1c-38-1-101-6-140-10zm-630-418c-16-5-58-13-93-20s-71-15-80-18l-17-6 10 11c13 15 120 40 170 40h40l-30-7zm1552 3c-3-3-12-4-19-1l-13 5 19 1c11 1 17-2 13-5zm-164-11c-7-2-21-2-30 0l-18 5h60l-12-5zm250 0c-7-2-21-2-30 0l-18 5h60l-12-5zm-1348-24 9-9h-15c-8 0-24 7-35 16l-19 15 25-7c14-3 29-10 35-15zm-485-13c0-2-7-7-16-10l-15-6 6 10c6 10 25 14 25 6zm1429 0c-8-7-99-45-99-41 0 7 74 44 89 45 8 0 12-2 10-4zm761-71c0-2-9-3-19-2l-20 1 5 8 5 7 14-6c8-3 15-7 15-8zm-1202-92c-16-2-40-2-55 0l-28 4h110l-27-4zm0-20c-10-2-26-2-35 0l-18 5h70l-17-5zm-32-94c32-5 67-12 77-15l17-5-5-9-5-8-37 8c-21 4-55 11-75 14l-38 7v9c0 12-6 12 66-1zm506-331c-7-7-12-20-12-29 0-10-5-21-10-24l-10-6-6 16-6 16 17 19c10 11 23 20 29 20h10l-12-12zm116-72-3-17-19 14-19 14 7 18 7 19 15-16 16-16-4-16zm86 0-4-11-35-1-35-1v39l24-6 25-6 7 11 7 11 7-13c5-6 6-17 4-23zm-671-6 57-11v-10c0-5-2-9-5-9-4 0-85 16-132 26-13 2-23 9-23 14v10l23-4c12-3 48-10 80-16zm487-27v-24l-19 10-18 10 5 26 4 25 14-11 14-11v-25zm617 26 3-14-56-59-55-59-12 12-11 11 32 33 32 33v45l23 9c27 11 41 8 44-11zm-1577-51c0-5-6-8-14-8h-15l-6 20-6 20 7 11 7 12 13-24c7-13 13-27 14-31zm1157-10-5-13-1 19c-1 11 2 17 5 13 3-3 4-12 1-19zm37 6 6-17-15 13c-17 14-19 20-6 20 5 0 12-7 15-16zm-299-63 50-31-35 6c-41 8-80 30-80 46 0 6-8 21-17 32l-18 21 25-21c14-12 47-36 75-53zm-785 29c0-21-138-110-170-110h-11l7 23c3 12 11 24 16 25 5 2 34 21 65 42l56 37 19-4c10-3 18-9 18-13zm745-55 20-16-20 10c-11 5-29 17-40 26l-20 16 20-10c11-5 29-17 40-26zm-1312-42c-15-5-73 24-73 37v10l43-21 42-22-12-4zm1575 1 30-6 5-19 5-19h-98v10c0 6 5 10 11 10h11l-6 15-5 15h8c5 0 22-3 39-6zm-686-254c29-6 63-13 76-16l23-5-6-8-5-9-37 8c-21 4-55 11-75 14l-38 7v9c0 12-2 12 62 0zm663-34 19-14-35-7c-19-4-51-16-71-26l-38-19v9c0 5 13 23 29 40l29 31h24c13 0 33-6 43-14zM953 983l5-48-6-6c-4-4-17-10-29-13l-22-7-6 38c-3 21-8 48-11 61l-4 22h67l6-47zm1249-7 18-48 7-75 6-75-21 6-21 7-58-11-58-10-48-30-48-30-5 14c-3 8-1 55 5 105l10 91 13 27 13 26 39 20c37 20 100 37 120 33 5-1 17-24 28-50zm-276-18c-4-35-8-88-10-118s-7-92-11-137l-7-82-16-6-15-6 7 118 7 118 16 17 16 18h-28l3 57 4 58 10 13c6 6 15 12 21 12h10l-7-62zm-776 38c0-2-9-6-20-9l-20-5v9c0 5 9 9 20 9s20-2 20-4zm643-19c3-8 8-40 12-71l8-58-29 4-29 3-3 59-3 59 13 8c18 12 25 11 31-4zm-609-64c4-38 9-91 12-119l6-51-17-7c-9-3-21-4-26 0l-9 5-1 37c-1 20-4 48-8 62l-7 25-18-73-19-73-25-10c-13-5-27-8-29-6s10 63 28 135l31 131 16 4c10 3 27 5 38 6l22 1 6-67zm175 48 14-9-29-111-29-111h-45v16c0 15 36 181 45 212 5 14 24 15 44 3zm311-31v-30h-9c-5 0-14 7-21 15l-12 15 6 15 5 15h31v-30zm-710-22c1-2 7-52 15-113l14-110-17-13c-9-7-21-11-27-9l-10 4-8 54c-4 30-11 80-16 112l-8 59 21 8c22 9 36 12 36 8zm706-26 11-7 17-115c9-63 16-122 16-130v-14l-14 14-15 15-16 95c-8 52-18 107-21 123l-6 27h9c4 0 13-4 19-8zm-851-68 7-56-7-51c-4-29-9-60-11-69l-5-18h-71l6 31c3 17 6 74 6 125v94h68l7-56zm955-12c0-22-3-73-6-115l-7-77h-25l5 103c5 113 8 127 23 127h10v-38zm50 15c0-8 7-58 15-113l15-98-10-10c-16-16-20-3-39 118l-17 116h36v-13zm-241-93c13-13-15-13-80-2l-73 14-3 11-4 11 78-15c43-8 80-17 82-19zm-375-35c3-17 6-49 6-70s4-40 8-43l9-5 12 57c21 99 26 105 58 84l12-8-26-97-26-97h-75l-5 14c-3 7-8 54-12 105l-8 91h41l6-31zm-114 6c0-2-12-55-26-115l-26-111-23-11-24-11-13 6-14 5-12 88-12 89 17 13c26 19 32 15 39-29l7-41 8 13c4 8 11 30 14 50l6 37 22 10c25 12 37 14 37 7zm1140-72c0-10-3-27-6-39l-6-21-24 5-24 4 6 27c9 37 13 41 35 41h19v-17zm-514-27 5-14 19 5 18 5-5-69c-3-37-9-72-14-77l-9-10-9 10c-8 8-31 122-31 152 0 17 19 15 26-2zm169-104-7-53-16 3-17 3-11 63-11 63 31 13 31 13 3-26c2-14 1-49-3-79zm-635-14c0-7-4-19-9-26l-8-14-24 4-24 3-3 23-3 22h71v-12zm270-38 35-8-45-1c-52-1-90 8-90 20v9l33-6c17-4 48-10 67-14zm546 521c-25-28-45-88-46-139v-43l18 5c9 2 46 8 81 11l64 7-6 55-6 54-18 32-19 32-25 3-25 3-18-20zm474-291c0-11 48-25 56-17 3 2-9 9-25 15l-31 11v-9zM390 659c0-8 79-24 86-17 2 3-16 9-41 15l-45 10v-8zm1910-119c0-6 6-10 13-10s52-16 100-35 92-35 99-34c16 1-49 30-141 63l-71 26v-10z"/></g><g fill="#88470e" transform="matrix(.1 0 0 -.1 0 300)"><path d="M1355 2679c-38-5-113-21-165-34l-95-25-111-55-112-54-78-60c-44-33-101-82-129-110l-50-52 75 5 75 5-55-9c-30-4-87-13-126-19-40-6-103-22-140-35-38-14-111-32-161-42l-93-17-1-11c-1-6 0-27 1-46l2-35 23-22 23-22 7-58c18-163 36-274 51-318l17-50 2-125 3-125 21-101c19-92 48-182 82-256l12-28 23 34 23 34 44 21c24 12 56 21 70 21 40 0 97-26 133-61l31-30 24-50 23-50-14-10c-8-5-25-9-37-9h-22l-6 21c-4 11-20 35-36 54l-30 34-28 6-29 6-36-15-36-15-18-31-17-30-45 5-45 5 20-9c11-5 30-10 43-10l22-1v-11c0-22 77-126 149-201l74-78h80l-6-28-6-29 62-40c90-59 197-110 297-143l89-29 104-15c58-9 135-16 173-16 73 0 218 20 294 39 49 13 217 76 238 90l13 8-21 36c-26 44-50 129-50 177v35l35 24c19 13 51 29 72 37l38 13 53 1h52v-38l-27-6c-16-3-63-8-105-12l-78-6v-25c0-14 7-52 16-85l15-60-16-12-15-11 54-2 54-2 18 20 17 19h53l42 36 42 36v128l23 1h22l-22 11-23 11v239l16-6c9-3 27-9 41-12l24-6-7-17c-17-42-24-94-23-191V675l49 52c27 29 68 83 91 119l43 66 33-5c41-7 43 1 4 14l-28 10-12 40c-7 22-21 49-32 60l-19 19h-38l-31-26-30-25-39 12-39 11-7 106c-3 58-6 120-6 137v33l24 4 24 5 6-51c3-28 6-89 6-136l1-85 19 37c11 20 32 46 46 57l27 21h74l20-23c11-12 29-39 40-60l19-38 27 83c15 46 35 115 43 153l15 70 9 170 8 170 11 36c6 20 18 88 26 150 17 139 29 180 59 216 13 15 26 38 30 49l7 22-16 15-15 16-57 12c-32 6-118 27-190 46-73 18-166 40-206 48l-74 14-109-9-109-9-64-20c-35-12-71-21-80-20-32 1 106 47 179 59l75 13 91-6c50-4 99-10 109-14l19-7-19 25c-31 40-141 134-203 176-81 53-213 116-308 146l-81 26-105 15-106 16-68-1c-38-1-100-6-139-10zm-625-419-25-8 90-2 90-1-18-8-18-7 18-16 18-15 44-6 44-5 8-14c5-7 9-23 9-35v-23h10c6 0 10-7 10-15 0-20 10-19 26 3l14 17 25-30c14-16 25-35 25-42 0-6 12-25 26-42l25-30 6-38c3-21 13-46 21-56l15-17 40-7 40-6-17-13-17-12-28 8c-15 4-41 15-57 23l-29 16 18 1h17v20h-22l-23 1-29 47c-17 26-29 50-28 54s-8 10-21 14c-12 4-24 9-27 13-3 3-29 21-58 39l-54 32-36-6c-21-3-65-8-99-11-35-3-63-8-63-11 0-4-25-20-56-37l-55-30-10 18c-6 9-17 17-24 17h-15v-36l-29-17-28-16-7 6-6 6 11 14 11 13-12 15-12 15h13c8 0 20 4 27 8l13 9-7 16-6 17h-30l-5-20c-3-11-9-20-14-20h-9v72l21-5 22-6-12 12c-6 6-11 15-11 19 0 10 65 43 118 59l43 12-12 8-13 7 40 7c53 9 64 13 34 14-14 0-50-6-80-14s-56-12-58-10c-11 11 118 43 173 43h40l-25-8zm1547 4c-3-3-12-4-19-1l-13 5 19 1c11 1 17-2 13-5zm-164-11c-7-2-21-2-30 0l-18 5h60l-12-5zm250 0c-7-2-21-2-30 0l-18 5h60l-12-5zm-1348-24 9-9h-15c-8 0-24 7-35 16l-19 15 25-7c14-3 29-10 35-15zm71 5 19-15-25 12c-31 14-36 19-24 19 6 0 19-7 30-16zm1179-5c37 1 128-21 160-39 18-10 43-20 56-22l24-3 17-34c9-19 23-38 30-42l13-8-12-20-13-20 9-6 10-5 6 20c7 23 23 26 31 5l6-14-9-27-9-27-22-2c-12-1-31-10-42-20l-20-18 2-26 3-26h-50l3 27 3 26-13 8-13 8 55 17c30 9 55 20 57 25s-6 24-18 43l-20 33-19-17-20-18 18-13c22-16 17-20-35-28l-42-6-51 45c-56 49-121 85-157 85h-23v9c0 6 5 13 10 16l10 6-6 10-5 9-10-5c-5-4-9-15-9-26v-19h-14c-8 0-21-3-30-6l-16-6v39l-22-3c-13-1-27-3-32-3l-8-1 6-16 6-17-47-43c-26-24-51-44-55-44-5 0-8-6-8-14 0-7-12-25-26-39l-26-26-21-3-22-3v-40l-20-4-19-3 13 16 13 16h-8c-5 0-1 5 8 10l17 10 25 56c14 31 26 67 26 80v24h12c6 0 9 3 5 6-7 7 17 34 29 34 4 0 15-7 25-16l18-16 16 15c8 9 15 25 15 36 0 25 13 33 59 38 19 2 47 10 61 18l25 14 35-5c19-3 44-5 55-5zm-1735-13c0-2-7-7-16-10l-15-6 6 10c6 10 25 14 25 6zm55-6c-11-5-24-9-30-9l-10-1 15 10c8 5 22 9 30 9h15l-20-9zm1374 6c-8-7-99-45-99-41 0 7 74 44 89 45 8 0 12-2 10-4zm-789-32c0-2-9 0-20 6s-20 13-20 16c0 2 9 0 20-6s20-13 20-16zm649 3c-19-12-55-37-78-56l-43-34-67 13-67 12-107-4-108-4 18 8c10 3 64 7 120 7l101 1 50-11 50-12 73 52c40 28 78 51 83 51 6 0-5-11-25-23zm929-46 4-13-21 7-21 6v-23l-15 12-15 12 6 10 6 9 26-3 25-3 5-14zm-2448-1c0-5-2-10-4-10-3 0-8 5-11 10l-6 10h10c6 0 11-4 11-10zm1006-29 39-9-31-1-32-1-19 18c-10 9-14 14-8 10 7-4 29-12 51-17zm212-58c-16-2-40-2-55 0l-28 4h110l-27-4zm673-20 41-27 19 12 19 12v-14c0-8 7-19 16-24l16-9 8-43 8-43-14-47-14-46-22-20c-13-11-42-26-65-34l-41-13-46 7-46 7-31 32c-38 38-59 84-59 132v35l20 12c11 7 20 19 20 26 0 16 39 51 58 52h12v-39l-32-30-32-29 12-41 12-40 34-20 33-21h62l36 31 35 31v51l-17 19c-20 23-33 23-33 1l-1-18-13 18c-17 22-33 22-73-3l-33-20v15c0 7 9 20 20 28l21 14-9 24c-5 13-7 30-5 37l5 12h19c11 0 38-12 60-27zm-1263-20c15-11 32-30 39-43 6-13 19-27 27-32l16-9v-90l-19-37-19-38-24-11c-12-6-37-16-55-23l-32-12-33 7c-74 16-130 72-142 145l-6 35 14 25c8 14 19 34 24 45 6 11 23 27 38 35 16 8 34 20 41 26l11 11 47-7 46-7 27-20zm590 20c-10-2-26-2-35 0l-18 5h70l-17-5zm-1083-13 6-10h-10c-6 0-11 5-11 10 0 6 2 10 4 10 3 0 8-4 11-10zm1924-85c0-5-6 1-14 15s-14 30-14 35c0 6 6-1 14-15s14-29 14-35zm-873 4c32-5 67-12 77-15l17-5-5-9-5-8-37 8c-21 4-55 11-75 14l-38 7v9c0 12-6 12 66-1zm1109-9 18-19-17-25-16-25 27-21 26-20-13-24-12-24 7-12 8-13-24-17-23-18 14-17 14-17-13-8-14-8 8-11 7-12 15 13 16 13-8-25c-16-51-96-169-121-177l-11-4-12 23-12 23 5-24 5-24-21-19c-12-10-27-18-35-18h-13l-1 18c-1 9-2 26-3 36l-1 19-13 5-14 4 4-18 3-18-22-25-23-24v-45l-44-11c-25-6-64-12-88-12l-43-2 21-4 22-4 5-20 5-19h-98v10c0 6 5 10 11 10h11l-5 14-6 15 12 4c7 2-13 7-43 11l-55 7-47 25c-50 25-68 25-20 0l27-15-35 5c-19 4-45 13-57 20l-23 14v31l10-6c18-11 11 1-12 21l-23 19 15-20 14-20-14 13c-8 7-15 17-15 22s-18 32-39 60l-39 51-22 62-23 63 14 24c7 14 13 33 14 43 0 9 4 17 9 17s18 3 28 7l18 6-19-21-19-22h31l6 15c3 8 11 15 17 15h11l-12-15-12-14 7-11c3-5 13-10 21-10h15l-7 11-7 11 14 9c22 14 29 11 29-11v-20h11c16 0 39-27 39-47v-18l10 15 9 15 18-11c10-6 18-17 19-25 0-8 2-18 2-22l2-8 17 9 17 10 35-22c20-13 43-23 51-24s22-2 30-4c28-4 115 13 145 29 17 9 50 37 73 62l44 46-11 17-11 17 10 6c6 3 10 14 10 23s9 28 19 42l19 24 13-27 12-27h27l-2 12-3 12 20 1h19l14 48c15 52 21 56 47 27zm-1535-71v-40l-13-32-14-32-41-37-41-37-43-11-43-12-44 6-44 6-31 20c-32 19-90 90-81 98 2 3 17-10 32-28l27-33 41-18 40-19h76l37 15c47 20 79 50 103 97l19 37v72l10-6 10-6v-40zm-630 12c0-16 4-42 10-56l10-26 11 6 10 7-3 16-3 17 23 13c14 6 26 12 28 12 11 0 2-30-17-53l-20-26 11-21 11-21 22 3 21 3 6 24c3 14 11 26 17 28l12 4 11-21 12-22-7-34-6-34h61l16-25c9-14 22-25 29-25s18-6 24-14l12-14-16-6c-8-3-15-10-15-16v-10h40v15c0 17 16 20 25 4l7-10 17 6c9 4 35 9 58 10l41 3 25 17 25 16 8-12 7-12 8 21 8 22 16-6 15-6 8 23 9 22 7-11c4-7 14-12 23-12h15l-5 20-5 20h18c11 0 22 5 26 11l7 11-13 8-12 8 11 6 11 7 13-8c6-4 24-8 40-8h27v12c0 6-3 13-7 16-5 2-2 2 6 0l14-4 7 12 7 11 27-17 27-18-5-41c-12-107-74-208-164-270-72-50-100-62-185-81l-78-17-62 7c-34 4-87 14-117 24l-55 17 4 44c4 58 6 60 50 60 47 0 54 7 31 30l-18 18-44-10-43-10-32 6-32 5-6-30c-4-16-11-29-16-29-17 0-57 53-87 115l-29 60-13 61-12 61 11 21c6 11 11 32 11 46v25l20 6c11 3 20 11 20 16s5 9 10 9h10v-29zm1383 14 6-14-37-11c-55-15-59-12-22 15 39 29 46 30 53 10zm44-1c-3-3-12-4-19-1l-13 5 19 1c11 1 17-2 13-5zm108-51c20-48 59-89 109-115l39-20 54 4 54 5 42 29 42 30 22 39 23 40v-16c0-8-13-36-29-61l-29-45-44-22-44-21h-120l-45 29-46 29-20 33c-21 34-40 99-29 99 3 0 13-17 21-37zm-442-303 57-11v-10c0-5-2-9-5-9-4 0-85 16-132 26-13 2-23 9-23 14v10l23-4c12-3 48-10 80-16zm1104-1 3-14-56-59-55-59-12 12-11 11 32 33 32 33v45l23 9c27 11 41 8 44-11zm-2074-22 17-6v-32l-16-6-15-6 5-13 5-14h-7c-5 0-16 6-26 13l-19 14 14 24c7 13 12 31 11 39l-3 15 8-11c4-6 16-13 26-17zm607-67c0-21-138-110-170-110h-11l7 23c3 12 11 24 16 25 5 2 34 21 65 42l56 37 19-4c10-3 18-9 18-13zm745-55 20-16-20 10c-11 5-29 17-40 26l-20 16 20-10c11-5 29-17 40-26zm-1312-42c-15-5-73 24-73 37v10l43-21 42-22-12-4zm889-253c29-6 63-13 76-16l23-5-6-8-5-9-37 8c-21 4-55 11-75 14l-38 7v9c0 12-2 12 62 0zm663-34 19-14-35-7c-19-4-51-16-71-26l-38-19v9c0 5 13 23 29 40l29 31h24c13 0 33-6 43-14zM953 983l5-48-6-6c-4-4-17-10-29-13l-22-7-6 38c-3 21-8 48-11 61l-4 22h67l6-47zm1249-7 18-48 7-75 6-75-21 6-21 7-58-11-58-10-48-30-48-30-5 14c-3 8-1 55 5 105l10 91 13 27 13 26 39 20c37 20 100 37 120 33 5-1 17-24 28-50zm-276-18c-4-35-8-88-10-118s-7-92-11-137l-7-82-16-6-15-6 7 118 7 118 16 17 16 18h-28l3 57 4 58 10 13c6 6 15 12 21 12h10l-7-62zm-776 38c0-2-9-6-20-9l-20-5v9c0 5 9 9 20 9s20-2 20-4zm643-19c3-8 8-40 12-71l8-58-29 4-29 3-3 59-3 59 13 8c18 12 25 11 31-4zm-609-64c4-38 9-91 12-119l6-51-17-7c-9-3-21-4-26 0l-9 5-1 37c-1 20-4 48-8 62l-7 25-18-73-19-73-25-10c-13-5-27-8-29-6s10 63 28 135l31 131 16 4c10 3 27 5 38 6l22 1 6-67zm175 48 14-9-29-111-29-111h-45v16c0 15 36 181 45 212 5 14 24 15 44 3zm311-31v-30h-9c-5 0-14 7-21 15l-12 15 6 15 5 15h31v-30zm-710-22c1-2 7-52 15-113l14-110-17-13c-9-7-21-11-27-9l-10 4-8 54c-4 30-11 80-16 112l-8 59 21 8c22 9 36 12 36 8zm706-26 11-7 17-115c9-63 16-122 16-130v-14l-14 14-15 15-16 95c-8 52-18 107-21 123l-6 27h9c4 0 13-4 19-8zm-851-68 7-56-7-51c-4-29-9-60-11-69l-5-18h-71l6 31c3 17 6 74 6 125v94h68l7-56zm955-12c0-22-3-73-6-115l-7-77h-25l5 103c5 113 8 127 23 127h10v-38zm50 15c0-8 7-58 15-113l15-98-10-10c-16-16-20-3-39 118l-17 116h36v-13zm-241-93c13-13-15-13-80-2l-73 14-3 11-4 11 78-15c43-8 80-17 82-19zm-375-35c3-17 6-49 6-70s4-40 8-43l9-5 12 57c21 99 26 105 58 84l12-8-26-97-26-97h-75l-5 14c-3 7-8 54-12 105l-8 91h41l6-31zm-114 6c0-2-12-55-26-115l-26-111-23-11-24-11-13 6-14 5-12 88-12 89 17 13c26 19 32 15 39-29l7-41 8 13c4 8 11 30 14 50l6 37 22 10c25 12 37 14 37 7zm1140-72c0-10-3-27-6-39l-6-21-24 5-24 4 6 27c9 37 13 41 35 41h19v-17zm-514-27 5-14 19 5 18 5-5-69c-3-37-9-72-14-77l-9-10-9 10c-8 8-31 122-31 152 0 17 19 15 26-2zm169-104-7-53-16 3-17 3-11 63-11 63 31 13 31 13 3-26c2-14 1-49-3-79zm-635-14c0-7-4-19-9-26l-8-14-24 4-24 3-3 23-3 22h71v-12zm270-38 35-8-45-1c-52-1-90 8-90 20v9l33-6c17-4 48-10 67-14zM930 2175v-17l11 4c6 2 11 8 11 13s-5 11-11 13l-11 4v-17zm-60-9c0-8 5-18 10-21l10-6v41h-10c-5 0-10-6-10-14zm180-110c0-15 18-31 26-23 7 7-7 37-17 37-5 0-9-6-9-14zm55-86c-8-13 3-30 20-30h13l-5 20c-6 22-18 26-28 10zm1080 240-6-10h15c9 0 16 5 16 10 0 6-4 10-9 10-6 0-13-4-16-10zm-130-21c-11-17 1-21 15-4l12 15h-10c-6 0-14-5-17-11zm55-5v-16l12 4c6 2 14 10 16 16l4 12h-32v-16zm180-15v-10l10 6c6 3 10 8 10 11 0 2-4 4-10 4-5 0-10-5-10-11zm-43-6c-4-3-7-11-7-17v-10l12 12c6 6 9 14 7 17-3 3-9 2-12-2zm93-23v-9l15 5c8 4 15 8 15 10s-7 4-15 4-15-4-15-10zm95 0-6-9 17-26c19-29 27-31 43-11l12 15-20 20c-23 23-37 26-46 11zm-473-32c-15-15-16-38-2-38 12 0 23 25 18 40l-3 11-13-13zm458-74v-16l12 4c6 2 14 10 16 16l4 12h-32v-16zm-516-25-6-11 10-10 10-10 11 21 12 21h-15c-8 0-18-5-22-11zm-1107-26c-9-17-23-33-32-36l-15-6v-60l30-35 31-35 28-6 28-6 24 10c13 5 34 19 47 31l23 22-3 36-3 37h-22l-23 1-14 19-15 20-21-22-21-23h-39v11c0 6 9 13 20 16 24 6 25 13 6 38l-14 19-15-31zm1748-173c-3-5-3-15 0-20l6-10 10 5c12 8 12 35 0 35-6 0-13-4-16-10zm-95-30c0-5 5-10 10-10 6 0 10 5 10 10 0 6-4 10-10 10-5 0-10-4-10-10zm72-51c2-6 8-10 13-10s11 4 13 10l4 11h-34l4-11zm-717-9-7-11 10-12c6-7 12-23 14-37l4-25 12 28 12 28-10 20c-12 21-25 25-35 9zm66-2c0-7 4-21 8-31l7-18 18 20 19 21h-16c-10 0-17 5-17 10 0 6-4 10-10 10-5 0-10-6-9-12zm29-64v-15l10 6c6 3 10 10 10 16 0 5-4 9-10 9-5 0-10-7-10-16zm570 6c0-5 5-10 10-10 6 0 10 5 10 10 0 6-4 10-10 10-5 0-10-4-10-10zm-599-16 1-19 5 13c3 7 2 16-1 19-3 4-6-2-5-13zm673 2-6-17 6-6 6-7 12 12 12 12-12 12-11 11-7-17zm-697-32c-4-4-7-14-7-23v-15l11 11c6 6 10 16 7 23l-3 11-8-7zm203-4c0-5 5-10 10-10 6 0 10 5 10 10 0 6-4 10-10 10-5 0-10-4-10-10zm250-4c0-9 5-16 10-16 6 0 10 4 10 9 0 6-4 13-10 16l-10 6v-15zm122-18c2-6 10-14 16-16l12-4v10c0 5-7 13-16 16l-16 6 4-12zm108 2c0-5 5-10 10-10 6 0 10 5 10 10 0 6-4 10-10 10-5 0-10-4-10-10zm-534-7c-11-11-6-23 9-23 8 0 15 4 15 9 0 13-16 22-24 14zm-99-10c-12-11-8-23 8-23h15v15c0 16-12 20-23 8zm338-2-5-10 10-6 10-6v15c0 18-6 21-15 7zm107-22c2-6 8-10 13-10s11 4 13 10l4 11h-34l4-11zm-292-29v-20h20v40h-20v-20zm270-15 12-15 9 6c5 3 9 9 9 15v9h-42l12-15zm-200-16v-10l10 6c6 3 10 8 10 11 0 2-4 4-10 4-5 0-10-5-10-11zm90-49v-20h13c8 0 17 3 20 7l7 6-11 14c-16 19-29 16-29-7zm-98-16c1-9 9-19 16-22l14-4-4 18c-1 9-9 19-16 22l-14 4 4-18zm168 2v-16h32l-4 12c-2 6-10 14-16 16l-12 4v-16zM377 1804c-8-8 1-24 14-24 5 0 9 7 9 15 0 15-12 20-23 9zm49-61c-11-11-6-23 9-23 8 0 15 4 15 9 0 13-16 22-24 14zm49-33-7-11 12-14 12-15h58v30l-26 10c-32 13-41 13-49 0zm625-20 11-20h14c8 0 15 4 15 8 0 13-23 32-37 32h-14l11-20zm63 3c9-9 19-14 23-11 10 10-6 28-24 28h-16l17-17zm-713-54v-10l10 6c6 3 10 8 10 11 0 2-4 4-10 4-5 0-10-5-10-11zm152 0c2-6 8-10 13-10s11 4 13 10l4 11h-34l4-11zm553 1c3-5 8-10 11-10 2 0 4 5 4 10 0 6-5 10-11 10h-10l6-10zm-95-13c0-2 7-20 15-38l14-34 1 16v17l22 6 23 5-10 10c-11 11-65 26-65 18zm-588-38c2-6 8-10 13-10s11 4 13 10l4 11h-34l4-11zm63 1-6-10h10c6 0 11 5 11 10 0 6-2 10-4 10-3 0-8-4-11-10zm57-7 3-18h30v30l-18 3-19 4 4-19zm402-7-7-17 11-11 11-11 7 17 7 17-11 11-11 11-7-17zm-94-15v-21h31l-3 17c-2 9-9 18-15 21l-13 4v-21zm-86-12-6-11 11-11 11-11 11 11 11 11-6 11c-4 6-11 11-16 11s-12-5-16-11zm-92-10c2-6 8-10 13-10s11 4 13 10l4 11h-34l4-11zm5-66-5-9 34-10 35-11-3 16-3 16-27 3-26 3-5-8zm269-2-6-10 9-5 10-6 5 9 6 10-9 5-10 6-5-9zm-366-11c0-5 5-10 10-10 6 0 10 5 10 10 0 6-4 10-10 10-5 0-10-4-10-10zm192 1-14-8 17-7c26-10 35-7 35 9v15h-12c-7 0-19-4-26-9zm38-26-12-15h42v15c0 8-4 15-9 15s-14-7-21-15zm100 5c0-5 5-10 11-10h10l-6 10c-3 6-8 10-11 10-2 0-4-4-4-10zm-235-30c-3-5-3-15 0-20l6-10 10 5c12 8 12 35 0 35-6 0-13-4-16-10zm75-26v-16l12 4c6 2 14 10 16 16l4 12h-32v-16zm1266-423c-25-28-45-88-46-139v-43l18 5c9 2 46 8 81 11l64 7-6 55-6 54-18 32-19 32-25 3-25 3-18-20zm474-291c0-11 48-25 56-17 3 2-9 9-25 15l-31 11v-9zM390 659c0-8 79-24 86-17 2 3-16 9-41 15l-45 10v-8zm1910-119c0-6 6-10 13-10s52-16 100-35 92-35 99-34c16 1-49 30-141 63l-71 26v-10z"/></g><g fill="#23303c" transform="matrix(.1 0 0 -.1 0 300)"><path d="M1355 2679c-38-5-113-21-165-34l-95-25-111-55-112-54-78-60c-44-33-99-80-124-106l-45-47 68 7 67 7 19-24 19-23-21-7-22-6 65-2 65-1-18-8-18-7 18-16 18-15 44-6 44-5 8-14c5-7 9-23 9-35v-23h10c6 0 10-7 10-15 0-20 10-19 26 3l14 17 25-30c14-16 25-35 25-42 0-6 12-25 26-42l25-30 6-38c3-21 13-46 21-56l15-17 40-7 40-6-17-13-17-12-28 8c-15 4-41 15-57 23l-29 16 18 1h17v20h-22l-23 1-29 47c-17 26-29 50-28 54s-8 10-21 14c-12 4-24 9-27 13-3 3-29 21-58 39l-54 32-36-6c-21-3-65-8-99-11-35-3-63-8-63-11 0-4-25-20-56-37l-55-30-10 18c-6 9-17 17-24 17h-15v-36l-30-17-30-18-1 8c-1 4-1 11 0 16 1 4-13 10-29 14l-31 6 4 11c2 6 12 12 23 12 10 1 26 2 34 3s21 5 28 9l13 9-7 16-6 17h-30l-5-20c-3-11-9-20-14-20h-9v72l21-5 22-6-12 12c-6 6-11 15-11 19 0 10 65 43 118 59l43 12-13 9c-7 4-20 8-28 8h-15l15-11 15-11-24 5-23 6-33-16-33-16-18 17-17 17-11-4c-6-3-19-8-28-12l-18-7v19l-103-20c-56-10-104-21-106-23-3-3-4-24-3-47l3-42 19-16c11-10 24-29 30-43 5-14 13-26 17-25 5 1 18 1 31 0l22-1v-50h10c6 0 10-4 10-9 0-11-44-61-54-61-3 0-6 18-6 39v40l-11 7-12 7 7-74c4-41 10-84 13-97l5-23 13 11 13 10 6-22c3-13 6-37 6-55v-31l-12-4-13-5 14-29 13-29 3-130 4-130 20-102c20-95 74-258 90-267 4-3 15 8 26 24s36 38 56 49l37 21h93l32-14 32-13 34-38c18-21 42-59 53-84l21-46 5-111 4-111-16-57-17-58 12-14c15-18 148-98 154-93 2 2-7 81-21 174-27 188-42 296-51 368l-6 48 33-3 33-3 8-15c4-8 15-82 24-165 26-238 27-246 34-240 5 6 52 200 83 343l11 52h56l15-16 16-15v-41c0-35 8-116 27-288l6-55 7 30c12 45 67 285 75 323l7 33 31-3 32-3-1-25c0-14-24-115-54-225-29-110-57-219-62-243l-10-43-36 3-36 3-18 174c-9 96-18 184-20 195l-4 21-49-197-49-198h-31l-30-1 38-20c21-11 78-33 127-49l89-29 104-15c232-35 433-6 670 96l48 21-16 17c-9 9-25 44-36 76l-21 59-6 111-5 111 12 68 12 68 25 48 24 49 30 15c40 21 54 19 89-10l30-26 20-55 21-55 6-98 7-98-74-7c-41-4-89-10-108-13l-34-6 6-53c3-29 13-68 22-87l16-35 20-5 19-5 23 19 24 18 13 46 13 45h58l-7-35-6-35h9c5 0 20 12 34 27l25 28-4 333-4 332h-173l-14 9-13 9 11 6 11 7-15 15-15 15-57 6-56 6 8-13 8-12-24 7c-32 10-68 30-99 54l-25 20 13 12c18 19 15 26-18 38l-30 10v16c0 9-11 38-25 65-26 52-27 70 0 23 8-16 31-46 51-68 40-43 36-36-18 37l-36 46-20 60-20 59 14 24c7 13 13 32 14 42 0 9 4 17 9 17s18 3 28 7l18 6-19-21-19-22h31l6 15c3 8 11 15 17 15h11l-12-15-12-14 7-11c3-5 13-10 21-10h15l-7 11-7 11 14 9c22 14 29 11 29-11v-20h11c16 0 39-27 39-47v-18l10 15 9 15 18-11c10-6 18-17 19-25 0-8 2-18 2-22l2-8 17 9 17 10 35-22c20-13 43-23 51-24s22-2 30-4c28-4 115 13 145 29 17 9 50 37 73 62l44 46-11 17-11 17 10 6c6 3 10 14 10 23s9 28 19 42l19 24 13-27 12-27h27l-3 12-2 12 20 1h19l14 48c15 52 21 56 47 27l18-19-17-25-16-25 27-21 26-20-13-24-12-24 7-12 8-13-24-17-23-18 14-17 14-17-13-8-14-8 8-11 7-12 14 12c8 6 14 9 14 5 0-15-32-81-47-98l-15-17 30 8 31 9 12-14 12-14-28-41c-16-22-42-51-58-65l-29-24h-38v32l-17-6-17-7 16 18 16 18-14 25-15 25 5-24 5-24-21-19c-12-10-27-18-35-18h-13l-1 18c-1 9-2 26-3 36l-1 19-13 5-14 4 4-18 3-18-22-25-23-24v-47l13-1c6 0 1-5-13-10l-25-10-23 6-24 6 7-11 6-10h-25c-27 0-41-14-31-30l6-10 17 8 17 9 48-5 47-4v-251l30 41c33 47 57 62 95 62 40 0 63-17 95-67l29-45 16 37c20 50 43 140 61 240l14 80v227l15 59c9 32 22 110 30 171 17 137 29 179 59 215 28 34 37 58 30 78l-6 14-31 10c-46 15-180 41-185 37-2-2 10-7 27-11s34-13 38-20c5-7 23-17 42-22l35-9 4-13 4-13-21 7-21 6v-22l-12 7-11 7 6-19 7-19-15 19c-8 11-15 24-15 28v9l-19-11c-28-14-29-14-44 23l-14 33-41 18c-23 10-39 22-37 26l4 7-98 22c-105 24-144 27-261 22l-75-3 24-7c14-4 26-12 28-18l4-11-58-7-58-7-42-19c-24-10-64-29-90-41l-48-22-59-60-59-61 19 33c10 18 38 54 62 79 23 25 40 48 38 50-6 6-50-22-104-66l-43-34-67 13-68 12-109-4-110-4 35 11 35 10-3 88-3 87h172l-3-89-3-89 57-12 57-13 66 48 66 47 52 19c29 10 45 19 37 19-30 2 107 48 180 60l75 13 91-6c50-4 99-10 109-14l19-7-19 25c-31 40-141 134-203 176-81 53-213 116-308 146l-81 26-105 15-106 16-68-1c-38-1-100-6-139-10zm971-403c27-8 74-21 105-30l57-16 12-15 12-15h-8c-5 0-33 9-62 20s-85 25-124 30c-78 11-83 13-73 29 8 14 23 14 81-3zm-1278-21c56-26 71-40 22-22l-29 11-7-7-7-7 13-15c15-18 12-19-31-1-19 7-42 16-52 19l-18 7 11 20 11 20h17c9 0 41-11 70-25zm1217-26c37 1 128-21 160-39 18-10 43-20 56-22l24-3 17-34c9-19 23-38 30-42l13-8-12-20-13-20 9-6 10-5 6 20c7 23 23 26 31 5l6-14-9-27-9-27-22-2c-12-1-31-10-42-20l-20-18 2-26 3-26h-50l3 27 3 26-13 8-13 8 55 17c30 9 55 20 57 25s-6 24-18 43l-20 33-19-17-20-18 18-13c22-16 17-20-35-28l-42-6-51 45c-56 49-121 85-157 85h-23v9c0 6 5 13 10 16l10 6-6 10-5 9-10-5c-5-4-9-15-9-26v-19h-14c-8 0-21-3-30-6l-16-6v39l-22-3c-13-1-27-3-32-3l-8-1 6-16 6-17-47-43c-26-24-51-44-55-44-5 0-8-6-8-14 0-7-12-25-26-39l-26-26-21-3-22-3v-40l-20-4-19-3 13 16 13 16h-8c-5 0-1 5 8 10l17 10 25 56c14 31 26 67 26 80v24h12c6 0 9 3 5 6-7 7 17 34 29 34 4 0 15-7 25-16l18-16 16 15c8 9 15 25 15 36 0 25 13 33 59 38 19 2 47 10 61 18l25 14 35-5c19-3 44-5 55-5zm-1095-45c0-2-9 0-20 6s-20 13-20 16c0 2 9 0 20-6s20-13 20-16zm-18-25 33-31-33 19c-19 10-38 24-44 31l-10 12h11c6 0 25-14 43-31zm-842-19-13-8 7-11 7-11h-29l2 18c1 20 16 33 29 25l9-5-12-8zm120 17c0-2-12-14-27-28l-26-24 8 15c14 25 27 40 36 40 5 0 9-1 9-3zm876-46 39-9-31-1-32-1-19 18c-10 9-14 14-8 10 7-4 29-12 51-17zm144-11c0-5-4-10-9-10-6 0-13 5-16 10l-6 10h15c9 0 16-4 16-10zm1215-10 7-11 33 7 34 6 10-6 10-7-15-33-16-32-33 10-34 11-4 15c-3 8-8 23-12 33l-7 17h10c6 0 14-5 17-10zm-1088-44 8-11-5-805-5-805-19-3c-10-2-48-1-83 3l-63 7v794c0 438-2 799-5 803-2 5 1 13 8 19l13 11 49 3c62 4 92-1 102-16zm614-13 41-27 19 12 19 12v-14c0-8 7-19 16-24l16-9 8-43 8-43-14-47-14-46-22-20c-13-11-39-25-59-32l-36-12-51 2-50 2-18 23c-9 13-23 23-30 23s-16 5-20 12l-7 11 10-6 11-7-19 37-19 37v76l20 12c11 7 20 19 20 26 0 16 39 51 58 52h12v-39l-32-30-32-29 12-41 12-40 34-20 33-21h62l36 31 35 31v51l-17 19c-20 23-33 23-33 1l-1-18-13 18c-17 22-33 22-73-3l-33-20v15c0 7 9 20 20 28l21 14-9 24c-5 13-7 30-5 37l5 12h19c11 0 38-12 60-27zm-1263-20c15-11 32-30 39-43 6-13 19-27 27-32l16-9v-90l-16-32c-19-38-52-66-77-67h-18l6-10 6-10-14 6-15 5-7-10-6-11h-50l5 9 6 9-33 7c-17 4-36 7-40 6l-8-1 6 10 6 10h-10c-17 0-59 71-66 110l-5 35 14 25c8 14 19 34 24 45 6 11 23 27 38 35 16 8 34 20 41 26l11 11 47-7 46-7 27-20zm1431-78c0-5-6 1-14 15s-14 30-14 35c0 6 6-1 14-15s14-29 14-35zm-665 9c3-9 6-20 6-25v-9h-30c-34 0-37 6-13 32 20 22 29 23 37 2zm-634-85v-40l-13-32-14-32-41-37-41-37-43-11-43-12-44 6-44 6-31 20c-32 19-90 90-81 98 2 3 17-10 32-28l27-33 41-18 40-19h76l37 15c47 20 79 50 103 97l19 37v72l10-6 10-6v-40zm-630 12c0-16 4-42 10-56l10-26 11 6 10 7-3 16-3 17 23 13c14 6 26 12 28 12 11 0 2-30-17-53l-20-26 11-21 11-21 22 3 21 3 6 24c3 14 11 26 17 28l12 4 11-21 12-22-7-34-6-34h61l16-25c9-14 22-25 29-25s18-6 24-14l12-14-16-6c-8-3-15-10-15-16v-10h40v15c0 17 16 20 25 4l7-10 17 6c9 4 35 9 58 10l41 3 25 17 25 16 8-12 7-12 8 21 8 22 16-6 15-6 8 23 9 22 7-11c4-7 14-12 23-12h15l-5 20-5 20h18c11 0 22 5 26 11l7 11-13 8-12 8 11 6 11 7 13-8c6-4 24-8 40-8h27v12c0 6-3 13-7 16-5 2-2 2 6 0l14-4 7 12 7 11 27-17 27-18-5-41c-8-71-42-147-93-209-29-35-29-44-1-53l22-7-41-36c-39-35-140-91-163-91h-12l7 30 7 30h-33l6-10 7-11-28 7-27 7 7-11 7-12-33 5-33 5 17-7 17-8-82 1c-45 1-93 2-107 3l-25 1 15 11 15 10-35-6-35-6 15 10 15 11h-12c-6 0-20 3-30 6l-18 6 15-11 15-11h-48l16-18c24-27 21-32-13-22-36 10-90 47-90 61v10l22-7 23-7-14 17-13 16h11c7 0 24-6 39-14l27-14 3 46c4 59 6 62 51 62 47 0 54 7 31 30l-18 18-44-10-43-10-32 6-32 5-6-30c-4-16-11-29-16-29-17 0-57 53-87 115l-29 60-13 61-12 61 11 21c6 11 11 32 11 46v25l20 6c11 3 20 11 20 16s5 9 10 9h10v-29zm1383 14 6-14-37-11c-55-15-59-12-22 15 39 29 46 30 53 10zm44-1c-3-3-12-4-19-1l-13 5 19 1c11 1 17-2 13-5zm108-51c20-48 59-89 109-115l39-20 54 4 54 5 42 29 42 30 22 39 23 40v-16c0-8-13-36-29-61l-29-45-44-22-44-21h-120l-45 29-46 29-20 33c-21 34-40 99-29 99 3 0 13-17 21-37zm737-80c-7-43-17-82-22-87l-10-10v31c0 17-4 33-9 35l-8 3 7 45c4 25 8 39 9 32l1-13 10 6c6 3 10 18 10 33v26l12-12 12-12-12-77zM389 1571c8-14 34-46 59-73l45-48h-11c-7 0-32 26-57 58l-45 57-21 55c-12 30-23 73-25 95l-4 40 23-80c13-44 29-91 36-104zm2261 109c0-11-4-20-9-20h-9l5 20c3 11 7 20 9 20s4-9 4-20zM553 1507l17-6v-32l-16-6-15-6 5-13 5-14h-7c-5 0-16 6-26 13l-19 14 14 24c7 13 12 31 11 39l-3 15 8-11c4-6 16-13 26-17zm267-207 25-8-48-1-48-1 6 10c7 11 29 11 65 0zm1120-287c0-5-5-53-10-108-16-154-40-428-40-447v-18h-48l-4 13c-3 6-16 83-29 169s-26 155-29 152-9-78-15-167l-10-162-22-3-21-3-6 18c-4 15-72 427-79 483l-2 15 22 3 21 3 6-28c3-15 15-91 26-167 10-76 21-140 23-143 5-4 17 188 17 266 0 31 3 66 6 79l6 22h24c13 0 24-3 24-7 0-5 12-80 25-168 14-88 25-166 25-174s2-12 4-10 9 67 15 144 14 164 17 193l5 52h25c13 0 24-3 24-7zm245 1197-6-10h15c9 0 16 5 16 10 0 6-4 10-9 10-6 0-13-4-16-10zm-130-21c-11-17 1-21 15-4l12 15h-10c-6 0-14-5-17-11zm55-5v-16l12 4c6 2 14 10 16 16l4 12h-32v-16zm180-15v-10l10 6c6 3 10 8 10 11 0 2-4 4-10 4-5 0-10-5-10-11zm-43-6c-4-3-7-11-7-17v-10l12 12c6 6 9 14 7 17-3 3-9 2-12-2zm93-23v-9l15 5c8 4 15 8 15 10s-7 4-15 4-15-4-15-10zm95 0-6-9 17-26c19-29 27-31 43-11l12 15-20 20c-23 23-37 26-46 11zm-473-32c-15-15-16-38-2-38 12 0 23 25 18 40l-3 11-13-13zm458-74v-16l12 4c6 2 14 10 16 16l4 12h-32v-16zm-516-25-6-11 10-10 10-10 11 21 12 21h-15c-8 0-18-5-22-11zm-1107-26c-9-17-23-33-32-36l-15-6v-60l30-35 31-35 28-6 28-6 24 10c13 5 34 19 47 31l23 22-3 36-3 37h-22l-23 1-14 19-15 20-21-22-21-23h-39v11c0 6 9 13 20 16 24 6 25 13 6 38l-14 19-15-31zm-420-179c-8-8 1-24 14-24 5 0 9 7 9 15 0 15-12 20-23 9zm49-61c-11-11-6-23 9-23 8 0 15 4 15 9 0 13-16 22-24 14zm49-33-7-11 12-14 12-15h58v30l-26 10c-32 13-41 13-49 0zm625-20 11-20h14c8 0 15 4 15 8 0 13-23 32-37 32h-14l11-20zm63 3c9-9 19-14 23-11 10 10-6 28-24 28h-16l17-17zm-713-54v-10l10 6c6 3 10 8 10 11 0 2-4 4-10 4-5 0-10-5-10-11zm152 0c2-6 8-10 13-10s11 4 13 10l4 11h-34l4-11zm553 1c3-5 8-10 11-10 2 0 4 5 4 10 0 6-5 10-11 10h-10l6-10zm-95-13c0-2 7-20 15-38l14-34 1 16v17l22 6 23 5-10 10c-11 11-65 26-65 18zm-588-38c2-6 8-10 13-10s11 4 13 10l4 11h-34l4-11zm63 1-6-10h10c6 0 11 5 11 10 0 6-2 10-4 10-3 0-8-4-11-10zm57-7 3-18h30v30l-18 3-19 4 4-19zm402-7-7-17 11-11 11-11 7 17 7 17-11 11-11 11-7-17zm-94-15v-21h31l-3 17c-2 9-9 18-15 21l-13 4v-21zm-86-12-6-11 11-11 11-11 11 11 11 11-6 11c-4 6-11 11-16 11s-12-5-16-11zm-92-10c2-6 8-10 13-10s11 4 13 10l4 11h-34l4-11zm5-66-5-9 34-10 35-11-3 16-3 16-27 3-26 3-5-8zm269-2-6-10 9-5 10-6 5 9 6 10-9 5-10 6-5-9zm-366-11c0-5 5-10 10-10 6 0 10 5 10 10 0 6-4 10-10 10-5 0-10-4-10-10zm192 1-14-8 17-7c26-10 35-7 35 9v15h-12c-7 0-19-4-26-9zm38-26-12-15h42v15c0 8-4 15-9 15s-14-7-21-15zm100 5c0-5 5-10 11-10h10l-6 10c-3 6-8 10-11 10-2 0-4-4-4-10zm-235-30c-3-5-3-15 0-20l6-10 10 5c12 8 12 35 0 35-6 0-13-4-16-10zm75-26v-16l12 4c6 2 14 10 16 16l4 12h-32v-16zm-72-31c6-2 18-2 25 0l12 5h-50l13-5zm1320 920c7-3 16-2 19 1 4 3-2 6-13 5l-19-1 13-5zm-58-13-15-10 10 1c6 0 19 4 30 9l20 9h-15c-8 0-22-4-30-9zm-1482-7c7-3 16-2 19 1 4 3-2 6-13 5l-19-1 13-5zm160-10c6-2 18-2 25 0l12 5h-50l13-5zm1280 0c7-3 16-2 19 1 4 3-2 6-13 5l-19-1 13-5zm597-13c11-5 27-9 35-9h15l-20 9c-11 5-27 9-35 9h-15l20-9zm-1615-55v-17l11 4c6 2 11 8 11 13s-5 11-11 13l-11 4v-17zm-60-9c0-8 5-18 10-21l10-6v41h-10c-5 0-10-6-10-14zm587-33c18-2 50-2 70 0l38 4h-140l32-4zm-407-77c0-15 18-31 26-23 7 7-7 37-17 37-5 0-9-6-9-14zm55-86c-8-13 3-30 20-30h13l-5 20c-6 22-18 26-28 10zm1440-160c-3-5-3-15 0-20l6-10 10 5c12 8 12 35 0 35-6 0-13-4-16-10zm-95-30c0-5 5-10 10-10 6 0 10 5 10 10 0 6-4 10-10 10-5 0-10-4-10-10zm72-51c2-6 8-10 13-10s11 4 13 10l4 11h-34l4-11zm-717-9-7-11 10-12c6-7 12-23 14-37l4-25 12 28 12 28-10 20c-12 21-25 25-35 9zm66-2c0-7 4-21 8-31l7-18 18 20 19 21h-16c-10 0-17 5-17 10 0 6-4 10-10 10-5 0-10-6-9-12zm29-64v-15l10 6c6 3 10 10 10 16 0 5-4 9-10 9-5 0-10-7-10-16zm570 6c0-5 5-10 10-10 6 0 10 5 10 10 0 6-4 10-10 10-5 0-10-4-10-10zm-599-16 1-19 5 13c3 7 2 16-1 19-3 4-6-2-5-13zm673 2-6-17 6-6 6-7 12 12 12 12-12 12-11 11-7-17zm-697-32c-4-4-7-14-7-23v-15l11 11c6 6 10 16 7 23l-3 11-8-7zm203-4c0-5 5-10 10-10 6 0 10 5 10 10 0 6-4 10-10 10-5 0-10-4-10-10zm250-4c0-9 5-16 10-16 6 0 10 4 10 9 0 6-4 13-10 16l-10 6v-15zm122-18c2-6 10-14 16-16l12-4v10c0 5-7 13-16 16l-16 6 4-12zm108 2c0-5 5-10 10-10 6 0 10 5 10 10 0 6-4 10-10 10-5 0-10-4-10-10zm-534-7c-11-11-6-23 9-23 8 0 15 4 15 9 0 13-16 22-24 14zm-99-10c-12-11-8-23 8-23h15v15c0 16-12 20-23 8zm338-2-5-10 10-6 10-6v15c0 18-6 21-15 7zm107-22c2-6 8-10 13-10s11 4 13 10l4 11h-34l4-11zm-292-29v-20h20v40h-20v-20zm270-15 12-15 9 6c5 3 9 9 9 15v9h-42l12-15zm-200-16v-10l10 6c6 3 10 8 10 11 0 2-4 4-10 4-5 0-10-5-10-11zm389-16-14-18 18 14c9 7 17 15 17 17 0 8-8 3-21-13zm-299-33v-20h13c8 0 17 3 20 7l7 6-11 14c-16 19-29 16-29-7zm-98-16c1-9 9-19 16-22l14-4-4 18c-1 9-9 19-16 22l-14 4 4-18zm168 2v-16h32l-4 12c-2 6-10 14-16 16l-12 4v-16zm-162-73c7-3 16-2 19 1 4 3-2 6-13 5l-19-1 13-5zm294-336c-29-31-48-89-56-172l-7-70 8-45 8-44 44 50c24 28 62 80 86 115l42 63-9 41c-5 22-16 50-24 63l-14 22h-57l-21-23zM546 968c-14-13-32-39-40-58l-14-35 36-55c21-30 71-90 112-133l74-79 9 29c5 15 10 73 10 128l2 100-24 48-23 48-29 14c-15 8-41 15-58 15h-30l-25-22zm1520-17c-21-23-36-75-36-123v-38h12c6 0 40 5 75 11l64 11-5 17c-2 9-7 34-11 56s-13 50-21 63l-14 22h-47l-17-19z"/></g><g fill="#0b1120" transform="matrix(.1 0 0 -.1 0 300)"><path d="m2135 2280-6-10 14-6c8-3 32-4 53-2l37 3 5 13 4 12h-101l-6-10zm-1300-20c17-4 47-10 68-13l37-6v8c0 10-61 21-105 20l-30-1 30-8zm1555 6c0-3 18-10 40-16l41-11 46-44 46-44-14-17-14-17 38-32 37-32v-61l18-4 19-5 6-39c4-22 7-60 7-86v-47l10-6 10-6v53l13-4 12-5 3-39 2-39-12-49-13-49-11-4-11-4 5 32 5 32-12-7-11-7v-58l-10-6c-6-4-17-22-25-42l-15-36 17-13c25-19 31-17 39 9 3 12 15 40 25 62 28 63 38 110 54 253l15 133 17 27c9 15 25 37 36 48l19 22-4 28-3 29-35 11c-19 6-52 14-72 17l-37 6 6-15 5-14h23c13 0 30-3 39-6l16-6v-34l-36-13-36-13-9 13c-5 8-9 18-9 23v8l-25-6-26-7-14 34-14 33-68 31c-67 31-133 50-133 39zm275-176 6-10 38 6 38 6 7-10 6-10-17-31-18-31-15 6c-8 3-21 7-29 8-14 3-40 43-41 64 0 14 16 16 25 2zm-1625 140c0-21 38-45 63-41 5 1 26-8 48-21l39-22v-18c0-9 14-37 30-60 17-24 34-58 40-77l9-33-19 17-19 18-41 7-40 7 7-26c9-39 22-61 37-61 7 0 21-10 32-21 10-12 28-25 40-29l20-8-8-79c-9-88-34-186-57-223-8-14-30-42-50-62l-35-38h11c6 0 18-3 26-6l15-5 57 83 58 83 24 65c35 92 53 164 53 215v44l-10 6c-5 3-10 17-10 31v24l26 10 25 10-5 9-6 9 16 13 17 14h125l36-37 36-37-4-40c-2-22-8-46-14-53l-10-13 9-50c5-28 20-84 34-125l25-75 48-69c26-38 53-71 60-74l12-4v19c0 10-15 49-34 88l-35 70-10 59c-6 33-11 76-11 97v37l24 6 24 6 17 36 17 36 37 15 37 15 13 20 13 21-19-8c-10-4-43-12-73-17l-55-10-12-16c-16-20-16-19 1 47l15 53 28 42c15 22 39 51 53 64l25 23-20-10c-11-5-44-28-74-50l-55-41h-22c-13 0-26 5-29 10l-6 10h-58l-6-10-6-10h-59v20h-60v-10c0-5-7-10-15-10h-15v22l-37-5c-21-3-49-8-63-12l-26-6-53 36c-61 42-134 85-173 103l-28 12v-10zm261-190 11-35-4-40-3-40-23 66c-12 36-29 75-37 85-22 30-18 35 15 16l30-17 11-35zm395-94c8-8 14-19 14-25v-11h-70v15c0 7 8 19 18 24 22 13 21 13 38-3zM305 2193c-38-8-80-16-92-19l-23-4v-86l25-22c14-12 25-28 25-36v-14l38-7 39-6-5-25-4-24h11c6 0 11-4 11-10 0-13-41-60-52-60h-8v33c0 17-5 39-11 47l-10 15 5-45c3-25 8-69 12-98l7-52 13 11 14 11 4-13c2-8 7-33 10-55l6-42-14-5-14-6 12-38c6-21 26-65 43-98l32-60 55-54 55-53 15 15 15 15-39 26c-21 14-50 40-64 58l-25 33-30 83-31 83 1 32v32l7-17 7-17v237l8 8 8 8 37-13c20-8 45-20 55-29l17-15v11c0 6-4 14-10 17-5 3-10 15-10 27v20l-20 5-20 5v19c0 10 4 20 8 23 5 3 9 19 10 35l1 29-16 6-16 6-15-12-16-13 23 33 23 33 15-5 14-6 24 16 24 16-13 13-13 13-44-1c-24-1-75-7-114-14zm22-50 5-13h-24l5-14 6-14-22 6c-12 3-26 11-30 19l-8 14-22-7-22-7 12 14 11 14h85l4-12zm2113-13c0-5 5-10 10-10 6 0 10-7 10-15 0-16 12-20 23-8l7 6-17 19c-18 20-33 24-33 8zm-303-16c-4-4-14-8-24-9s-31-5-48-10l-30-8-37-36-38-35v-29l-6 6-7 6-18-23c-11-13-19-29-19-35s-9-15-20-21-20-17-20-24v-13l-24-11c-14-6-29-20-35-31l-11-19 51-13 51-13 5-13 5-13 9 6 9 5v-31h39l15-21c20-29 75-62 111-66l30-3 13-18 13-17 7 11 7 10 35 2 35 3 3 9c2 6 10 10 18 10s14 5 14 10v10h43l18 21c10 12 26 39 36 60 9 22 20 39 25 39 4 0 8 10 8 23 0 12 7 34 14 49 8 15 12 27 8 27-4-1-13-1-19 0l-13 1v50h33l-44 41c-48 45-129 104-129 94 0-3-10 1-22 9l-22 16h-32c-17 0-34-3-37-6zm77-49c20-9 45-24 56-35l20-20v13c0 7-6 19-12 26l-13 13 23-11c12-7 36-31 53-54l31-42-6-62-5-62-16-38c-21-50-51-82-100-104l-40-19-55 1h-55l-45 23-45 23-41 54-42 54 10 6 11 7-7 11-7 11 6 30 7 30 8-5 8-5 12 37c16 48 34 69 89 105l45 28h74l36-15zm-310-211c9-24 7-28-9-14-17 14-20 30-6 30 5 0 12-7 15-16zm186 136c0-5 5-10 11-10h10l-6 10c-3 6-8 10-11 10-2 0-4-4-4-10zm-38-33-11-13 10-38 10-37 32-19c18-11 42-20 55-20h24l29 29 29 29v30c0 16-3 32-7 35l-6 7-13-17-12-18-21 25-20 25-1-11c0-7-8-14-17-17-10-2-26-8-35-12l-18-7v21c0 24-12 27-28 8zm276-83-8-41-29-40-29-40-41-17c-48-18-97-21-138-5l-28 10 11-11c6-6 29-16 50-20l39-9 36 9c20 6 51 20 70 33l34 23 23 42 23 42-3 32-3 33-7-41zm-363 225c-4-6-5-12-2-15 2-3 7 2 10 11 7 17 1 20-8 4zm-1136-23c-13-5-38-16-56-24l-32-14-27-36-28-37 47 43 47 42 17 1c10 1 36 1 58-1l40-2 42-26 41-26 28-48 28-48 7 11 7 11 5-8c2-5 8-23 11-41l7-31-12-41-12-41-47-44-47-44-39-11c-99-28-189 7-239 93l-25 43-6 59-6 60 17 35c9 19 31 49 49 68l31 33-25-7c-14-4-46-21-72-38l-48-30v-21c0-22-20-82-33-103l-8-13h36l18-31c9-17 17-35 17-40s8-17 18-28c9-10 28-32 42-50 14-17 29-31 34-31s17-7 27-16l18-16h23c46 0 104 8 116 16 7 4 16 5 21 2l9-6 25 20c14 11 30 20 35 20s12 7 16 15l5 15h31v39l15-5 15-6v31l20 6 20 6 11-7 12-7-7 11-7 12h20c19 0 51 24 51 39 0 7-53 41-65 41h-6l6-10 6-10h-35l16 16 16 16-14 17c-8 9-37 41-64 72l-49 55-48 25c-26 13-50 26-53 29-8 9-45 7-71-4zm-347-5c4-13 18-16 19-4 0 4-5 9-11 12l-12 4 4-12zm2008-21c0-5 7-10 15-10s15 5 15 10c0 6-7 10-15 10s-15-4-15-10zm26-29-6-10 9-5 10-6 5 9 6 10-9 5-10 6-5-9zm-601-12c-4-6-5-12-2-15 2-3 7 2 10 11 7 17 1 20-8 4zm543-16c7-3 16-2 19 1 4 3-2 6-13 5l-19-1 13-5zm78-28c-18-18-21-41-7-49l9-6 11 32c13 37 9 45-13 23zm-2016-4c0-15 16-22 34-15l16 6-6 9c-3 5-14 9-25 9h-19v-9zm590 0c0-6 5-13 10-16l10-6v15c0 9-4 16-10 16-5 0-10-4-10-9zm1486-10-6-10 9-5 10-6 5 9 6 10-9 5-10 6-5-9zm-1824-13c-7-7-12-22-12-34v-22l31-31 31-31h76l27 31 26 32-5 14c-4 8-6 20-6 26v11l-12-12-13-13-16 23-17 22-19-16c-10-8-28-19-41-23l-22-6-8 21-8 20-12-12zm-396-25c-11-11-6-23 9-23 8 0 15 4 15 9 0 13-16 22-24 14zm297-48v-40l4 23c2 12 2 30 0 40l-5 17 1-40zm1922-5c3-5 8-10 11-10 2 0 4 5 4 10 0 6-5 10-11 10h-10l6-10zm-885-40v-24l12 12 12 12-12 12-12 12v-24zm-1030-4c0-6 10-24 22-42l23-33 36-20c20-12 45-21 55-21l19 1-38 13c-45 16-73 39-98 81-11 17-19 26-19 21zm198-113c7-3 16-2 19 1 4 3-2 6-13 5l-19-1 13-5zm-368-13c0-5 5-10 10-10 6 0 10 5 10 10 0 6-4 10-10 10-5 0-10-4-10-10zm600-4c0-9 5-16 10-16 6 0 10 4 10 9 0 6-4 13-10 16l-10 6v-15zm-735-76c8-24 54-100 61-100 4 0-55 110-64 120-2 3-1-6 3-20zm230-30c3-5 8-10 11-10 2 0 4 5 4 10 0 6-5 10-11 10h-10l6-10zm5-60v-10h61l-6 10c-3 6-17 10-31 10h-24v-10zm-40-39v-29l-12-5-13-4 12-13 11-12 11 6 11 7v68l-10 6-10 6v-30zm1247-17c-11-11 3-24 25-24h20l-12 15c-13 16-23 19-33 9zm550-37-6-16 10-7c15-9 18-2 9 20l-7 20-6-17zm88-35c-17-9-65-28-108-43l-78-27 10-6 10-7 61 10 61 10 33 21c19 11 39 27 45 34l12 14-8 5c-4 3-22-2-38-11zm-1838-52 5-18 58-15 59-14 10 10 9 9 49-7c58-9 121-7 145 6l18 10v31l-16-6c-8-3-45-11-82-17l-67-10-60 7c-33 3-76 12-96 19l-37 13 5-18zm1371 8c6-6 32-19 56-29l45-17 5 14 5 14-18 10c-10 5-38 12-62 15l-43 5 12-12zm232-39v-10l10 6c6 3 10 8 10 11 0 2-4 4-10 4-5 0-10-5-10-11z"/></g></g></svg>