<?xml version="1.0" encoding="UTF-8"?>
<!DOCTYPE svg PUBLIC "-//W3C//DTD SVG 1.1//EN" "http://www.w3.org/Graphics/SVG/1.1/DTD/svg11.dtd">
<!-- Creator: CorelDRAW -->
<svg xmlns="http://www.w3.org/2000/svg" xml:space="preserve" width="698px" height="324px" version="1.1" style="shape-rendering:geometricPrecision; text-rendering:geometricPrecision; image-rendering:optimizeQuality; fill-rule:evenodd; clip-rule:evenodd"
viewBox="0 0 13.21 6.14"
 xmlns:xlink="http://www.w3.org/1999/xlink"
 xmlns:xodm="http://www.corel.com/coreldraw/odm/2003">
 <defs>
  <style type="text/css">
   <![CDATA[
    .fil0 {fill:white}
   ]]>
  </style>
 </defs>
 <g id="Layer_x0020_1">
  <metadata id="CorelCorpID_0Corel-Layer"/>
  <path class="fil0" d="M8.46 3.48l4.03 0c-0.02,-0.07 -0.67,-1.17 -0.74,-1.3l-1.2 -2.07c-0.04,-0.07 -0.02,-0.07 -0.08,-0.11 -0.08,0.15 -0.17,0.29 -0.25,0.44l-0.25 0.43c-0.42,0.69 -0.84,1.46 -1.26,2.17 -0.04,0.08 -0.08,0.14 -0.12,0.21 -0.04,0.08 -0.09,0.16 -0.13,0.23z"/>
  <path class="fil0" d="M4.45 4.41c0,-0.03 0,-0.13 0,-0.15 -0.02,-0.09 -0.02,-0.04 -0.08,-0.04l-0.32 0c-0.05,0 -0.08,-0.04 -0.08,0.04l0 1.83 0.48 0 0 -1.24c0,-0.1 0.28,-0.25 0.41,-0.25 0.15,0 0.36,0.01 0.36,0.28l0 1.21 0.48 0 0 -1.24c0,-0.09 0.23,-0.25 0.43,-0.25 0.18,0 0.34,0.05 0.34,0.3l0 1.19 0.48 0 0 -1.28c0,-0.2 -0.08,-0.37 -0.18,-0.47 -0.05,-0.04 -0.13,-0.1 -0.2,-0.12 -0.45,-0.17 -0.71,0.07 -0.95,0.23 -0.03,-0.02 -0.34,-0.47 -0.91,-0.21 -0.16,0.07 -0.14,0.09 -0.26,0.17z"/>
  <path class="fil0" d="M7.68 4.39zm0 0zm0 0c0,-0.19 0.04,-0.18 -0.11,-0.17 -0.45,0.03 -0.36,-0.22 -0.36,0.57 0,0.43 0,0.87 0,1.3l0.47 0 0 -1.3c0.14,-0.07 0.22,-0.19 0.42,-0.19 0.24,-0.01 0.32,0.06 0.35,0.27 0.05,0.27 0.01,0.91 0.01,1.22l0.47 0 0 -1.15c0,-0.12 -0.01,-0.14 0.06,-0.19 0.06,-0.05 0.23,-0.14 0.32,-0.15 0.39,-0.03 0.4,0.2 0.4,0.55 0,0.31 0,0.63 0,0.94l0.47 0c0,-0.29 0,-0.59 0,-0.89 0,-0.32 0.02,-0.56 -0.11,-0.77 -0.24,-0.36 -0.77,-0.32 -1.11,-0.07 -0.05,0.04 -0.08,0.07 -0.14,0.09 -0.04,-0.16 -0.33,-0.28 -0.53,-0.29 -0.28,-0.01 -0.48,0.16 -0.61,0.23z"/>
  <path class="fil0" d="M0.64 3.48l0.48 0 0.29 -0.84c0.03,-0.08 0.08,-0.23 0.09,-0.31 0.05,0.04 0.19,0.49 0.21,0.56 0.03,0.08 0.2,0.52 0.2,0.59l0.47 0c0.02,-0.08 0.05,-0.15 0.08,-0.22 0.12,-0.29 0.3,-0.87 0.4,-1.19 0.06,-0.16 0.13,-0.31 0.17,-0.48l-0.47 0 -0.42 1.26c0,0 0,0 0,0.01l-0.33 -0.94c-0.02,-0.06 -0.1,-0.28 -0.11,-0.33l-0.36 0c0,0.1 -0.07,0.22 -0.1,0.31l-0.33 0.96 -0.31 -0.95c-0.03,-0.1 -0.06,-0.22 -0.11,-0.32l-0.49 0c0.06,0.27 0.57,1.59 0.64,1.89z"/>
  <path class="fil0" d="M6.06 3.12c-0.18,0 -0.3,-0.02 -0.44,-0.09l0 -0.95c0.2,-0.05 0.06,-0.11 0.47,-0.11 0.25,0 0.46,0.25 0.46,0.51 0,0.35 -0.17,0.64 -0.49,0.64zm-0.91 -2.51l0 2.87c0.26,0 0.27,-0.1 0.49,-0.02 0.7,0.23 1.38,-0.22 1.38,-0.87l0 -0.17c0,-0.59 -0.61,-1.01 -1.18,-0.82 -0.09,0.03 -0.14,0.07 -0.22,0.08l0 -1.13c-0.27,0 -0.47,-0.04 -0.47,0.06z"/>
  <path class="fil0" d="M7.02 3.48l1.19 0 0.4 -0.68c0.07,-0.12 0.12,-0.23 0.19,-0.34 0.06,-0.09 0.14,-0.26 0.21,-0.34 -0.09,-0.17 -0.57,-0.95 -0.59,-1.04 -0.07,0.05 -1.1,1.86 -1.22,2.09 -0.05,0.08 -0.16,0.23 -0.18,0.31z"/>
  <path class="fil0" d="M3.99 1.93c0.11,0 0.24,0.06 0.3,0.12 0.08,0.07 0.14,0.14 0.14,0.28l-0.91 0c0.05,-0.23 0.23,-0.4 0.47,-0.4zm-0.96 0.61c0,0.55 0.44,0.98 0.98,0.98 0.34,0 0.48,-0.02 0.76,-0.17l0 -0.44c-0.52,0.35 -1.21,0.26 -1.25,-0.24l1.34 0c0.12,-0.51 -0.18,-1.12 -0.9,-1.12 -0.37,0 -0.71,0.25 -0.85,0.58 -0.04,0.11 -0.08,0.26 -0.08,0.41z"/>
  <path class="fil0" d="M1.91 4.26l0 1.21c0,0.37 0.24,0.66 0.59,0.66 0.57,0 0.49,-0.17 0.7,-0.22l0 0.18 0.45 0 0 -1.87 -0.39 0c-0.08,0 -0.08,-0.09 -0.08,0.23l0 1.06c-0.21,0.14 -0.22,0.21 -0.53,0.21 -0.32,0 -0.27,-0.48 -0.27,-0.67l0 -0.81c-0.03,-0.08 -0.01,-0.02 -0.07,-0.02l-0.32 0c-0.05,0 -0.08,-0.04 -0.08,0.04z"/>
  <path class="fil0" d="M1.19 5.53c0,0.39 -0.73,0.18 -0.93,0.08 -0.17,-0.09 -0.15,-0.12 -0.15,0.3 0,0.11 0.09,0.12 0.25,0.16 0.31,0.09 0.81,0.11 1.08,-0.09 0.28,-0.2 0.41,-0.8 -0.22,-0.98 -0.32,-0.09 -0.67,-0.06 -0.67,-0.27 0,-0.31 0.69,-0.12 0.86,-0.05 0.07,0.02 0.11,0.06 0.16,0.07l0 -0.43c-0.15,-0.04 -0.31,-0.16 -0.7,-0.16 -0.52,0 -0.94,0.33 -0.77,0.8 0.16,0.48 1.09,0.31 1.09,0.57z"/>
  <path class="fil0" d="M11.51 4.16c0,0.07 0,0.04 -0.06,0.06 -0.33,0.07 -0.28,-0.23 -0.28,0.4l0.34 0 0 0.91c0,0.33 0.23,0.6 0.51,0.6 0.44,0 0.23,-0.01 0.49,-0.07l0 -0.4c-0.12,0.01 -0.22,0.1 -0.36,0.06 -0.13,-0.04 -0.17,-0.13 -0.17,-0.29l0 -0.81 0.53 0c0,-0.51 0.02,-0.4 -0.08,-0.4 -0.08,0 -0.4,-0.02 -0.45,0 0,-0.62 0.11,-0.51 -0.47,-0.51l0 0.45z"/>
  <path class="fil0" d="M10.49 4.26l0 1.83 0.47 0 0 -1.83c0,-0.08 -0.03,-0.04 -0.08,-0.04l-0.32 0c-0.05,0 -0.07,-0.04 -0.07,0.04z"/>
  <path class="fil0" d="M12.76 5.89c0,-0.28 0.39,-0.28 0.39,0 0,0.25 -0.39,0.25 -0.39,0zm-0.06 0c0,0.3 0.51,0.33 0.51,0 0,-0.35 -0.51,-0.35 -0.51,0z"/>
  <path class="fil0" d="M12.93 5.87l0 -0.08c0.08,0.01 0.03,-0.02 0.07,0.04 -0.04,0.06 0.02,0.03 -0.07,0.04zm-0.08 -0.08c0,0.23 -0.02,0.22 0.08,0.23l0.03 -0.1c0.04,0.12 0.07,0.1 0.12,0.1 -0.03,-0.04 -0.04,-0.05 -0.06,-0.1 0.05,-0.06 0.04,-0.02 0.04,-0.15 -0.06,-0.03 -0.21,-0.08 -0.21,0.02z"/>
 </g>
</svg>
