<?xml version="1.0" encoding="utf-8"?>
<!-- Generator: Adobe Illustrator 26.0.3, SVG Export Plug-In . SVG Version: 6.00 Build 0)  -->
<svg version="1.0" id="katman_1" xmlns="http://www.w3.org/2000/svg" xmlns:xlink="http://www.w3.org/1999/xlink" x="0px" y="0px"
	 viewBox="0 0 600 450" style="enable-background:new 0 0 600 450;" xml:space="preserve">
<style type="text/css">
	.st0{fill:#404041;}
	.st1{fill:#0A57A4;}
	.st2{fill:#2F348B;}
</style>
<g>
	<path class="st0" d="M115.8,198.7c14.3,0,25,7.9,28.4,20.9h-16c-2.5-5.2-7.1-7.7-12.6-7.7c-9,0-15.2,6.6-15.2,17.3
		c0,10.7,6.2,17.3,15.2,17.3c5.5,0,10.1-2.6,12.6-7.7h16c-3.5,13-14.1,20.9-28.4,20.9c-17.8-0.1-30.2-12.7-30.2-30.8
		S98,198.7,115.8,198.7z"/>
	<path class="st0" d="M173.4,260c-14,0-24.5-9.4-24.5-24.5c0-15.2,10.8-24.5,24.8-24.5c14,0,24.8,9.4,24.8,24.5
		C198.5,250.6,187.4,260,173.4,260z M173.4,247.3c5.2,0,10.1-3.9,10.1-11.8c0-8.1-4.8-11.8-10-11.8c-5.3,0-10,3.8-10,11.8
		C163.7,243.4,168,247.3,173.4,247.3z"/>
	<path class="st0" d="M227.5,260c-14,0-24.5-9.4-24.5-24.5c0-15.2,10.8-24.5,24.8-24.5c14,0,24.8,9.4,24.8,24.5
		C252.6,250.6,241.5,260,227.5,260z M227.5,247.3c5.2,0,10.1-3.9,10.1-11.8c0-8.1-4.8-11.8-10-11.8c-5.3,0-10,3.8-10,11.8
		C217.7,243.4,222.2,247.3,227.5,247.3z"/>
	<path class="st0" d="M257.8,198.7h14.6V231l14.4-19.3h18l-19.8,23.8l20.1,23.8h-18l-14.6-20.1v20.1H258v-60.6H257.8z"/>
	<path class="st0" d="M308.4,198.8c0-4.5,3.5-7.9,8.7-7.9c5.2,0,8.7,3.5,8.7,7.9c0,4.3-3.5,7.8-8.7,7.8S308.4,203.1,308.4,198.8z
		 M309.8,211.5h14.6v47.6h-14.6V211.5z"/>
	<path class="st0" d="M353.9,260c-14,0-24.1-9.4-24.1-24.5c0-15.2,10-24.5,24.1-24.5c13.9,0,23.8,9.2,23.8,23.8
		c0,1.3-0.1,2.9-0.3,4.3h-33.1c0.6,6.2,4.3,9.1,9.1,9.1c4,0,6.4-2,7.7-4.6h15.6C374.2,252.8,365.8,260,353.9,260z M344.5,230.9h18.3
		c0-5.2-4-8.2-9-8.2C348.9,222.6,345.3,225.5,344.5,230.9z"/>
	<path class="st0" d="M445.1,260c-14,0-24.1-9.4-24.1-24.5c0-15.2,10-24.5,24.1-24.5c13.9,0,23.8,9.2,23.8,23.8
		c0,1.3-0.1,2.9-0.3,4.3h-33.1c0.6,6.2,4.3,9.1,9.1,9.1c4,0,6.4-2,7.7-4.6h15.6C465.5,252.8,456.9,260,445.1,260z M435.6,230.9h18.3
		c0-5.2-4-8.2-9-8.2C440.2,222.6,436.4,225.5,435.6,230.9z"/>
	<path class="st0" d="M495.4,260c-12.7,0-21.2-7.1-21.9-16.3h14.4c0.3,3.3,3.3,5.5,7.4,5.5c3.8,0,5.8-1.7,5.8-3.9
		c0-7.7-26-2.2-26-19.6c0-8.1,6.9-14.7,19.3-14.7c12.3,0,19.2,6.8,20.1,16.2h-13.6c-0.4-3.2-2.9-5.3-7.1-5.3c-3.5,0-5.3,1.3-5.3,3.6
		c0,7.7,25.8,2.2,26.1,20.1C514.7,253.7,507.3,260,495.4,260z"/>
	<g>
		<g>
			<path class="st1" d="M392.8,212.4h-15.2l13.9,25.7h15.2L392.8,212.4z"/>
		</g>
		<g>
			<g>
				<path class="st2" d="M391.3,237.4l0.4,0.7h15.2l-10-18L391.3,237.4z"/>
			</g>
		</g>
		<g>
			<path class="st1" d="M419,190.7l-27.3,47.4h15.2l27.3-47.4H419z"/>
		</g>
		<g>
			<path class="st1" d="M391.7,245.2h14.7V260h-14.7V245.2z"/>
		</g>
	</g>
</g>
</svg>
