<?xml version="1.0" encoding="UTF-8"?>
<!DOCTYPE svg PUBLIC "-//W3C//DTD SVG 1.1//EN" "http://www.w3.org/Graphics/SVG/1.1/DTD/svg11.dtd">
<!-- Creator: CorelDRAW -->
<svg xmlns="http://www.w3.org/2000/svg" xml:space="preserve" width="1356px" height="403px" version="1.1" style="shape-rendering:geometricPrecision; text-rendering:geometricPrecision; image-rendering:optimizeQuality; fill-rule:evenodd; clip-rule:evenodd"
viewBox="0 0 31.57 9.38"
 xmlns:xlink="http://www.w3.org/1999/xlink"
 xmlns:xodm="http://www.corel.com/coreldraw/odm/2003">
 <defs>
  <style type="text/css">
   <![CDATA[
    .fil0 {fill:black;fill-rule:nonzero}
   ]]>
  </style>
 </defs>
 <g id="Layer_x0020_1">
  <metadata id="CorelCorpID_0Corel-Layer"/>
  <path class="fil0" d="M9.38 6.89c-0.11,0 -0.22,0.04 -0.29,0.07 -0.11,0.07 -0.18,0.14 -0.22,0.22l-0.04 0 0 -0.9 -0.35 0 0 2.38 0.32 0 0 -0.29 0.04 0c0.04,0.11 0.11,0.18 0.22,0.22 0.11,0.07 0.18,0.07 0.29,0.07 0.43,0 0.75,-0.36 0.75,-0.94 -0.01,-0.46 -0.29,-0.83 -0.72,-0.83zm-0.08 1.55c-0.29,0 -0.47,-0.25 -0.47,-0.62 0,-0.36 0.14,-0.61 0.47,-0.61 0.33,0 0.47,0.24 0.47,0.61 0,0.37 -0.18,0.62 -0.47,0.62zm1.77 -0.15l-0.47 -1.36 -0.36 0 0.65 1.79 -0.04 0.11c-0.07,0.25 -0.22,0.25 -0.4,0.22l-0.07 0.29c0.07,0.04 0.14,0.04 0.25,0.04 0.29,0 0.47,-0.14 0.58,-0.43l0.71 -2.01 -0.36 0c0,-0.01 -0.49,1.35 -0.49,1.35zm3.37 -0.43c0,0.33 -0.22,0.54 -0.57,0.54 -0.36,0 -0.58,-0.22 -0.58,-0.54l0 -1.55 -0.36 0 0 1.55c0,0.51 0.4,0.86 0.94,0.86 0.53,0 0.93,-0.35 0.93,-0.86l0 -1.55 -0.36 0 0 1.55zm1.65 -0.14l-0.29 -0.07c-0.18,-0.04 -0.29,-0.11 -0.29,-0.22 0,-0.13 0.14,-0.21 0.36,-0.21 0.07,0 0.14,0 0.22,0.07 0.07,0.04 0.11,0.1 0.14,0.17l0.33 -0.07c-0.07,-0.28 -0.29,-0.46 -0.69,-0.46 -0.4,0 -0.68,0.22 -0.68,0.53 0,0.25 0.14,0.43 0.5,0.51l0.29 0.07c0.18,0.04 0.25,0.11 0.25,0.22 0,0.14 -0.14,0.25 -0.4,0.25 -0.22,0 -0.33,-0.07 -0.4,-0.25l-0.32 0.04c0.07,0.33 0.32,0.5 0.71,0.5 0.43,0 0.72,-0.21 0.72,-0.53 0.06,-0.34 -0.12,-0.48 -0.45,-0.55zm1.55 -0.83c-0.51,0 -0.83,0.36 -0.83,0.93 0,0.54 0.33,0.89 0.87,0.89 0.4,0 0.64,-0.17 0.75,-0.46l-0.33 -0.07c-0.03,0.07 -0.06,0.14 -0.17,0.18 -0.07,0.04 -0.14,0.07 -0.25,0.07 -0.29,0 -0.51,-0.18 -0.51,-0.54l1.26 0 0 -0.11c-0.01,-0.63 -0.4,-0.89 -0.79,-0.89zm-0.51 0.75c0,-0.14 0.04,-0.25 0.14,-0.32 0.07,-0.07 0.22,-0.14 0.33,-0.14 0.25,0 0.43,0.21 0.43,0.46l-0.9 0zm2.12 -0.67c-0.07,0.07 -0.14,0.14 -0.18,0.22l0 -0.29 -0.33 0 0 1.76 0.36 0 0 -1.09c0,-0.07 0,-0.11 0.04,-0.14 0.04,-0.04 0.04,-0.1 0.11,-0.13 0.04,-0.04 0.07,-0.07 0.14,-0.07 0.03,-0.04 0.1,-0.04 0.13,-0.04 0.07,0 0.11,0 0.18,0.04l0 -0.33 -0.14 0c-0.13,-0.01 -0.23,0.03 -0.31,0.07zm1.33 0.21c0.11,0 0.18,0.04 0.24,0.07 0.07,0.07 0.11,0.13 0.14,0.21l0.33 0c-0.04,-0.35 -0.33,-0.61 -0.71,-0.61 -0.51,0 -0.83,0.36 -0.83,0.93 0,0.54 0.33,0.93 0.83,0.93 0.42,0 0.68,-0.24 0.71,-0.61l-0.33 0c0,0.07 -0.07,0.18 -0.14,0.22 -0.06,0.07 -0.17,0.07 -0.24,0.07 -0.29,0 -0.47,-0.25 -0.47,-0.65 -0.03,-0.31 0.18,-0.56 0.47,-0.56zm1.76 -0.29c-0.5,0 -0.82,0.36 -0.82,0.93 0,0.54 0.33,0.89 0.86,0.89 0.4,0 0.65,-0.17 0.76,-0.46l-0.33 -0.07c-0.04,0.07 -0.07,0.14 -0.18,0.18 -0.07,0.04 -0.14,0.07 -0.25,0.07 -0.28,0 -0.5,-0.18 -0.5,-0.54l1.26 0 0 -0.11c-0.01,-0.63 -0.41,-0.89 -0.8,-0.89l0 0zm-0.5 0.75c0,-0.14 0.04,-0.25 0.14,-0.32 0.07,-0.07 0.21,-0.14 0.32,-0.14 0.25,0 0.43,0.21 0.43,0.46l-0.89 0 0 0zm2.48 -0.75c-0.11,0 -0.22,0 -0.33,0.07 -0.11,0.07 -0.18,0.14 -0.22,0.25l-0.04 0 0 -0.29 -0.32 0 0 1.76 0.35 0 0 -1.05c0,-0.28 0.18,-0.42 0.43,-0.42 0.25,0 0.4,0.14 0.4,0.39l0 1.11 0.35 0 0 -1.15c-0.06,-0.41 -0.26,-0.67 -0.62,-0.67zm1.65 1.51c-0.11,0 -0.22,-0.04 -0.22,-0.25l0 -0.93 0.36 0 0 -0.29 -0.36 0 0 -0.43 -0.36 0 0 0.43 -0.25 0 0 0.29 0.25 0 0 1.04c0,0.33 0.25,0.46 0.51,0.46 0.07,0 0.14,0 0.22,-0.03l-0.07 -0.29 -0.08 0zm0.97 -1.43c-0.07,0.07 -0.14,0.14 -0.18,0.22l0 -0.29 -0.33 0 0 1.76 0.36 0 0 -1.09c0,-0.07 0,-0.11 0.04,-0.14 0.04,-0.04 0.04,-0.1 0.11,-0.13 0.04,-0.04 0.07,-0.07 0.14,-0.07 0.04,-0.04 0.11,-0.04 0.14,-0.04 0.07,0 0.11,0 0.18,0.04l0 -0.33 -0.14 0c-0.14,-0.01 -0.25,0.03 -0.32,0.07l0 0zm0.64 -0.04l0.36 0 0 1.76 -0.36 0 0 -1.76zm0.22 -0.72c-0.04,0 -0.07,0 -0.14,0.04 -0.04,0.04 -0.07,0.04 -0.11,0.07 -0.04,0.04 -0.04,0.07 -0.04,0.11 0,0.07 0.04,0.11 0.07,0.14 0.04,0.04 0.11,0.07 0.14,0.07 0.04,0 0.07,0 0.11,-0.04 0.04,-0.04 0.07,-0.07 0.07,-0.11 0,-0.04 0.04,-0.07 0,-0.14 0,-0.04 -0.04,-0.07 -0.07,-0.11 0.04,0 0,-0.03 -0.03,-0.03l0 0zm1.25 0.97c0.11,0 0.18,0.04 0.25,0.07 0.07,0.07 0.11,0.13 0.14,0.21l0.33 0c-0.04,-0.35 -0.33,-0.61 -0.72,-0.61 -0.5,0 -0.82,0.36 -0.82,0.93 0,0.54 0.33,0.93 0.82,0.93 0.43,0 0.69,-0.24 0.72,-0.61l-0.33 0c0,0.07 -0.07,0.18 -0.14,0.22 -0.07,0.07 -0.18,0.07 -0.25,0.07 -0.28,0 -0.46,-0.25 -0.46,-0.65 0,-0.31 0.18,-0.56 0.46,-0.56zm1.91 0.54l-0.29 -0.07c-0.22,-0.04 -0.29,-0.11 -0.29,-0.22 0,-0.13 0.14,-0.21 0.36,-0.21 0.07,0 0.14,0 0.22,0.07 0.07,0.04 0.11,0.1 0.14,0.17l0.33 -0.07c-0.07,-0.28 -0.29,-0.46 -0.69,-0.46 -0.4,0 -0.68,0.22 -0.68,0.53 0,0.25 0.13,0.43 0.5,0.51l0.29 0.07c0.18,0.04 0.25,0.11 0.25,0.22 0,0.14 -0.14,0.25 -0.4,0.25 -0.22,0 -0.33,-0.07 -0.4,-0.25l-0.32 0.04c0.07,0.33 0.32,0.5 0.71,0.5 0.43,0 0.72,-0.21 0.72,-0.53 0.06,-0.34 -0.12,-0.48 -0.45,-0.55l0 0zm-14.91 -2.55l-1.5 -1.97 1.44 -1.65 -1.15 0 -1.37 1.65 0 -3.02 -0.97 0 0 5.03 0.97 0 0 -0.93 0.43 -0.47 0.93 1.4 1.22 0 0 -0.04zm0.22 -4.17c0.04,0.04 0.11,0.11 0.18,0.11 0.07,0.04 0.14,0.04 0.22,0.04 0.13,0 0.28,-0.07 0.39,-0.18 0.11,-0.11 0.18,-0.25 0.18,-0.39 0,-0.15 -0.07,-0.29 -0.18,-0.4 -0.11,-0.11 -0.25,-0.18 -0.39,-0.18 -0.07,0 -0.14,0 -0.22,0.04 -0.08,0.04 -0.14,0.07 -0.18,0.11 -0.04,0.04 -0.11,0.11 -0.14,0.18 -0.03,0.07 -0.04,0.14 -0.04,0.22 0,0.08 0,0.13 0.04,0.21 0.03,0.13 0.11,0.2 0.14,0.24zm-0.07 0.58l0.93 0 0 3.62 -0.93 0 0 -3.62zm6.32 3.15c0.14,0.18 0.29,0.33 0.51,0.4 0.18,0.11 0.4,0.14 0.61,0.14 0.9,0 1.62,-0.68 1.62,-1.91 0,-1.18 -0.68,-1.9 -1.62,-1.9 -0.21,0 -0.42,0.04 -0.61,0.14 -0.18,0.11 -0.36,0.25 -0.51,0.4l0 -1.84 -0.97 0 0 5.03 0.97 0c0,0.01 0,-0.46 0,-0.46zm0 -2c0.11,-0.14 0.22,-0.25 0.36,-0.33 0.14,-0.07 0.29,-0.11 0.47,-0.11 0.53,0 0.89,0.43 0.89,1.05 0,0.61 -0.36,1.04 -0.89,1.04 -0.14,0 -0.33,-0.04 -0.47,-0.11 -0.14,-0.07 -0.25,-0.18 -0.36,-0.29 0,0 0,-1.25 0,-1.25zm7.22 1.58c0,0.68 0.36,1 1.04,1 0.29,0 0.54,-0.07 0.79,-0.22l-0.17 -0.71c-0.11,0.07 -0.22,0.11 -0.33,0.11l-0.04 0c-0.11,0 -0.18,-0.07 -0.25,-0.14 -0.07,-0.07 -0.07,-0.18 -0.07,-0.25l0 -1.65 0.76 0 0 -0.82 -0.76 0 0 -1 -0.97 0 0 1 -0.58 0 0 0.82 0.62 0 0 1.87 -0.04 0 0 -0.01zm-9.74 -0.07c-0.22,0.14 -0.47,0.18 -0.71,0.14 -0.25,-0.04 -0.47,-0.18 -0.62,-0.36l2.33 -1.33 -0.11 -0.22c-0.61,-1.04 -1.61,-1.36 -2.55,-0.82l-0.07 0.04c-0.21,0.14 -0.39,0.29 -0.53,0.5 -0.14,0.18 -0.25,0.43 -0.29,0.65 -0.07,0.25 -0.07,0.47 -0.04,0.71 0.03,0.25 0.14,0.47 0.25,0.69 0.04,0.04 0.04,0.11 0.07,0.14 0.25,0.39 0.68,0.71 1.15,0.79 0.47,0.11 0.97,0 1.4,-0.25 0.47,-0.24 0.82,-0.64 1,-1.15l-0.68 -0.33c-0.05,0.33 -0.31,0.62 -0.6,0.8zm-1.69 -1.44c0.07,-0.22 0.22,-0.4 0.4,-0.51 0.11,-0.07 0.22,-0.11 0.33,-0.11l0.33 0c0.1,0 0.21,0.07 0.28,0.14 0.07,0.07 0.18,0.14 0.22,0.25l-1.55 0.89c-0.04,-0.23 -0.08,-0.44 -0.01,-0.66zm-13.71 1.93c-0.18,0.18 -0.4,0.36 -0.65,0.47 -0.25,0.11 -0.51,0.18 -0.79,0.18 -0.33,0 -0.65,-0.07 -0.94,-0.25 -0.28,-0.14 -0.53,-0.4 -0.71,-0.64 -0.18,-0.29 -0.29,-0.58 -0.33,-0.94 -0.04,-0.32 0,-0.64 0.14,-0.97 0.14,-0.33 0.33,-0.57 0.58,-0.79 0.24,-0.22 0.53,-0.36 0.86,-0.43 0.33,-0.07 0.64,-0.04 0.97,0.04 0.33,0.11 0.62,0.25 0.83,0.51 0.21,-0.33 0.5,-0.58 0.86,-0.76 -0.43,-0.47 -0.97,-0.79 -1.58,-0.93 -0.61,-0.14 -1.26,-0.11 -1.86,0.14 -0.62,0.25 -1.09,0.64 -1.44,1.15 -0.36,0.53 -0.54,1.15 -0.54,1.8 0,0.39 0.07,0.82 0.22,1.18 0.14,0.39 0.4,0.71 0.68,1 0.29,0.29 0.65,0.54 1.01,0.68 0.39,0.14 0.79,0.25 1.18,0.25l0.04 0c0.42,0 0.86,-0.11 1.26,-0.29 0.39,-0.17 0.75,-0.42 1.04,-0.75 -0.29,-0.1 -0.58,-0.36 -0.83,-0.65zm6.5 -3.19c-0.36,-0.14 -0.72,-0.18 -1.11,-0.11 -0.36,0.07 -0.72,0.25 -0.98,0.54 -0.25,0.28 -0.42,0.61 -0.5,0.97 -0.08,0.36 -0.04,0.75 0.11,1.11 0.13,0.36 0.39,0.64 0.71,0.86 0.32,0.22 0.69,0.33 1.08,0.33 0.51,0 0.98,-0.22 1.33,-0.57 0.36,-0.36 0.54,-0.83 0.54,-1.36 0,-0.4 -0.11,-0.76 -0.33,-1.05 -0.21,-0.32 -0.5,-0.57 -0.85,-0.72zm0.26 2.15c-0.07,0.18 -0.22,0.33 -0.36,0.47 -0.18,0.11 -0.36,0.18 -0.58,0.18 -0.25,0 -0.5,-0.11 -0.71,-0.29 -0.18,-0.18 -0.29,-0.43 -0.29,-0.71 0,-0.22 0.07,-0.4 0.18,-0.58 0.11,-0.18 0.25,-0.29 0.46,-0.36 0.22,-0.07 0.4,-0.11 0.58,-0.07 0.18,0.04 0.36,0.14 0.51,0.29 0.15,0.15 0.24,0.33 0.28,0.51 0.02,0.18 -0.01,0.38 -0.07,0.56z"/>
  <path class="fil0" d="M7.15 1.54c-0.36,-0.14 -0.72,-0.18 -1.12,-0.11 -0.35,0.07 -0.71,0.25 -0.97,0.54 -0.25,0.28 -0.42,0.61 -0.5,0.97 -0.07,0.36 -0.04,0.75 0.11,1.11 0.13,0.36 0.39,0.64 0.71,0.86 0.32,0.22 0.68,0.33 1.08,0.33 0.51,0 0.97,-0.22 1.33,-0.57 0.36,-0.36 0.54,-0.83 0.54,-1.33l0 -0.04c0,-0.4 -0.11,-0.76 -0.33,-1.09 -0.21,-0.27 -0.53,-0.52 -0.85,-0.67zm0.22 2.15c-0.07,0.18 -0.22,0.33 -0.36,0.47 -0.14,0.14 -0.36,0.18 -0.58,0.18 -0.25,0 -0.5,-0.11 -0.71,-0.29 -0.18,-0.18 -0.29,-0.43 -0.29,-0.71 0,-0.22 0.07,-0.4 0.18,-0.58 0.11,-0.18 0.25,-0.29 0.46,-0.36 0.22,-0.07 0.4,-0.11 0.58,-0.07 0.18,0.04 0.36,0.14 0.51,0.29 0.14,0.14 0.24,0.33 0.28,0.51 0.03,0.18 -0.01,0.38 -0.07,0.56zm19.97 1.55c0.5,0 0.97,-0.22 1.33,-0.57 0.35,-0.36 0.53,-0.83 0.53,-1.36 0,-0.4 -0.11,-0.76 -0.33,-1.05 -0.21,-0.32 -0.5,-0.53 -0.86,-0.68 -0.36,-0.14 -0.71,-0.18 -1.11,-0.11 -0.36,0.07 -0.72,0.25 -0.97,0.54 -0.25,0.28 -0.43,0.61 -0.51,0.97 -0.07,0.36 -0.04,0.75 0.11,1.11 0.14,0.36 0.4,0.64 0.71,0.86 0.34,0.22 0.73,0.29 1.1,0.29l0 0zm-0.98 -1.93c0,-0.22 0.07,-0.4 0.18,-0.58 0.11,-0.18 0.25,-0.29 0.47,-0.36 0.18,-0.07 0.4,-0.11 0.57,-0.07 0.18,0.04 0.36,0.14 0.51,0.29 0.14,0.14 0.25,0.33 0.29,0.51 0.04,0.18 0.04,0.39 -0.07,0.57 -0.07,0.18 -0.22,0.33 -0.36,0.47 -0.14,0.14 -0.36,0.18 -0.57,0.18 -0.25,0 -0.51,-0.11 -0.72,-0.29 -0.19,-0.19 -0.3,-0.44 -0.3,-0.72z"/>
 </g>
</svg>
