<?xml version="1.0" encoding="utf-8"?>
<!-- Generator: Adobe Illustrator 26.0.3, SVG Export Plug-In . SVG Version: 6.00 Build 0)  -->
<svg version="1.0" id="katman_1" xmlns="http://www.w3.org/2000/svg" xmlns:xlink="http://www.w3.org/1999/xlink" x="0px" y="0px"
	 viewBox="0 0 600 450" style="enable-background:new 0 0 600 450;" xml:space="preserve">
<style type="text/css">
	.st0{fill:#1E2022;}
</style>
<path class="st0" d="M531.1,233.8c0,0.8-0.7,1.4-1.4,1.4h-31.4c0.2,7.7,5.8,12.6,13.5,12.6c4.3,0.1,8.4-1.7,11.2-5
	c0.5-0.6,1.4-0.7,2-0.2l3.8,2.8c0.6,0.4,0.8,1.3,0.3,1.9c-4.1,5.4-10.6,8.5-17.4,8.3c-13.6,0-22.6-9.4-22.6-22.4
	c0-13.4,9.3-22.8,21.2-22.8c13.2,0,20.9,9,20.9,22.5C531.1,233.2,531.1,233.5,531.1,233.8z M510.2,217.9c-6.3-0.1-11.5,4.8-11.7,11
	h23.3c0-6.1-4.9-11-10.9-11.1C510.7,217.9,510.4,217.9,510.2,217.9z M460,272.4c-5.1-0.1-10.1-1.3-14.6-3.5c-0.7-0.3-1-1.1-0.7-1.8
	l1.8-4.3c0.3-0.7,1.1-1.1,1.9-0.8c0,0,0,0,0,0c3.6,1.7,7.5,2.6,11.5,2.6c7.2,0,13.7-4.7,13.7-12.8v-2.9c-3.3,4.3-8.5,6.8-13.9,6.6
	c-12.5,0-20.9-9.3-20.9-22.5s8.7-22.6,21-22.6c5.5-0.1,10.8,2.4,14.2,6.8v-4c0-0.8,0.7-1.4,1.5-1.4c0.1,0,0.1,0,0.2,0l5.7,1.2
	c0.7,0.1,1.1,0.7,1.1,1.4v34.4C482.5,265.1,472.6,272.4,460,272.4z M460.8,218.4c-7.5,0-12.9,5.9-12.9,14.6c0,8.7,5.6,14.6,13,14.6
	c7.8,0,12.9-6.1,12.9-14.6C473.8,224.2,468.3,218.4,460.8,218.4L460.8,218.4z M429.9,254.5h-5.4c-0.7,0-1.2-0.4-1.4-1.1l-0.5-2.1
	c-2.3,2.5-5.8,4.3-11.2,4.3c-9.2,0-16.4-5.7-16.4-14.3c0-8.3,6.8-14.2,16.8-14.2c3.7-0.2,7.4,0.9,10.4,3.1v-4c0-5-3.5-7.9-9.3-7.9
	c-3.8,0.1-7.6,1-11,2.8c-0.7,0.3-1.5,0.1-1.9-0.6l-2.2-3.9c-0.4-0.7-0.1-1.5,0.5-1.9c0,0,0,0,0,0c4.7-2.7,10-4.2,15.4-4.2
	c12.9,0,17.3,6.9,17.3,16.3v26.3C431.3,253.9,430.7,254.5,429.9,254.5z M413.3,233.6c-5.5,0-9.2,3.1-9.2,7.4s3.8,7.4,9.3,7.4
	c5.5,0,9.2-3,9.2-7.4C422.5,236.6,418.8,233.6,413.3,233.6z M368.9,255.6c-5.5,0.1-10.7-2.4-14.1-6.8v22.1c0,0.8-0.6,1.4-1.4,1.4
	h-6.2c-0.8,0-1.4-0.6-1.4-1.4v-57.7c0-0.8,0.7-1.4,1.5-1.4c0.1,0,0.1,0,0.2,0l5.7,1.2c0.7,0.1,1.1,0.7,1.1,1.4v2.7
	c3.3-4.3,8.6-6.8,14-6.7c12.4,0,21.3,9.4,21.3,22.5S381.3,255.6,368.9,255.6L368.9,255.6z M367.4,218.5c-8,0-12.9,6.6-12.9,14.5
	c0,9.3,5.8,14.7,13,14.7c7.6,0,12.9-6,12.9-14.7C380.4,224.3,374.8,218.4,367.4,218.5L367.4,218.5z M335.5,254.5h-5.4
	c-0.7,0-1.2-0.4-1.4-1.1l-0.5-2.1c-2.3,2.5-5.8,4.3-11.2,4.3c-9.2,0-16.4-5.7-16.4-14.3c0-8.3,6.8-14.2,16.8-14.2
	c3.7-0.2,7.4,0.9,10.4,3.1v-4c0-5-3.5-7.9-9.3-7.9c-3.8,0.1-7.6,1-11,2.8c-0.7,0.3-1.5,0.1-1.9-0.6l-2.2-3.9
	c-0.4-0.7-0.1-1.5,0.5-1.9c4.7-2.7,10-4.2,15.4-4.2c12.9,0,17.3,6.9,17.3,16.3v26.3C336.9,253.9,336.3,254.5,335.5,254.5z
	 M318.9,233.6c-5.5,0-9.2,3.1-9.2,7.4s3.8,7.4,9.3,7.4c5.5,0,9.2-3,9.2-7.4C328.2,236.6,324.5,233.6,318.9,233.6z M291.1,255.1
	c-10.6,0-13.8-7-13.8-17.6v-18.7h-3.4c-0.8,0-1.4-0.6-1.4-1.4c0,0,0,0,0,0v-4.6c0-0.8,0.6-1.4,1.4-1.4h3.4v-7.3
	c0-0.8,0.7-1.4,1.5-1.4c0.1,0,0.1,0,0.2,0l6.2,1.2c0.7,0.1,1.1,0.7,1.1,1.4v6h7.4c0.8,0,1.4,0.6,1.4,1.4v4.6c0,0.8-0.6,1.4-1.4,1.4
	h-7.4v20c0,6.6,2.6,8.2,7.4,8.2h0.8c0.9,0,0.9,1.1,0.9,1.1v5.2c0,0.7-0.5,1.3-1.3,1.4C293.2,255,292.2,255.1,291.1,255.1z
	 M253.1,255.6c-6,0.3-11.7-2.5-15-7.5c-0.4-0.6-0.3-1.4,0.3-1.9l3.6-2.7c0.6-0.5,1.5-0.4,2,0.2c2.3,3,5.9,4.6,9.6,4.5
	c3.8,0,6.6-1.9,6.6-5.4c0-8.3-21.2-5.3-21.2-20.2c0-7.6,6.5-12.2,14.9-12.2c5.4-0.2,10.5,2.3,13.5,6.8c0.4,0.6,0.2,1.5-0.4,1.9
	c0,0,0,0,0,0l-4,2.6c-0.6,0.4-1.4,0.3-1.9-0.3c-1.8-2.4-4.7-3.8-7.7-3.7c-3.3,0-5.8,1.7-5.8,4.7c0,8.3,21.3,4.8,21.3,19.9
	C268.9,250.4,262.1,255.6,253.1,255.6L253.1,255.6z M230.1,254.5h-6.2c-0.8,0-1.4-0.6-1.4-1.4v-25.2c0-5.9-3.8-9.4-8.8-9.4
	c-5.8,0-9.5,4.2-9.5,10.1v24.5c0,0.8-0.6,1.4-1.4,1.4h-6.2c-0.8,0-1.4-0.6-1.4-1.4v-40.2c0-0.8,0.6-1.4,1.4-1.4h6.1
	c0.8,0,1.4,0.6,1.4,1.4v4.2c2.6-4.2,7.3-6.7,12.3-6.6c11.3,0,15.2,8.8,15.2,18.2v24.5C231.6,253.9,230.9,254.5,230.1,254.5
	L230.1,254.5z M183.3,254.5H177c-0.8,0-1.4-0.6-1.4-1.4v-57.3c0-0.8,0.7-1.4,1.4-1.4c0.1,0,0.1,0,0.2,0l6.4,1.2
	c0.7,0.1,1.2,0.7,1.2,1.4v56.1C184.8,253.9,184.2,254.5,183.3,254.5L183.3,254.5z M97.8,272.6c-0.8,0.1-1.5-0.4-1.6-1.2
	c0-0.1,0-0.1,0-0.2v-91.7c0-0.8,0.7-1.4,1.4-1.4c0.1,0,0.1,0,0.2,0l59,9.5c0.7,0.1,1.2,0.7,1.2,1.4v71.8c0,0.7-0.5,1.3-1.2,1.4
	L97.8,272.6z M150.5,196.6c0-0.7-0.5-1.3-1.2-1.4l-41.7-5.1c-0.8-0.1-1.5,0.4-1.6,1.2c0,0.1,0,0.1,0,0.2v68.8c0,0.8,0.7,1.4,1.4,1.4
	c0.1,0,0.1,0,0.2,0l41.7-5.9c0.7-0.1,1.2-0.7,1.2-1.4L150.5,196.6z M84.3,264.8c-0.8,0.1-1.5-0.4-1.6-1.2c0-0.1,0-0.1,0-0.2v-77
	c0-0.8,0.7-1.4,1.4-1.4c0.1,0,0.1,0,0.2,0l4.6,0.6c0.7,0.1,1.2,0.7,1.2,1.4v75.7c0,0.7-0.5,1.3-1.2,1.4L84.3,264.8z M70.9,257.6
	c-0.8,0.1-1.5-0.4-1.6-1.2c0-0.1,0-0.2,0-0.2v-62.9c0-0.8,0.6-1.4,1.4-1.4c0.1,0,0.2,0,0.3,0l4.6,0.5c0.8,0,1.4,0.7,1.4,1.5
	c0,0,0,0.1,0,0.1v61.8c0,0.7-0.5,1.3-1.3,1.4L70.9,257.6z"/>
</svg>
