<?xml version="1.0" encoding="utf-8"?>
<!-- Generator: Adobe Illustrator 28.4.1, SVG Export Plug-In . SVG Version: 6.00 Build 0)  -->
<svg version="1.0" id="katman_1" xmlns="http://www.w3.org/2000/svg" xmlns:xlink="http://www.w3.org/1999/xlink" x="0px" y="0px"
	 viewBox="0 0 841.89 595.28" style="enable-background:new 0 0 841.89 595.28;" xml:space="preserve">
<style type="text/css">
	.st0{fill:#FFFFFF;}
</style>
<g>
	<g>
		<path class="st0" d="M93.88,303.51c-1.65-0.08-3.3,0.03-4.93,0.33c-11.28,1.82-18.94,12.44-17.12,23.71
			c0.02,0.11,0.04,0.22,0.06,0.33c1.18,11.14,13.06,20.54,24.06,20.82c1.13,0.03,2.26-0.05,3.37-0.22
			c11.9-1.93,15.02-14.19,13.05-26.24C110.16,308.65,100.46,303.85,93.88,303.51z M105.54,335.73c-1.02,1.53-2.81,2.38-4.64,2.19
			c-3.28-0.26-5.8-3.02-5.76-6.31c-0.03-2.11,0.38-4.21,1.2-6.16c1.06-2.56,0.08-5.51-2.3-6.93c-1.41-0.88-3.11-1.18-4.73-0.84
			c-1.58,0.3-2.97,1.22-3.87,2.54c-0.61,0.99-1.09,2.05-1.42,3.17c-0.06,0.2-0.12,0.35-0.15,0.45c-0.54,1.38-1.4,1.78-1.98,1.7
			c-0.44-0.08-0.79-0.41-0.9-0.84c-0.61-3.72,0.61-7.52,3.29-10.18c2.33-2.33,5.6-3.45,8.87-3.04c3.44,0.41,6.45,2.49,8.05,5.56
			c1.54,3.69,1.18,7.9-0.99,11.27c-0.13,0.29-0.26,0.55-0.36,0.78c-0.78,1.32-0.82,2.95-0.11,4.31c0.62,0.83,1.61,1.3,2.64,1.27
			c0.49-0.01,0.97-0.07,1.44-0.19c0.61-0.13,1.24-0.27,1.63,0.18C105.71,334.97,105.75,335.4,105.54,335.73L105.54,335.73z"/>
		<path class="st0" d="M245.96,358.58c2.48-6.3,3.92-12.96,4.25-19.73c0-8.32-4.71-11.76-7.71-11.76c-0.09-0.32-0.68-2.49-1.5-5.1
			c-0.47-1.51-1.02-3-1.66-4.45c2.45-3.39,3.49-7.6,2.9-11.74c-0.49-3.19-2.01-6.14-4.33-8.39c-4.4-3.73-9.64-6.33-15.28-7.55
			c-0.85-0.24-3.65-1-3.89-1.08c-0.02-0.16-0.2-9.16-0.37-13.03c-0.07-3.87-0.65-7.72-1.72-11.45c-1.33-5.35-4.07-10.24-7.94-14.16
			c9.69-10.03,15.74-21.08,15.73-30.56c-0.03-18.23-22.45-23.75-50.08-12.32c-0.03,0.01-5.81,2.46-5.86,2.48
			c-0.03-0.03-10.58-10.37-10.74-10.51c-31.5-27.44-130.01,81.89-98.52,108.45l6.88,5.82c-1.86,4.98-2.51,10.32-1.91,15.6
			c0.93,7.68,4.73,14.72,10.63,19.73c5.73,5.2,13.13,8.17,20.86,8.39c12.26,28.2,40.26,45.5,73.09,46.48
			C204.01,404.73,233.57,388.23,245.96,358.58z M253.19,325.21c3.02,3.89,4.57,8.72,4.39,13.65c-0.32,7.68-1.92,15.25-4.75,22.39
			l-0.07,0.17c-6.39,15.37-17.55,28.28-31.83,36.83c-14.86,8.65-31.8,13.09-48.99,12.85h0c-1.11,0-2.24-0.02-3.36-0.05
			c-16.97-0.35-33.54-5.24-47.98-14.16c-12.71-7.97-23-19.26-29.75-32.66c-7.77-1.21-15.03-4.64-20.89-9.88
			c-7.29-6.23-11.96-14.98-13.07-24.5c-0.5-4.63-0.23-9.3,0.79-13.84l-3.2-2.7c-5.23-4.51-8.36-10.99-8.65-17.89
			c-0.26-7.09,0.96-14.15,3.6-20.74c6.56-17.91,21.65-39.23,40.37-57.04c8.35-8.11,17.62-15.21,27.61-21.18
			c8.33-5.33,17.91-8.41,27.79-8.95c6.37-0.17,12.58,2.04,17.41,6.19c0.28,0.24,4.41,4.29,7.55,7.36c0.79-0.33,1.35-0.57,1.37-0.58
			c9.28-4.04,19.26-6.26,29.38-6.52c18.75,0,30.88,10.06,30.91,25.62c0.01,9.6-4.7,20.37-13.39,30.79c2.36,3.66,4.15,7.65,5.3,11.85
			c1.23,4.3,1.91,8.74,2.01,13.21c0.08,1.92,0.17,5.01,0.24,7.74c6.41,1.62,12.34,4.77,17.28,9.17c3.35,3.32,5.54,7.63,6.26,12.28
			c0.72,4.6,0.01,9.31-2.03,13.49c0.18,0.52,0.37,1.09,0.56,1.69c0.16,0.53,0.32,1.03,0.46,1.51
			C250.3,322.29,251.9,323.61,253.19,325.21L253.19,325.21z"/>
		<path class="st0" d="M230.86,316.1c2.42-2.27,3.7-5.51,3.48-8.82c-0.24-1.65-1.01-3.18-2.19-4.35c-3.47-2.88-7.6-4.86-12.02-5.76
			c-2.02-0.57-3.39-0.94-4.87-1.43c-2.63-0.87-3.92-1.58-4.22-6.57c-0.13-2.18-0.5-9.79-0.64-12.93c-0.24-5.51-0.9-13.03-5.51-16.14
			c-1.17-0.78-2.54-1.22-3.95-1.28c-0.79-0.05-1.58,0.03-2.34,0.23c-2.34,0.55-4.48,1.77-6.14,3.51
			c-4.35,3.97-10.17,5.94-16.03,5.41c-3.23-0.14-6.66-0.65-10.58-0.88c-0.76-0.05-1.53-0.09-2.3-0.13
			c-10.49,0.31-19.16,8.26-20.39,18.68c-2.25,15.64,8.95,23.72,12.18,28.46c0.5,0.61,0.81,1.34,0.89,2.13
			c-0.08,0.87-0.5,1.67-1.15,2.24l0,0c-9.1,10.24-12.38,24.4-8.72,37.6c0.43,1.56,0.98,3.08,1.64,4.56
			c8.17,19.31,33.52,28.3,58.29,20.12c3.24-1.07,6.39-2.42,9.41-4.02c5.43-2.71,10.31-6.4,14.41-10.89
			c6.39-6.48,10.58-14.8,12-23.79c0.75-4.98-0.35-6.9-1.83-7.83c-1.05-0.59-2.27-0.82-3.46-0.64c-0.63-3.91-1.74-7.72-3.3-11.36
			L230.86,316.1z"/>
		<path class="st0" d="M190.27,241.53c0.4,0.09,0.65-0.6,0.3-0.8c-5.92-3.07-12.44-4.77-19.1-5c-0.19,0-0.35-0.16-0.34-0.35
			c0-0.07,0.03-0.14,0.07-0.2c1.04-1.35,2.24-2.56,3.59-3.6c0.16-0.12,0.18-0.35,0.06-0.5c-0.07-0.09-0.19-0.15-0.3-0.14
			c-8.16,0.8-16,3.56-22.85,8.06c-0.16,0.11-0.38,0.07-0.49-0.09c-0.05-0.08-0.07-0.18-0.05-0.27c0.55-2.06,1.36-4.04,2.42-5.89
			c0.09-0.16,0.03-0.37-0.13-0.46c-0.1-0.05-0.22-0.06-0.32,0c-9.9,5.44-18.72,12.64-26.03,21.24c-0.13,0.15-0.11,0.37,0.03,0.5
			c0.12,0.11,0.31,0.12,0.44,0.02c8.47-5.92,18.02-10.13,28.1-12.4C167.05,239,178.88,238.97,190.27,241.53"/>
		<path class="st0" d="M161.12,213.6c0,0-8.57-9.93-11.16-10.66c-15.92-4.3-50.32,19.39-72.29,50.69
			c-8.89,12.66-21.61,35.09-15.53,46.62c2.16,2.59,4.6,4.94,7.27,7c4.08-5.71,10.21-9.62,17.11-10.9
			c8.66-24.21,23.86-45.55,43.92-61.64C140.07,226.84,150.33,219.78,161.12,213.6"/>
	</g>
	<g>
		<path d="M104.97,335.3c0.25,0.31,0.29,0.74,0.1,1.08c-0.94,1.53-2.67,2.39-4.46,2.23c-3.24-0.35-5.66-3.15-5.54-6.41
			c-0.03-2.14,0.36-4.27,1.15-6.26c1.02-2.57,0.1-5.51-2.21-7.04c-1.34-0.89-2.98-1.19-4.55-0.85c-1.54,0.32-2.88,1.25-3.72,2.58
			c-0.59,1.01-1.05,2.09-1.37,3.22c-0.06,0.2-0.11,0.35-0.15,0.45c-0.52,1.4-1.34,1.81-1.9,1.73c-0.26-0.04-0.63-0.21-0.86-0.85
			c-0.59-3.75,0.57-7.56,3.17-10.33c2.18-2.34,5.35-3.49,8.52-3.08c3.36,0.46,6.27,2.58,7.74,5.64c1.48,3.75,1.13,7.99-0.95,11.45
			c-0.13,0.29-0.25,0.56-0.35,0.8c-0.75,1.35-0.79,2.99-0.11,4.38c0.58,0.83,1.53,1.31,2.54,1.29c0.47-0.01,0.93-0.07,1.39-0.2
			C103.99,334.98,104.6,334.84,104.97,335.3 M249.89,338.92c-0.33,6.75-1.75,13.4-4.22,19.69c-12.31,29.58-41.68,46.05-76.67,45.01
			c-32.62-0.97-60.44-18.24-72.61-46.38c-7.69-0.22-15.04-3.18-20.72-8.37c-5.87-5-9.64-12.03-10.56-19.68
			c-0.6-5.27,0.06-10.6,1.9-15.57l-6.84-5.81c-31.29-26.5,66.57-135.6,97.87-108.22c0.16,0.14,10.65,10.46,10.67,10.49
			c0.04-0.02,5.79-2.47,5.82-2.48c27.45-11.4,49.73-5.9,49.76,12.3c0.01,9.46-6,20.49-15.62,30.5c3.85,3.92,6.57,8.8,7.89,14.13
			c1.06,3.72,1.64,7.56,1.71,11.43c0.17,3.86,0.35,12.84,0.37,13c0.24,0.07,3.02,0.84,3.87,1.08c5.6,1.23,10.81,3.82,15.18,7.54
			c2.3,2.25,3.81,5.19,4.3,8.37c0.59,4.13-0.44,8.33-2.88,11.72c0.63,1.45,1.19,2.93,1.65,4.44c0.81,2.61,1.4,4.77,1.49,5.09
			C245.21,327.18,249.89,330.62,249.89,338.92L249.89,338.92z M111.62,322.69c-2.13-13.81-11.44-18.68-17.76-19.03
			c-1.59-0.08-3.18,0.03-4.74,0.34c-11.28,2.28-17.65,11.91-16.4,24.42c1.88,11.55,11.44,20.3,23.12,21.14
			c1.09,0.03,2.17-0.05,3.24-0.23C110.52,347.38,113.51,334.92,111.62,322.69z M130.91,235c9.56-7.86,19.75-14.9,30.48-21.07
			c0,0-8.52-9.91-11.09-10.64c-15.82-4.29-50,19.35-71.82,50.58c-8.83,12.64-21.47,35.02-15.42,46.53c2.15,2.58,4.57,4.93,7.22,6.98
			c4.04-5.69,10.14-9.6,17-10.88C95.87,272.38,110.97,251.09,130.91,235z M165.29,344.31c0.85,3.74,3.69,6.71,7.38,7.74
			c1.89,0.7,3.83,1.23,5.82,1.58c25.03,4.32,48.42-10.03,53.69-13.65c0.4-0.27,0.66-0.01,0.34,0.47c-0.16,0.25-0.33,0.5-0.52,0.74
			c-6.45,8.34-23.78,18-46.33,18c-9.83,0-19.66-3.48-23.27-8.82c-5.6-8.29-0.28-20.38,9.05-19.12c0.01,0,3.19,0.36,4.09,0.46
			c14.5,1.39,29.12-0.95,42.46-6.82c12.73-5.93,17.54-12.45,16.82-17.73c-0.24-1.64-1.01-3.16-2.19-4.32
			c-3.48-2.87-7.61-4.83-12.03-5.72c-2.02-0.57-3.39-0.93-4.87-1.42c-2.63-0.87-3.93-1.57-4.22-6.52c-0.13-2.17-0.5-9.72-0.64-12.84
			c-0.24-5.47-0.9-12.94-5.52-16.03c-1.18-0.77-2.54-1.21-3.95-1.27c-0.79-0.05-1.58,0.03-2.35,0.23c-2.34,0.54-4.48,1.75-6.14,3.48
			c-4.37,3.95-10.18,5.9-16.05,5.37c-3.23-0.14-6.66-0.64-10.59-0.87c-0.76-0.05-1.53-0.09-2.3-0.13
			c-10.46,0.27-19.14,8.16-20.41,18.55c-2.25,15.53,8.96,23.55,12.2,28.26c0.5,0.6,0.81,1.33,0.89,2.11
			c-0.09,0.86-0.5,1.66-1.15,2.22v0.01c-9.1,10.14-12.39,24.22-8.72,37.34c0.43,1.55,0.98,3.06,1.64,4.53
			c8.18,19.17,33.56,28.1,58.35,19.98c3.25-1.06,6.4-2.4,9.42-3.99c5.43-2.69,10.32-6.36,14.42-10.81
			c6.38-6.42,10.59-14.68,12.01-23.62c0.75-4.94-0.35-6.85-1.84-7.77c-1.05-0.59-2.27-0.81-3.46-0.63
			c-0.63-3.88-1.74-7.67-3.3-11.28c-7.08,5.34-15.08,9.34-23.61,11.78c-10.26,2.9-20.93,4.06-31.57,3.42
			c-6.85-0.55-11.38-2.56-13.08,2.99c10.36,3.46,21.35,4.58,32.19,3.28c0.32-0.03,0.61,0.2,0.64,0.52c0,0,0,0,0,0
			c0.02,0.26-0.12,0.51-0.36,0.62C198.2,344.66,185.49,350.58,165.29,344.31z M128.05,254.27c8.41-5.9,17.89-10.11,27.92-12.38
			c11.31-2.62,23.06-2.65,34.38-0.09c0.4,0.09,0.65-0.6,0.29-0.8c-5.87-3.06-12.36-4.76-18.98-4.99c-0.19,0-0.34-0.16-0.34-0.35
			c0-0.07,0.03-0.14,0.07-0.2c1.03-1.35,2.23-2.56,3.57-3.6c0.16-0.12,0.18-0.35,0.06-0.5c-0.07-0.09-0.19-0.14-0.3-0.14
			c-8.11,0.8-15.9,3.56-22.7,8.04c-0.16,0.11-0.38,0.07-0.49-0.09c-0.05-0.08-0.07-0.18-0.05-0.27c0.55-2.05,1.35-4.03,2.4-5.88
			c0.09-0.16,0.03-0.37-0.13-0.46c-0.1-0.05-0.22-0.06-0.32,0c-9.84,5.43-18.6,12.62-25.86,21.2c-0.13,0.15-0.11,0.37,0.03,0.5
			C127.74,254.36,127.92,254.37,128.05,254.27z M193.95,306.98c1.42,0.9,3.28,0.59,4.34-0.72c0.63-1.22-0.29-2.88-2.05-3.7
			c-1.42-0.9-3.28-0.59-4.34,0.72C191.27,304.5,192.19,306.16,193.95,306.98z M199.36,287.17c0.42,2.2,1.34,4.28,2.67,6.08
			c1.38-0.17,2.77-0.17,4.15,0c0.81-2.41,0.88-5.01,0.2-7.47c-1-4.53-2.34-7.27-5.13-6.84
			C198.46,279.36,198.36,282.64,199.36,287.17z M205.28,297.57c-1.86-0.53-3.79,0.54-4.33,2.4c-0.53,1.86,0.54,3.79,2.4,4.33
			c1.86,0.53,3.79-0.54,4.33-2.4c0.08-0.3,0.13-0.6,0.14-0.91C208.03,299.36,206.91,297.85,205.28,297.57z"/>
	</g>
	<g>
		<path d="M159.03,297.17c-0.44-0.06-0.63-0.25-0.69-0.5c-0.17-0.78,1.03-2.07,2.3-3c3.76-2.75,8.68-3.34,12.98-1.56
			c1.98,0.82,3.68,2.18,4.9,3.94c0.45,0.74,0.54,1.31,0.25,1.61c-0.46,0.48-1.62-0.07-3.51-0.9c-2.28-1.12-4.79-1.66-7.32-1.58
			C164.93,295.68,161.96,296.34,159.03,297.17z M177.9,301.05c-1.66-1.75-4.09-2.54-6.46-2.12c-1.72,0.18-3.36,0.86-4.7,1.96
			c-0.63,0.45-1.06,1.12-1.2,1.88c-0.01,0.17,0.06,0.33,0.19,0.45c0.11,0.1,0.26,0.16,0.41,0.15c0.62-0.09,1.23-0.26,1.8-0.5
			c2.53-0.95,5.27-1.24,7.94-0.82c1.24,0.14,1.82,0.22,2.1-0.21C178.12,301.59,178.09,301.28,177.9,301.05z"/>
	</g>
	<g>
		<path d="M174.4,302.19c0.78-2.78,0.83-5.72,0.13-8.53c-1.01-4.54-2.53-7.13-5.36-6.7c-2.83,0.43-2.9,4.08-1.99,8.64
			c0.42,2.09,1.23,4.07,2.4,5.85C171.83,304.59,173.36,303.78,174.4,302.19L174.4,302.19z"/>
	</g>
</g>
<g transform="translate(58,11) scale(.18)">
	<path d="M1651.67,1639.99c-86.31,0-87.81,94.23-108.24,94.23c-4.25,0-7.63-3.75-7.63-8.92c0-6.88,1.79-12.84,1.79-23.98
		c0-33.82-23.81-61.33-73.72-61.33c-42.36,0-73.39,21.22-92.32,60.46c-9.59,19.89-8.76,33.73-18.47,33.73
		c-3.59,0-6.38-3.38-6.38-8.26c0-14.43,12.72-27.6,12.72-58.58c0-8.05-0.63-14.84-1.92-20.39h-82.06v318.31h111.41v-172.71
		c0-34.02,14.59-55.83,39.49-55.83c16.51,0,31.19,14.43,31.19,40.82v187.72h111.41v-172.71c0-38.24,17.68-55.83,39.49-55.83
		c18.26,0,31.19,16.89,31.19,40.82v187.72h110.12v-195.43c0-85.39-33.9-129.88-98.03-129.88L1651.67,1639.99z"/>
	<rect x="2303.55" y="1557.85" width="110.12" height="407.41"/>
	<path d="M2449.99,1802.31c0,108.28,70.09,170.62,161.07,170.62c52.16,0,92.02-20.64,116.5-40.74v-105.03
		c-24.77,16.93-62.88,36.28-103.78,36.28c-51.04,0-77.68-21.18-77.68-57.92c0-36.73,30.73-57.29,75.76-57.29
		c40.78,0,78.18,16.22,105.66,35.02v-111.41c-23.27-17.3-64.34-32.48-116.5-32.48c-97.65,0-161.07,61.04-161.07,162.99
		L2449.99,1802.31z"/>
	<path d="M2970.11,1640.61c-44.78,0-70.72,20.76-89.77,59.21c-8.38,16.97-9.01,33.73-18.47,33.73c-3.54,0-6.38-3.29-6.38-8.26
		c0-17.64,21.01-43.95,21.01-121.59c0-19.51-1.92-34.57-5.71-45.2h-96.11v406.79h111.41v-171.33c0-32.11,16.89-56.58,42.66-56.58
		c19.18,0,32.48,15.59,32.48,40.82v187.09h111.41v-199.27c0-83.14-36.28-125.42-102.49-125.42H2970.11z"/>
	<path d="M3992.49,1639.36c-49.24,0-74.39,28.06-88.44,54c-11.13,20.51-12.76,40.24-22.31,40.24c-4.67,0-7-2.75-7-8.26
		c0-9.76,12.72-26.31,12.72-53.45c0-11.05-0.88-19.31-2.54-24.81h-83.39v399.78h112.04v-125.59c14.22,30.35,43.99,50.45,84.68,50.45
		c73.39,0,123.5-60.54,123.5-166.16c0-97.44-46.45-166.16-129.22-166.16L3992.49,1639.36z M3962.56,1898.46
		c-22.47,0-47.12-23.31-47.12-82.14c0-51.24,20.14-81.47,47.12-81.47c31.02,0,48.37,29.9,48.37,81.47
		C4010.92,1873.65,3990.95,1898.46,3962.56,1898.46z"/>
	<path d="M1948.8,1639.36c-57.54,0-110.24,14.22-146.85,32.44v92.19c42.61-23.02,86.31-40.07,124.63-40.07
		c41.03,0,58.42,21.64,55.96,50.12c-16.55-1.71-34.94-2.42-57.25-2.42c-87.14,0-141.77,34.02-141.77,108.08
		c0,60.83,47.37,92.19,99.2,92.19c51.83,0,85.35-24.18,105.49-60.63c11.47-20.76,10.51-33.48,17.97-33.48
		c3.67,0,6.21,2.63,6.21,6.71c0,13.3-3.79,21.06-3.79,39.07c0,16.85,2.21,31.02,5.71,41.32h80.1v-170.41
		c0-96.78-44.28-155.15-145.6-155.15V1639.36z M1911.27,1893.67c-20.68,0-31.77-9.05-31.77-24.81c0-20.51,19.31-36.23,69.3-36.23
		c11.01,0,20.97,0.38,30.02,1.13C1974.4,1863.06,1948.88,1893.67,1911.27,1893.67z"/>
	<path d="M2346,1346.99V1168.4h-76.68v169.45c0,41.99-28.1,70.05-65,70.05s-65-28.1-65-70.05V1168.4h-76.55l0.42,178.58
		c0,77.76,62.25,134.64,141.35,134.64S2346,1424.88,2346,1346.99z"/>
	<polygon points="2642.12,1475.46 2718.68,1475.46 2718.68,1240.12 2810.03,1240.12 2810.03,1168.4 2550.68,1168.4 2550.68,1240.12 
		2642.12,1240.12 	"/>
	<rect x="2424.64" y="1168.53" width="76.55" height="307.05"/>
	<polygon points="1845.27,1475.46 1921.82,1475.46 1921.82,1240.12 2013.14,1240.12 2013.14,1168.4 1753.79,1168.4 1753.79,1240.12 
		1845.27,1240.12 	"/>
	<polygon points="1352,1322.1 1352,1168.53 1275.45,1168.53 1275.45,1475.54 1352,1475.54 	"/>
	<path d="M1507.15,1306c0-41.99,28.1-70.05,65-70.05s65,28.1,65,70.05v169.45h76.55l-0.21-178.58
		c-0.04-77.81-62.38-134.64-141.47-134.64c-79.1,0-141.47,56.75-141.47,134.64v178.58h76.55V1306H1507.15z"/>
	<path d="M3657.01,1639.99c-86.31,0-87.81,94.23-108.24,94.23c-4.25,0-7.63-3.75-7.63-8.92c0-6.88,1.79-12.84,1.79-23.98
		c0-33.82-23.81-61.33-73.72-61.33c-42.36,0-73.39,21.22-92.32,60.46c-9.59,19.89-8.76,33.73-18.47,33.73
		c-3.59,0-6.38-3.38-6.38-8.26c0-14.43,12.72-27.6,12.72-58.58c0-8.05-0.63-14.84-1.92-20.39h-82.14v318.31h111.41v-172.71
		c0-34.02,14.59-55.83,39.49-55.83c16.51,0,31.19,14.43,31.19,40.82v187.72h111.41v-172.71c0-38.24,17.68-55.83,39.49-55.83
		c18.26,0,31.19,16.89,31.19,40.82v187.72h110.12v-195.43c0-85.39-33.9-129.88-98.03-129.88L3657.01,1639.99z"/>
	<path d="M3175.08,1669.26c-23.35,0-41.82-3.38-55.37-10.17v306.22h110.12v-306.22C3215.53,1665.38,3198.52,1669.26,3175.08,1669.26
		z"/>
	<path d="M3174.46,1555.97c-45.53,0-69.38,20.14-69.38,43.28c0,24.93,28.23,43.28,69.38,43.28c41.15,0,69.38-18.35,69.38-43.28
		C3243.84,1576.11,3219.95,1555.97,3174.46,1555.97z"/>
	<path d="M2199.48,1669.26c-23.35,0-41.82-3.38-55.37-10.17v306.22h110.12v-306.22C2239.92,1665.38,2222.91,1669.26,2199.48,1669.26
		z"/>
	<path d="M2198.85,1555.97c-45.53,0-69.38,20.14-69.38,43.28c0,24.93,28.23,43.28,69.38,43.28s69.38-18.35,69.38-43.28
		C2268.23,1576.11,2244.34,1555.97,2198.85,1555.97z"/>
</g>
</svg>
