<?xml version="1.0" encoding="utf-8"?>
<!-- Generator: Adobe Illustrator 24.3.0, SVG Export Plug-In . SVG Version: 6.00 Build 0)  -->
<svg version="1.1" id="layer" xmlns="http://www.w3.org/2000/svg" xmlns:xlink="http://www.w3.org/1999/xlink" x="0px" y="0px"
	 viewBox="0 0 652 652" style="enable-background:new 0 0 652 652;" xml:space="preserve">
<style type="text/css">
	.st0{fill:#F62B54;}
	.st1{fill:#FFCC00;}
	.st2{fill:#00CA72;}
	.st3{fill:#333333;}
</style>
<path class="st0" d="M33.6,352.7c-4.5,0-8.7-2.4-10.9-6.3s-2.1-8.7,0.3-12.4l22.4-35.2c2.3-3.9,6.6-6.1,11.1-6s8.6,2.6,10.7,6.6
	s1.8,8.7-0.7,12.4L44.2,347C41.9,350.6,37.9,352.7,33.6,352.7z"/>
<path class="st1" d="M72.1,352.7c-4.5,0-8.7-2.4-10.9-6.3s-2.1-8.6,0.3-12.4l22.4-35.1c2.3-3.9,6.5-6.3,11.1-6.1
	c4.6,0.1,8.7,2.6,10.8,6.6c2.1,4,1.8,8.8-0.8,12.5L82.6,347C80.3,350.6,76.3,352.7,72.1,352.7z"/>
<ellipse class="st2" cx="109.6" cy="341.7" rx="11.5" ry="11.3"/>
<path class="st3" d="M610.9,331.1c3.5,0,5.6,2.5,5.6,6.5v13.9h4.7v-14.2c0-6.9-3.3-10.9-9.4-10.9c-2.4,0-6.2,0.7-8.5,5.1
	c-1.1-2.6-3.5-4.5-6.3-4.8c-0.9-0.2-1.8-0.2-2.7-0.2c-1.9,0.2-5.4,1.4-6.7,4.1v-3.7h-4.7v24.6h4.7v-13.3c0-5.2,3.4-7.2,6.8-7.2
	c3.2,0,5.3,2.4,5.3,6.5v14h4.7v-13.3C604.4,334.1,606.8,331,610.9,331.1z M565.5,347.4c2.2,0,4.3-0.8,5.8-2.4s2.3-3.7,2.2-5.9
	c0-5-3.6-8.1-8-8.1s-8,3.1-8,8.1c-0.1,2.2,0.7,4.3,2.2,5.9S563.3,347.4,565.5,347.4L565.5,347.4z M565.5,352
	c-6.9,0-12.7-5.1-12.7-12.9s5.8-12.8,12.7-12.8s12.7,5,12.7,12.8C578.3,346.9,572.4,352,565.5,352L565.5,352z M528.4,339.1
	L528.4,339.1c0-7.8,5.9-12.7,12.9-12.8c3.5-0.1,6.9,1.4,9.4,4l-3.6,3.1c-1.5-1.5-3.6-2.3-5.8-2.3c-4.4,0-8.2,3.1-8.2,8.1
	c0,3.3,2,6.4,5,7.6c3.1,1.3,6.6,0.6,8.9-1.8l3.6,3.1c-2.4,2.6-5.9,4.1-9.4,4C534.4,352,528.4,346.9,528.4,339.1z M513.3,346.8
	c0-1.8,1.4-3.3,3.2-3.3l0,0c1.8,0,3.3,1.5,3.2,3.3l0,0c-0.1,1.7-1.5,3.1-3.2,3.1S513.4,348.5,513.3,346.8z M526.2,295.6h-16.9
	l-11.8,30.5l-11.8-30.5h-16.9l20.5,48.1l-12.7,31.8h16.7C493.4,375.6,526.2,295.6,526.2,295.6z M423.7,322.4
	c0,7.7,6.7,12.8,13.3,12.8c6.5,0,12.9-4.7,12.9-12.8c0-8-6.4-12.8-12.9-12.8C430.4,309.6,423.7,314.7,423.7,322.4L423.7,322.4z
	 M449.9,349.3v-6.1c-3.4,5.2-11.4,7.1-15.5,7.1c-13.6,0-27.1-10.7-27.1-27.9c0-17.2,13.6-27.9,27.1-27.9c3.4,0,11.4,1.1,15.5,7.1v-6
	h15.7v53.7L449.9,349.3L449.9,349.3z M402.8,349.3h-15.7v-6.7c-2.6,4.9-9,7.8-15.6,7.8c-13.7,0-25.7-10.9-25.7-27.8
	c0-17.2,12.1-28.2,25.7-28.2c6.6,0,13,2.8,15.6,7.7v-35.8h15.7V349.3z M386.8,322.3c0-8-5.8-12.8-12.3-12.8
	c-6.7,0-12.3,5.1-12.3,12.8c0,7.9,5.6,13,12.3,13C381.1,335.3,386.8,330,386.8,322.3z M306.9,320.9c0-8.2,4.2-10.9,9.8-10.9
	c5.4,0,9.2,3.6,9.2,10.7v28.6h15.8v-32.1c0-15.3-7.5-22.8-19.5-22.8c-6.3,0-12.5,3.6-15.4,9v-7.8H291v53.7h15.8
	C306.9,349.3,306.9,320.9,306.9,320.9z M258.9,350.2c-15,0-27.6-11-27.6-27.9s12.5-27.8,27.6-27.8c15,0,27.7,10.9,27.7,27.8
	S274,350.2,258.9,350.2L258.9,350.2z M258.9,334.6c6.6,0,12.1-4.8,12.1-12.3c0-7.2-5.5-12.2-12.1-12.2c-3.2-0.1-6.3,1.2-8.6,3.5
	s-3.5,5.4-3.4,8.7C247,329.8,252.4,334.6,258.9,334.6z M203,310c4.7,0,8.8,3.7,8.8,10.7v28.6h15.7v-30.5c0-16.2-7.9-24.4-20.5-24.4
	c-3.8,0-10.8,1.1-15.9,9.5c-3-6.2-8.7-9.4-17.1-9.4c-6,0-11.4,3.4-13.9,8.9v-7.8h-15.8v53.7H160v-28.4c0-8.2,4.4-10.9,9.2-10.9
	c4.6,0,8.7,3.6,8.8,10.3v29h15.8v-28.4C193.9,313.1,198,310,203,310L203,310z"/>
</svg>
