<svg xmlns="http://www.w3.org/2000/svg" version="1.1" viewBox="-5.0 -10.0 110.0 135.0">
 <g>
  <path fill="#FDA800" d="m39.062 9.375h-26.562c-1.7188 0-3.125 1.4062-3.125 3.125v9.375h28.125zm-23.438 7.8125c-0.85938 0-1.5625-0.70312-1.5625-1.5625s0.70312-1.5625 1.5625-1.5625 1.5625 0.70312 1.5625 1.5625-0.70312 1.5625-1.5625 1.5625zm7.8125 0c-0.85938 0-1.5625-0.70312-1.5625-1.5625s0.70312-1.5625 1.5625-1.5625 1.5625 0.70312 1.5625 1.5625-0.70312 1.5625-1.5625 1.5625zm7.8125 0c-0.85938 0-1.5625-0.70312-1.5625-1.5625s0.70312-1.5625 1.5625-1.5625 1.5625 0.70312 1.5625 1.5625-0.70312 1.5625-1.5625 1.5625z"/>
  <path fill="#FDA800" d="m87.5 9.375h-45.328v0.39062l-1.5156 12.109h49.969v-9.375c0-1.7188-1.4062-3.125-3.125-3.125z"/>
  <path fill="#FDA800" d="m9.375 25v62.5c0 1.7188 1.4062 3.125 3.125 3.125h75c1.7188 0 3.125-1.4062 3.125-3.125v-62.5zm65.625 18.75c0 0.85938-0.70312 1.5625-1.5625 1.5625h-6.25c-0.85938 0-1.5625-0.70312-1.5625-1.5625s0.70312-1.5625 1.5625-1.5625h6.25c0.85938 0 1.5625 0.70312 1.5625 1.5625zm-6.25 9.375c0 0.85938-0.70312 1.5625-1.5625 1.5625h-3.125c-0.85938 0-1.5625-0.70312-1.5625-1.5625s0.70312-1.5625 1.5625-1.5625h3.125c0.85938 0 1.5625 0.70312 1.5625 1.5625zm-7.8125-20.312h9.375c0.85938 0 1.5625 0.70312 1.5625 1.5625s-0.70312 1.5625-1.5625 1.5625h-9.375c-0.85938 0-1.5625-0.70312-1.5625-1.5625s0.70312-1.5625 1.5625-1.5625zm-9.375 0h3.125c0.85938 0 1.5625 0.70312 1.5625 1.5625s-0.70312 1.5625-1.5625 1.5625h-3.125c-0.85938 0-1.5625-0.70312-1.5625-1.5625s0.70312-1.5625 1.5625-1.5625zm-14.438 6.6719c-0.65625-0.54688-0.75-1.5312-0.20312-2.2031s1.5312-0.75 2.2031-0.20312l5.625 4.6875c0.35938 0.29688 0.5625 0.73438 0.5625 1.2031s-0.20312 0.90625-0.5625 1.2031l-5.625 4.6875c-0.29688 0.25-0.64062 0.35938-1 0.35938-0.45312 0-0.89062-0.1875-1.2031-0.5625-0.54688-0.65625-0.46875-1.6406 0.20312-2.2031l4.1875-3.4844zm-11.297 12.484 4.6875-18.75c0.20312-0.84375 1.0625-1.3438 1.8906-1.1406 0.84375 0.20312 1.3438 1.0625 1.1406 1.8906l-4.6875 18.75c-0.17188 0.70312-0.8125 1.1875-1.5156 1.1875-0.125 0-0.25 0-0.375-0.046875-0.84375-0.20312-1.3438-1.0625-1.1406-1.8906zm0.73438 8.9688h9.375c0.85938 0 1.5625 0.70312 1.5625 1.5625s-0.70312 1.5625-1.5625 1.5625h-9.375c-0.85938 0-1.5625-0.70312-1.5625-1.5625s0.70312-1.5625 1.5625-1.5625zm-9.375 9.375h9.375c0.85938 0 1.5625 0.70312 1.5625 1.5625s-0.70312 1.5625-1.5625 1.5625h-9.375c-0.85938 0-1.5625-0.70312-1.5625-1.5625s0.70312-1.5625 1.5625-1.5625zm-1.5625-7.8125c0-0.85938 0.70312-1.5625 1.5625-1.5625h3.125c0.85938 0 1.5625 0.70312 1.5625 1.5625s-0.70312 1.5625-1.5625 1.5625h-3.125c-0.85938 0-1.5625-0.70312-1.5625-1.5625zm-1.5625-19.531c0-0.46875 0.20312-0.90625 0.5625-1.2031l5.625-4.6875c0.65625-0.54688 1.6406-0.46875 2.2031 0.20312 0.54688 0.65625 0.46875 1.6406-0.20312 2.2031l-4.1875 3.4844 4.1875 3.4844c0.65625 0.54688 0.75 1.5312 0.20312 2.2031-0.3125 0.375-0.75 0.5625-1.2031 0.5625-0.35938 0-0.70312-0.125-1-0.35938l-5.625-4.6875c-0.35938-0.29688-0.5625-0.73438-0.5625-1.2031zm17.188 39.844h-14.062c-0.85938 0-1.5625-0.70312-1.5625-1.5625s0.70312-1.5625 1.5625-1.5625h14.062c0.85938 0 1.5625 0.70312 1.5625 1.5625s-0.70312 1.5625-1.5625 1.5625zm0-10.938c0-0.85938 0.70312-1.5625 1.5625-1.5625h14.062c0.85938 0 1.5625 0.70312 1.5625 1.5625s-0.70312 1.5625-1.5625 1.5625h-14.062c-0.85938 0-1.5625-0.70312-1.5625-1.5625zm9.375 10.938h-3.125c-0.85938 0-1.5625-0.70312-1.5625-1.5625s0.70312-1.5625 1.5625-1.5625h3.125c0.85938 0 1.5625 0.70312 1.5625 1.5625s-0.70312 1.5625-1.5625 1.5625zm15.625 0h-9.375c-0.85938 0-1.5625-0.70312-1.5625-1.5625s0.70312-1.5625 1.5625-1.5625h9.375c0.85938 0 1.5625 0.70312 1.5625 1.5625s-0.70312 1.5625-1.5625 1.5625zm0-9.375h-3.125c-0.85938 0-1.5625-0.70312-1.5625-1.5625s0.70312-1.5625 1.5625-1.5625h3.125c0.85938 0 1.5625 0.70312 1.5625 1.5625s-0.70312 1.5625-1.5625 1.5625zm0-9.375h-14.062c-0.85938 0-1.5625-0.70312-1.5625-1.5625s0.70312-1.5625 1.5625-1.5625h14.062c0.85938 0 1.5625 0.70312 1.5625 1.5625s-0.70312 1.5625-1.5625 1.5625zm1.5625-9.375h-6.25c-0.85938 0-1.5625-0.70312-1.5625-1.5625s0.70312-1.5625 1.5625-1.5625h6.25c0.85938 0 1.5625 0.70312 1.5625 1.5625s-0.70312 1.5625-1.5625 1.5625zm3.125-9.375h-9.375c-0.85938 0-1.5625-0.70312-1.5625-1.5625s0.70312-1.5625 1.5625-1.5625h9.375c0.85938 0 1.5625 0.70312 1.5625 1.5625s-0.70312 1.5625-1.5625 1.5625zm23.438 34.375c0 1.7188-1.4062 3.125-3.125 3.125h-15.625c-1.7188 0-3.125-1.4062-3.125-3.125v-15.625c0-1.7188 1.4062-3.125 3.125-3.125h15.625c1.7188 0 3.125 1.4062 3.125 3.125zm-1.5625-25h-9.375c-0.85938 0-1.5625-0.70312-1.5625-1.5625s0.70312-1.5625 1.5625-1.5625h9.375c0.85938 0 1.5625 0.70312 1.5625 1.5625s-0.70312 1.5625-1.5625 1.5625zm0-9.375h-3.125c-0.85938 0-1.5625-0.70312-1.5625-1.5625s0.70312-1.5625 1.5625-1.5625h3.125c0.85938 0 1.5625 0.70312 1.5625 1.5625s-0.70312 1.5625-1.5625 1.5625zm0-9.375h-6.25c-0.85938 0-1.5625-0.70312-1.5625-1.5625s0.70312-1.5625 1.5625-1.5625h6.25c0.85938 0 1.5625 0.70312 1.5625 1.5625s-0.70312 1.5625-1.5625 1.5625z"/>
 </g>
</svg>