<svg xmlns="http://www.w3.org/2000/svg" data-name="Layer 1" viewBox="0 0 64 80" x="0px" y="0px">
<circle fill="#FDA800" cx="18" cy="14" r="6"/>
<circle fill="#FDA800" cx="14" cy="49" r="4"/>
<circle fill="#FDA800" cx="32" cy="49" r="4"/>
<circle fill="#FDA800" cx="50" cy="49" r="4"/>

<path fill="#FDA800" d="M50,53c-4.07,0-7.44,3.06-7.93,7h-2.14c-.49-3.94-3.86-7-7.93-7s-7.44,3.06-7.93,7h-2.14c-.49-3.94-3.86-7-7.93-7s-7.44,3.06-7.93,7H2v2H62v-2h-4.07c-.49-3.94-3.86-7-7.93-7Z"/>
<path fill="#FDA800" d="M29,43h28c.55,0,1-.45,1-1V3c0-.55-.45-1-1-1H29c-.55,0-1,.45-1,1v13.52l-1.89,1.51c-1.59,1.27-3.59,1.97-5.62,1.97h-3.9c-4.41,0-8.37,2.62-10.11,6.67l-2.48,5.79c-.35,.81-.32,1.72,.07,2.51,.39,.79,1.1,1.36,1.96,1.58,1.48,.37,3-.43,3.53-1.85l.44-1.17v8.49c0,.55,.45,1,1,1h14c.55,0,1-.45,1-1v-15.12c0-.28,.12-.55,.33-.74l1.67-1.52v17.38c0,.55,.45,1,1,1Zm1-20.19l5.5-5c1.05-.95,1.24-2.51,.45-3.69-.44-.66-1.15-1.11-1.93-1.23-.79-.12-1.59,.09-2.22,.59l-1.8,1.44V4h26V41H30V22.81Z"/>
<polygon fill="#FDA800" points="50 13 49 13 49 6 47 6 47 13 46 13 46 10 44 10 44 13 43 13 43 8 41 8 41 13 40 13 40 12 38 12 38 13 37 13 37 15 50 15 50 13"/>
<path fill="#FDA800" d="M43,17c-6.07,0-11,4.93-11,11s4.93,11,11,11,11-4.93,11-11-4.93-11-11-11Zm-1,10.62l-5.68,6.39c-1.44-1.6-2.32-3.7-2.32-6.01,0-4.62,3.51-8.44,8-8.94v8.56Z"/></svg>