<svg xmlns="http://www.w3.org/2000/svg" xmlns:xlink="http://www.w3.org/1999/xlink" version="1.1" x="0px" y="0px" viewBox="0 0 100 125" xml:space="preserve"><path fill="#FDA800" d="M89.9,2H9.1C5.2,2,2,5.2,2,9.1v81.8C2,94.8,5.2,98,9.1,98h80.8c3.9,0,7.1-3.2,7.1-7.1V9.1C97,5.2,93.8,2,89.9,2z M49,22.5  c9,0,17.8,2.7,25.1,7.3l-5.9,9C62.5,35,56,32.5,49,31.6V22.5z M4.7,54.1c3.3-9.5,9.6-17.5,17.6-23.2l2.8,4.4  C16.6,39.2,9.4,45.8,4.7,54.1z M24.4,29.4c6.4-4,13.6-6.4,21.6-6.9v8.8c-1-0.1-1.7-0.1-2.6-0.1c-5.6,0-11,1.1-15.9,3L24.4,29.4z   M43.7,74.6c-1.7,0.9-3.8,0.3-4.6-1.4c-0.9-1.7-0.2-3.7,1.5-4.6c1.7-0.9,39.5-16.7,39.5-16.7S45.4,73.7,43.7,74.6z M84.5,58.3  c-3.2-7.2-8.1-13.4-14.2-18l6-9c8.5,6.1,14.8,15,17.9,25.4L84.5,58.3z"/></svg>