<svg xmlns="http://www.w3.org/2000/svg" version="1.1" viewBox="-5.0 -10.0 110.0 135.0">
 <path fill="#FDA800" d="m34.922 69.25-4.4688-16.691 10.32-6.5391 6.3594 23.738zm-18.41-2.6992c0.48828 1.8398 1.6992 3.3203 3.2383 4.2109s3.4219 1.1914 5.2695 0.69922l1.3906-0.37109h0.011719l5.3203-1.4297-4.25-15.879-6.7188 1.8008c-1.8398 0.48828-3.3203 1.6992-4.2109 3.2383-0.89062 1.5391-1.1914 3.4219-0.69922 5.2695zm26.758-23.512c0.011719 0.03125 0.019531 0.070313 0.03125 0.10938l8.1289 30.34c0.14062 0.53125 0.48828 0.94922 0.94141 1.2109 0.019531 0.011719 0.039062 0.03125 0.050781 0.039062 0.42969 0.23047 0.94922 0.30078 1.4609 0.16016 0.53906-0.14063 0.96094-0.48828 1.2109-0.92969h0.011719l-0.011719-0.011719c0.26172-0.44141 0.35156-0.98047 0.19922-1.5117l-3.2695-12.219-2.2617-8.4102-3.2695-12.219c-0.14063-0.53125-0.48828-0.94922-0.94141-1.2109-0.019531-0.011719-0.039062-0.03125-0.058593-0.039063-0.42969-0.21875-0.94922-0.30078-1.4492-0.16016-0.53125 0.14062-0.96094 0.48828-1.2188 0.94141-0.25 0.44141-0.33984 0.98047-0.19922 1.5117zm-14.5 30.723 2.8984 10.809 3.7812-1.0117-2.8984-10.809zm28.762-16.66c0.73047-0.19922 1.3203-0.67969 1.6719-1.2891 0.35938-0.60938 0.48047-1.3594 0.28125-2.0898-0.19922-0.73047-0.67188-1.3203-1.2891-1.6719-0.60937-0.35156-1.3594-0.46875-2.0898-0.28125l-2.8398 0.76172 1.4297 5.3398zm-44.109-45.98c-0.26953 0-0.51953 0.10938-0.69922 0.28906-0.17969 0.17969-0.28906 0.42188-0.28906 0.69922 0 0.26953 0.10938 0.51953 0.28906 0.69922 0.17969 0.17969 0.42188 0.28906 0.69922 0.28906 0.26953 0 0.51953-0.10938 0.69922-0.28906 0.17969-0.17969 0.28906-0.42188 0.28906-0.69922 0-0.26953-0.10938-0.51953-0.28906-0.69922-0.17969-0.17969-0.42969-0.28906-0.69922-0.28906zm-12.922 10.98h99v67.289c0 3.7891-3.1016 6.8906-6.8984 6.8906h-85.203c-3.7891 0-6.8906-3.1016-6.8906-6.8906l0.003907-67.289zm85.891 41.52-13.949-3.7383c-0.85156-0.21875-1.7305 0.28125-1.9492 1.1289-0.23047 0.85938 0.28125 1.7305 1.1289 1.9492l13.949 3.7383c0.85156 0.21875 1.7305-0.28125 1.9492-1.1289 0.23047-0.85156-0.26953-1.7305-1.1289-1.9492zm-0.82031-18.543-13.949 3.7383c-0.85156 0.23047-1.3594 1.1016-1.1289 1.9492 0.21875 0.85938 1.1016 1.3594 1.9492 1.1289l13.949-3.7383c0.85156-0.21875 1.3594-1.1016 1.1289-1.9492-0.21875-0.84766-1.0977-1.3555-1.9492-1.1289zm-20.199-3.168c0.62109 0.62109 1.6289 0.62109 2.2617 0l10.219-10.219c0.62109-0.62109 0.62109-1.6406 0-2.2617-0.62109-0.62109-1.6289-0.62109-2.2617 0l-10.219 10.219c-0.63281 0.62109-0.63281 1.6406 0 2.2617zm-52.602 23.012 0.66016 2.4492c0.71875 2.6914 2.4805 4.8516 4.7188 6.1406 2.2109 1.2812 4.8906 1.7305 7.5391 1.0586l2.9688 11.07v0.011719c0.19922 0.71875 0.64844 1.3086 1.2383 1.6914 0.039063 0.03125 0.078125 0.050781 0.12891 0.078125 0.64844 0.37109 1.4414 0.5 2.2109 0.30078h0.011719l4.3008-1.1602c0.78125-0.21094 1.3984-0.71094 1.7695-1.3594s0.5-1.4414 0.30078-2.2109l-2.8203-10.52 12.211 0.5 0.35938 1.3281c0.37109 1.3789 1.2695 2.4805 2.4219 3.1484 0.039063 0.019531 0.070313 0.039062 0.10938 0.058593 1.1016 0.60156 2.4219 0.80859 3.7305 0.48828 0.070313-0.019532 0.14062-0.03125 0.21094-0.050782 1.3281-0.39062 2.3789-1.2695 3.0391-2.3984v0.011719c0.67188-1.1602 0.89844-2.5586 0.53125-3.9414l-2.8594-10.68 2.8398-0.76172c1.5781-0.42188 2.8398-1.4609 3.6094-2.7812h-0.011719l0.011719-0.011719c0.76172-1.3203 1.0195-2.9297 0.60156-4.5117-0.42187-1.5781-1.4492-2.8398-2.7695-3.6094-1.3203-0.76953-2.9297-1.0195-4.5117-0.60156l-2.8398 0.76172-2.8594-10.68c-0.37109-1.3789-1.2695-2.4805-2.4219-3.1484-0.039063-0.019531-0.078125-0.039062-0.10938-0.058594-1.1289-0.62109-2.4883-0.82031-3.8281-0.46875-1.3789 0.37109-2.4805 1.2695-3.1484 2.4219-0.66016 1.1602-0.89062 2.5586-0.53125 3.9414l0.35938 1.3281-11.949 7.5703-8.0195 2.1484c-2.6914 0.71875-4.8516 2.4805-6.1406 4.7305-1.3438 2.2734-1.793 5.0234-1.0625 7.7148zm20.66-53.801c-0.26953 0-0.51953 0.10938-0.69922 0.28906-0.17969 0.17969-0.28125 0.42188-0.28125 0.69922 0 0.26953 0.10938 0.51953 0.28125 0.69922 0.17969 0.17969 0.42969 0.28906 0.69922 0.28906 0.26953 0 0.51953-0.10938 0.69922-0.28906 0.17969-0.17969 0.28906-0.42188 0.28906-0.69922 0-0.26953-0.10938-0.51953-0.28906-0.69922-0.17969-0.17969-0.42969-0.28906-0.69922-0.28906zm-10.008 0c-0.26953 0-0.51953 0.10938-0.69922 0.28906-0.17969 0.17969-0.28906 0.42188-0.28906 0.69922 0 0.26953 0.10938 0.51953 0.28906 0.69922 0.17969 0.17969 0.42188 0.28906 0.69922 0.28906 0.26953 0 0.51953-0.10938 0.69922-0.28906 0.17969-0.17969 0.28906-0.42188 0.28906-0.69922 0-0.26953-0.12109-0.51953-0.28906-0.69922-0.17969-0.17969-0.42969-0.28906-0.69922-0.28906zm76.078-0.51172v8.2891h-99v-8.2891c0-3.7891 3.1016-6.8984 6.8906-6.8984h85.211c3.7969 0 6.8984 3.1094 6.8984 6.8984zm-81.91 1.5c0-1.1602-0.46875-2.1992-1.2188-2.9492-0.76172-0.76172-1.8008-1.2305-2.9492-1.2305-1.1602 0-2.1992 0.46875-2.9492 1.2305-0.76172 0.76172-1.2305 1.8008-1.2305 2.9492s0.46875 2.1992 1.2305 2.9492c0.76172 0.76172 1.8008 1.2188 2.9492 1.2188s2.1992-0.46875 2.9492-1.2188c0.75781-0.75 1.2188-1.7969 1.2188-2.9492zm10.012 0c0-1.1602-0.46875-2.1992-1.2188-2.9492-0.76172-0.76172-1.8008-1.2305-2.9492-1.2305-1.1602 0-2.1992 0.46875-2.9492 1.2305-0.76172 0.76172-1.2305 1.8008-1.2305 2.9492s0.46875 2.1992 1.2305 2.9492c0.76172 0.76172 1.8008 1.2188 2.9492 1.2188 1.1484 0 2.1992-0.46875 2.9492-1.2188 0.74609-0.75 1.2188-1.7969 1.2188-2.9492zm10.008 0c0-1.1602-0.46875-2.1992-1.2188-2.9492-0.76172-0.76172-1.8008-1.2305-2.9492-1.2305-1.1602 0-2.1992 0.46875-2.9609 1.2305-0.76172 0.76172-1.2188 1.8008-1.2188 2.9492s0.46875 2.1992 1.2188 2.9492c0.76172 0.76172 1.8008 1.2188 2.9609 1.2188 1.1484 0 2.1992-0.46875 2.9492-1.2188s1.2188-1.7969 1.2188-2.9492zm53.16 0c0-0.87891-0.71875-1.5898-1.6016-1.5898h-44.656c-0.87891 0-1.6016 0.71094-1.6016 1.5898s0.71875 1.5898 1.6016 1.5898h44.648c0.89062 0.011719 1.6094-0.71094 1.6094-1.5898z"/></svg>