<svg xmlns="http://www.w3.org/2000/svg" xmlns:xlink="http://www.w3.org/1999/xlink" version="1.1" x="0px" y="0px" viewBox="0 0 32 40" enable-background="new 0 0 32 32" xml:space="preserve"><g>
<path fill="#FDA800" d="M4,17H2v12h2c0.5523071,0,1-0.4477539,1-1V18C5,17.4476929,4.5523071,17,4,17z"/>
<path fill="#FDA800" d="M9,17.0014648V5c0-1.1030273,0.8969727-2,2-2h10c1.1030273,0,2,0.8969727,2,2v14.0423584l1-0.5376587V5   c0-1.6542969-1.3457031-3-3-3H11C9.3457031,2,8,3.3457031,8,5v12.0014648H9z"/>
<path fill="#FDA800" d="M28.8540039,18.3375244c-0.722168-0.4315796-1.597168-0.4501343-2.3364258-0.0507813l-6.5485229,3.5202637   C19.8161621,23.0401611,18.7736816,24.0007935,17.5,24.0007935h-4.0200195c-0.2763672,0-0.5-0.2235718-0.5-0.499939   c0-0.2763062,0.2236328-0.499939,0.5-0.499939H17.5c0.8271484,0,1.5-0.6727295,1.5-1.4997559   c0-0.8113403-0.6486206-1.4703369-1.4541016-1.4951782c-0.2993164-0.003479-5.1318359-0.0046387-5.1318359-0.0046387   l-1.7070313-1.7067871c-0.1875-0.1875-0.4418945-0.2929077-0.7070313-0.2929077H6v10.0005493h1.765625L11,29.0001221   C12.34375,29.4321899,13.7810059,30,15.3735352,30c1.4399414,0,2.8588867-0.477478,4.0834961-1.4158325l9.5234375-6.3028564   C29.6186523,21.8438721,30,21.1213379,30,20.3499146C30,19.5170288,29.5717773,18.7651978,28.8540039,18.3375244z"/>
<path fill="#FDA800" d="M12.8286133,19.0014648c1.1782227,0.0004883,4.4824219,0.0014648,4.7285156,0.0043945   c1.1015625,0.0341797,2.0024414,0.7402344,2.3203125,1.715332L22,19.5800171V5c0-0.5523071-0.4476929-1-1-1h-3   c0,1.1045532-0.8954468,2-2,2s-2-0.8954468-2-2h-3c-0.5523071,0-1,0.4476929-1,1v12.0014648   c0.5341797,0,1.0361328,0.2080078,1.4140625,0.5859375L12.8286133,19.0014648z M18.1464844,11.854126   c-0.1953125-0.1953125-0.1953125-0.5117188,0-0.7070313s0.5117188-0.1953125,0.7070313,0l2,2   c0.1953125,0.1953125,0.1953125,0.5117188,0,0.7070313l-2,2C18.7558594,15.9517822,18.6279297,16.0006104,18.5,16.0006104   s-0.2558594-0.0488281-0.3535156-0.1464844c-0.1953125-0.1953125-0.1953125-0.5117188,0-0.7070313l1.6464844-1.6464844   L18.1464844,11.854126z M15.0151978,15.380127l1-4c0.0664063-0.2685547,0.3383789-0.4345703,0.605957-0.3637695   c0.2680664,0.0668945,0.4311523,0.3383789,0.3637695,0.605957l-1,4c-0.0566406,0.2275391-0.2602539,0.3789063-0.484375,0.3789063   c-0.0400391,0-0.0810547-0.0048828-0.121582-0.0151367C15.1109009,15.9191895,14.9478149,15.6477051,15.0151978,15.380127z    M11.1464844,13.1470947l2-2c0.1953125-0.1953125,0.5117188-0.1953125,0.7070313,0s0.1953125,0.5117188,0,0.7070313   l-1.6464844,1.6464844l1.6464844,1.6464844c0.1953125,0.1953125,0.1953125,0.5117188,0,0.7070313   C13.7558594,15.9517822,13.6279297,16.0006104,13.5,16.0006104s-0.2558594-0.0488281-0.3535156-0.1464844l-2-2   C10.9511719,13.6588135,10.9511719,13.3424072,11.1464844,13.1470947z"/></g>
</svg>