<svg xmlns="http://www.w3.org/2000/svg" viewBox="0 0 128 160" x="0px" y="0px"><g data-name="Solid">
<circle fill="#FDA800" cx="15.5" cy="15.5" r="2.25"/>
<circle fill="#FDA800" cx="31.5" cy="15.5" r="2.25"/>
<path fill="#FDA800" d="M2.25,114.5A11.263,11.263,0,0,0,13.5,125.75h101a11.263,11.263,0,0,0,11.25-11.25V29.25H2.25Zm69,0a3.755,3.755,0,0,1-3.75,3.75h-54a3.755,3.755,0,0,1-3.75-3.75v-40a3.755,3.755,0,0,1,3.75-3.75h54a3.755,3.755,0,0,1,3.75,3.75Zm47.25,3.75h-37a.75.75,0,0,1,0-1.5h37a.75.75,0,0,1,0,1.5Zm0-12h-37a.75.75,0,0,1,0-1.5h37a.75.75,0,0,1,0,1.5Zm0-12h-37a.75.75,0,0,1,0-1.5h37a.75.75,0,0,1,0,1.5Zm.75-12.75a3.755,3.755,0,0,1-3.75,3.75h-32a3.755,3.755,0,0,1-3.75-3.75v-7a3.755,3.755,0,0,1,3.75-3.75h32a3.755,3.755,0,0,1,3.75,3.75ZM8.75,40.5a3.755,3.755,0,0,1,3.75-3.75h103a3.755,3.755,0,0,1,3.75,3.75v17a3.755,3.755,0,0,1-3.75,3.75H12.5A3.755,3.755,0,0,1,8.75,57.5Z"/>
<circle fill="#FDA800" cx="23" cy="48" r="3.75"/>
<path fill="#FDA800" d="M12.5,59.75h103a2.253,2.253,0,0,0,2.25-2.25v-17a2.253,2.253,0,0,0-2.25-2.25H12.5a2.253,2.253,0,0,0-2.25,2.25v17A2.253,2.253,0,0,0,12.5,59.75ZM36.75,43.5a.75.75,0,0,1,1.5,0v11a.75.75,0,0,1-1.5,0ZM23,42.75a5.226,5.226,0,0,1,3.336,9.269l1.3,2.084a.751.751,0,1,1-1.274.794l-1.295-2.075A5.249,5.249,0,1,1,23,42.75Z"/>
<path fill="#FDA800" d="M114.5,2.25H13.5A11.263,11.263,0,0,0,2.25,13.5V27.75h123.5V13.5A11.263,11.263,0,0,0,114.5,2.25Zm-99,17a3.75,3.75,0,1,1,3.75-3.75A3.755,3.755,0,0,1,15.5,19.25Zm16,0a3.75,3.75,0,1,1,3.75-3.75A3.755,3.755,0,0,1,31.5,19.25Zm16,0a3.75,3.75,0,1,1,3.75-3.75A3.755,3.755,0,0,1,47.5,19.25Zm64,0h-16a3.75,3.75,0,0,1,0-7.5h16a3.75,3.75,0,0,1,0,7.5Z"/>
<path fill="#FDA800" d="M111.5,13.25h-16a2.25,2.25,0,0,0,0,4.5h16a2.25,2.25,0,0,0,0-4.5Z"/>
<circle fill="#FDA800" cx="47.5" cy="15.5" r="2.25"/>
<path fill="#FDA800" d="M57.654,93.913l-7.455,6.5a6.776,6.776,0,0,1-8.872,0L26,87.048a5.232,5.232,0,0,0-7.056.141L11.25,94.462V114.5a2.253,2.253,0,0,0,2.25,2.25h54a2.253,2.253,0,0,0,2.25-2.25V99.412l-4.815-5.134A5.234,5.234,0,0,0,57.654,93.913Z"/>
<circle fill="#FDA800" cx="46" cy="82" r="3.75"/>
<rect fill="#FDA800" x="81.25" y="72.25" width="36.5" height="11.5" rx="2.25"/>
<path fill="#FDA800" d="M67.5,72.25h-54a2.253,2.253,0,0,0-2.25,2.25V92.4l6.662-6.3a6.725,6.725,0,0,1,9.073-.183L42.313,99.282a5.263,5.263,0,0,0,6.9,0l7.455-6.5a6.727,6.727,0,0,1,9.36.471l3.722,3.968V74.5A2.253,2.253,0,0,0,67.5,72.25ZM46,87.25A5.25,5.25,0,1,1,51.25,82,5.256,5.256,0,0,1,46,87.25Z"/></g></svg>