<svg xmlns="http://www.w3.org/2000/svg" xmlns:xlink="http://www.w3.org/1999/xlink" version="1.1" x="0px" y="0px" viewBox="0 0 66 82.5" xml:space="preserve">
<path fill="#FDA800" d="M14.27,42.63h20.87c0.47,0,0.86-0.39,0.86-0.86V2.24c0-0.47-0.39-0.86-0.86-0.86H14.27c-0.47,0-0.86,0.39-0.86,0.86v39.53  C13.41,42.25,13.8,42.63,14.27,42.63z M24.71,39.03c-2.37,0-4.29-1.92-4.29-4.28c0-2.37,1.92-4.29,4.29-4.29S29,32.38,29,34.75  C29,37.11,27.07,39.03,24.71,39.03z M16.56,5.39c0-0.8,0.65-1.45,1.45-1.45h13.4c0.8,0,1.45,0.65,1.45,1.45V8.9  c0,0.8-0.65,1.45-1.45,1.45h-13.4c-0.8,0-1.45-0.65-1.45-1.45V5.39z M16.56,14.01c0-0.8,0.65-1.45,1.45-1.45h13.4  c0.8,0,1.45,0.65,1.45,1.45v3.51c0,0.8-0.65,1.45-1.45,1.45h-13.4c-0.8,0-1.45-0.65-1.45-1.45V14.01z M16.56,22.64  c0-0.8,0.65-1.45,1.45-1.45h13.4c0.8,0,1.45,0.65,1.45,1.45v3.51c0,0.8-0.65,1.45-1.45,1.45h-13.4c-0.8,0-1.45-0.65-1.45-1.45V22.64  z"/>
<path fill="#FDA800" d="M44.1,25.91c0.14,0.55,0.36,1.09,0.67,1.59c0.19,0.31,0.19,0.69,0.01,1.01l-0.77,1.35l0.52,0.52l1.34-0.76  c0.31-0.18,0.69-0.17,1,0.01c0.51,0.3,1.07,0.53,1.62,0.67c0.35,0.09,0.62,0.36,0.71,0.7l0.41,1.49h0.74L50.78,31  c0.1-0.34,0.37-0.61,0.71-0.7c0.55-0.14,1.1-0.37,1.62-0.68c0.31-0.18,0.69-0.19,1-0.01l1.34,0.77l0.52-0.52l-0.77-1.35  c-0.18-0.31-0.17-0.69,0.01-1c0.3-0.51,0.53-1.05,0.67-1.62c0.09-0.35,0.36-0.62,0.7-0.72l1.49-0.41v-0.74l-1.49-0.41  c-0.34-0.09-0.61-0.37-0.7-0.71c-0.14-0.56-0.37-1.1-0.68-1.62c-0.18-0.31-0.19-0.69-0.01-1.01l0.77-1.34l-0.52-0.52l-1.35,0.77  c-0.31,0.18-0.69,0.17-1-0.01c-0.5-0.3-1.04-0.52-1.62-0.67c-0.35-0.09-0.62-0.36-0.71-0.7l-0.41-1.49h-0.73l-0.41,1.49  c-0.1,0.34-0.37,0.61-0.71,0.7c-0.56,0.14-1.12,0.38-1.61,0.68c-0.31,0.18-0.69,0.19-1.01,0.01l-1.35-0.77l-0.52,0.52l0.77,1.35  c0.18,0.32,0.17,0.7-0.01,1.01c-0.3,0.49-0.52,1.03-0.67,1.61c-0.09,0.35-0.36,0.62-0.7,0.71l-1.49,0.41v0.74l1.49,0.41  C43.75,25.28,44.02,25.56,44.1,25.91z M50,21.9c1.38,0,2.5,1.12,2.5,2.5c0,1.38-1.12,2.5-2.5,2.5c-1.38,0-2.5-1.12-2.5-2.5  C47.5,23.02,48.62,21.9,50,21.9z"/>
<rect fill="#FDA800" x="18.56" y="14.56" width="12.3" height="2.42"/>
<path fill="#FDA800" d="M42.45,44.12c0.11,0.45,0.3,0.89,0.55,1.31c0.19,0.31,0.19,0.69,0.01,1.01l-0.59,1.05l0.28,0.28l1.04-0.59  c0.31-0.18,0.69-0.17,1,0.01c0.42,0.24,0.88,0.44,1.34,0.56c0.35,0.09,0.62,0.36,0.71,0.7l0.32,1.15h0.4l0.32-1.15  c0.1-0.34,0.37-0.61,0.71-0.7c0.46-0.12,0.91-0.31,1.33-0.56c0.31-0.18,0.7-0.19,1.01-0.01l1.04,0.59l0.28-0.28l-0.59-1.05  c-0.18-0.31-0.17-0.69,0.01-1c0.25-0.42,0.43-0.86,0.55-1.33c0.09-0.35,0.36-0.62,0.7-0.71l1.16-0.32v-0.39l-1.16-0.32  c-0.34-0.09-0.61-0.37-0.7-0.71c-0.12-0.46-0.31-0.91-0.56-1.33c-0.18-0.31-0.19-0.69-0.01-1.01l0.59-1.04l-0.28-0.28l-1.05,0.59  c-0.31,0.18-0.69,0.17-1-0.01c-0.41-0.25-0.86-0.43-1.33-0.55c-0.34-0.09-0.62-0.36-0.71-0.7l-0.32-1.15h-0.39l-0.32,1.15  c-0.1,0.34-0.37,0.61-0.71,0.7c-0.46,0.12-0.92,0.31-1.33,0.56c-0.31,0.18-0.69,0.19-1.01,0.01l-1.05-0.6l-0.28,0.28l0.6,1.05  c0.18,0.32,0.17,0.7-0.01,1.01c-0.25,0.4-0.43,0.85-0.56,1.33c-0.09,0.35-0.36,0.62-0.7,0.71l-1.15,0.32v0.4l1.16,0.32  C42.09,43.49,42.36,43.77,42.45,44.12z M47.31,40.88c1.1,0,2,0.9,2,2c0,1.11-0.9,2-2,2c-1.11,0-2-0.9-2-2  C45.3,41.77,46.2,40.88,47.31,40.88z"/>
<path fill="#FDA800" d="M24.71,32.46c-1.26,0-2.29,1.03-2.29,2.29c0,1.26,1.03,2.28,2.29,2.28S27,36.01,27,34.75C27,33.48,25.97,32.46,24.71,32.46z  "/>
<rect fill="#FDA800" x="18.56" y="5.93" width="12.3" height="2.42"/>
<rect fill="#FDA800" x="18.56" y="23.19" width="12.3" height="2.42"/>
<path fill="#FDA800" d="M40.42,54.78v3.17c0,1.15-0.94,2.08-2.08,2.08H27.67c-1.15,0-2.08-0.94-2.08-2.08v-3.17H3.53H1v7.79  c0,1.13,0.92,2.05,2.05,2.05h59.91c1.13,0,2.05-0.92,2.05-2.05v-7.79h-2.53H40.42z"/>
<path fill="#FDA800" d="M27.67,58.03h10.67c0.05,0,0.08-0.04,0.08-0.08v-3.17H27.58v3.17C27.58,58,27.62,58.03,27.67,58.03z"/>
<path fill="#FDA800" d="M39.42,52.78h22.05V15.2c0-1.33-1.08-2.41-2.41-2.41H38v28.98c0,1.58-1.28,2.86-2.86,2.86H14.27  c-1.58,0-2.86-1.28-2.86-2.86V12.79H6.94c-1.33,0-2.41,1.08-2.41,2.41v37.58h22.05H39.42z M39.9,23.93c0-0.84,0.56-1.58,1.37-1.8  l1.05-0.29c0.12-0.36,0.27-0.72,0.44-1.05l-0.54-0.95c-0.42-0.73-0.29-1.65,0.3-2.25l0.66-0.66c0.59-0.59,1.52-0.72,2.24-0.3  l0.96,0.54c0.34-0.17,0.69-0.32,1.05-0.44l0.29-1.05c0.22-0.81,0.96-1.37,1.8-1.37h0.93c0.84,0,1.58,0.56,1.8,1.37l0.29,1.05  c0.36,0.12,0.71,0.27,1.05,0.43l0.96-0.54c0.73-0.41,1.65-0.29,2.24,0.3l0.66,0.66c0.59,0.59,0.72,1.52,0.3,2.25l-0.54,0.95  c0.17,0.34,0.32,0.69,0.44,1.05l1.06,0.29c0.81,0.22,1.37,0.96,1.37,1.8v0.94c0,0.84-0.56,1.58-1.37,1.8l-1.06,0.29  c-0.12,0.36-0.27,0.71-0.44,1.05l0.54,0.96c0.41,0.73,0.28,1.65-0.31,2.24l-0.66,0.66c-0.59,0.59-1.52,0.72-2.25,0.3l-0.95-0.54  c-0.34,0.17-0.69,0.32-1.05,0.44l-0.29,1.05c-0.22,0.81-0.96,1.37-1.8,1.37h-0.94c-0.84,0-1.58-0.56-1.8-1.37l-0.29-1.05  c-0.36-0.12-0.71-0.27-1.05-0.44l-0.95,0.54c-0.73,0.41-1.65,0.29-2.24-0.3l-0.66-0.66c-0.59-0.59-0.72-1.51-0.3-2.24l0.54-0.96  c-0.17-0.34-0.32-0.69-0.44-1.05l-1.05-0.29c-0.81-0.22-1.37-0.96-1.37-1.8V23.93z M38.59,42.48c0-0.78,0.52-1.47,1.27-1.67  l0.81-0.23c0.09-0.26,0.2-0.52,0.32-0.76l-0.42-0.74c-0.39-0.68-0.27-1.54,0.28-2.09l0.56-0.56c0.55-0.55,1.41-0.67,2.09-0.28  l0.74,0.42c0.25-0.12,0.5-0.23,0.76-0.32l0.23-0.82c0.21-0.75,0.9-1.27,1.67-1.27h0.79c0.78,0,1.47,0.52,1.67,1.27l0.23,0.81  c0.26,0.09,0.51,0.2,0.76,0.32l0.74-0.42c0.67-0.38,1.53-0.27,2.08,0.28l0.56,0.56c0.55,0.55,0.67,1.41,0.28,2.09l-0.42,0.73  c0.12,0.25,0.23,0.5,0.32,0.76l0.82,0.23c0.75,0.21,1.28,0.89,1.28,1.67v0.8c0,0.78-0.52,1.47-1.28,1.67l-0.82,0.23  c-0.09,0.26-0.2,0.51-0.32,0.76l0.42,0.74c0.38,0.68,0.27,1.53-0.28,2.08l-0.56,0.56c-0.55,0.55-1.41,0.67-2.09,0.28l-0.73-0.42  c-0.25,0.12-0.5,0.23-0.76,0.32l-0.23,0.82c-0.21,0.75-0.89,1.27-1.67,1.27h-0.8c-0.78,0-1.47-0.52-1.67-1.27l-0.23-0.82  c-0.26-0.09-0.51-0.2-0.76-0.31l-0.74,0.42c-0.68,0.38-1.54,0.27-2.08-0.28l-0.56-0.56c-0.55-0.55-0.67-1.4-0.28-2.08L41,45.93  c-0.12-0.25-0.23-0.5-0.32-0.76l-0.82-0.23c-0.75-0.21-1.28-0.89-1.28-1.67V42.48z"/></svg>