<svg xmlns="http://www.w3.org/2000/svg" version="1.1" viewBox="-5.0 -10.0 110.0 135.0">
 <path fill="#FDA800" d="m47.395 35.668 0.46094-0.23438 2.6562-1.3594 4.2266 4.2266-1.3555 2.6602-0.23437 0.46094c0.84375 1.4023 1.4766 2.9258 1.8711 4.5156l0.48828 0.15625 2.8438 0.92188v5.9727l-2.8438 0.91797-0.48828 0.16406c-0.39844 1.5859-1.0273 3.1094-1.8711 4.5156l0.23437 0.46094 1.3555 2.6602-2.1094 2.1094-2.1133 2.1094-2.6562-1.3555-0.46094-0.23437-0.003907 0.003906c-1.4023 0.83984-2.9258 1.4688-4.5156 1.8672l-0.15625 0.49219-0.92188 2.8438-5.9727-0.003907-0.92188-2.8438-0.15625-0.49219-0.003906 0.003906c-1.5898-0.39453-3.1133-1.0273-4.5156-1.8672l-0.46094 0.23438-2.6602 1.3516-4.2109-4.2188 1.3555-2.6602 0.23438-0.46094c-0.84375-1.4062-1.4727-2.9297-1.8711-4.5156l-0.49219-0.16406-2.8359-0.91797v-5.9727l2.8359-0.92188 0.49219-0.15625c0.39453-1.5898 1.0234-3.1133 1.8711-4.5156l-0.23438-0.46094-1.3555-2.6602 2.1055-2.1172 2.1055-2.1094 2.6562 1.3594 0.46094 0.23438h0.003907c1.4023-0.84766 2.9258-1.4766 4.5156-1.875l0.15625-0.49219 0.92188-2.8359h5.9727l0.92188 2.8438 0.15625 0.49219h0.003906c1.5898 0.39453 3.1133 1.0273 4.5156 1.8711zm17.352-10.527c0.039062-0.28125 0.18359-0.53516 0.41016-0.70703 0.22266-0.17578 0.50781-0.25 0.78906-0.21484 0.58594 0.078125 1 0.61719 0.92188 1.2031l-0.64063 4.8438v-0.003906c-0.023437 0.30859-0.17578 0.58984-0.42578 0.77734-0.23828 0.18359-0.54297 0.25391-0.83984 0.19922l-4.8438-0.64453c-0.28125-0.039062-0.53516-0.18359-0.70703-0.41016-0.17578-0.22656-0.25-0.50781-0.21484-0.78906 0.078126-0.58594 0.61719-1 1.2031-0.92188l2.2031 0.29297h-0.003906c-5.1445-5.7266-12.195-9.3906-19.84-10.312-7.6484-0.91797-15.367 0.96484-21.727 5.3086-6.3594 4.3398-10.926 10.844-12.852 18.297-0.15625 0.5625-0.73047 0.89453-1.293 0.75-0.56641-0.14062-0.91016-0.71094-0.78125-1.2773 2.0586-8 6.9688-14.977 13.805-19.613 6.8359-4.6406 15.133-6.625 23.328-5.5781 8.1953 1.043 15.727 5.043 21.184 11.25zm10.762 35.984h6.7578v7.1328h-6.7578v-2.4883h-10.547c-0.32813 0-0.63672-0.15234-0.84375-0.40625l-3.5625-4.4961c-0.36719-0.46484-0.28906-1.1367 0.17187-1.5078 0.46484-0.36719 1.1406-0.28906 1.5078 0.17578l3.2383 4.0898h10.035zm12.617-9.0391h6.7578v7.1328h-6.7578v-2.4922h-19.98c-0.28906 0.011719-0.57031-0.097656-0.78125-0.30078-0.20703-0.20312-0.32812-0.48438-0.32812-0.77344 0-0.29297 0.12109-0.57031 0.32812-0.77344 0.21094-0.20312 0.49219-0.3125 0.78125-0.30078h19.98zm0-11.305h6.7578v7.1328h-6.7578v-2.4922h-19.98c-0.28906 0.011719-0.57031-0.097656-0.77734-0.30078-0.21094-0.20312-0.32813-0.48047-0.32813-0.76953 0-0.29297 0.11719-0.57031 0.32813-0.77344 0.20703-0.20312 0.48828-0.30859 0.77734-0.30078h19.98zm-12.617-9.043h6.7578v7.1367h-6.7578v-2.4922h-10.035l-3.2383 4.0859 0.003906-0.003906c-0.37109 0.45703-1.0391 0.53125-1.4961 0.16797-0.46094-0.36328-0.54297-1.0312-0.18359-1.4961l3.5625-4.4961c0.20312-0.25781 0.51172-0.40625 0.83984-0.40625h10.547zm-70.391 20.633 0.019531 0.23828 0.015625 0.21875 0.019531 0.21094 0.015625 0.21094 0.023438 0.21875 0.019531 0.21094 0.03125 0.21484 0.046875 0.42188 0.03125 0.26172 2.1328-0.29688-0.03125-0.23438-0.023437-0.19922-0.027344-0.19531-0.023437-0.20312-0.058594-0.59766-0.03125-0.40625-0.019532-0.22266zm0.59375 4.3945 0.054687 0.27734 0.046875 0.21094 0.046875 0.20312 0.046875 0.21094 0.050781 0.20312 0.046875 0.21094 0.050782 0.20312 0.054687 0.20312 0.050781 0.20312 0.066406 0.24219 2.0703-0.57422-0.0625-0.21875-0.046875-0.19141-0.050781-0.1875-0.046875-0.19141-0.046875-0.20312-0.042969-0.1875-0.046875-0.19141-0.042969-0.19141-0.039062-0.19141-0.058594-0.26953zm1.1562 4.2773 0.082031 0.23438 0.070312 0.19922 0.14062 0.38281 0.070313 0.19922 0.074219 0.19141 0.078124 0.19531 0.14844 0.38281 0.12109 0.28906 1.9805-0.84375-0.11328-0.26953-0.14062-0.35938-0.0625-0.17188-0.070312-0.18359-0.066406-0.18359-0.070313-0.18359-0.13281-0.36719-0.074218-0.21875zm1.7188 4.0938 0.066406 0.125 0.097656 0.18359 0.089844 0.18359 0.19531 0.36719 0.097656 0.17969 0.10547 0.18359 0.097657 0.17578 0.21094 0.35938 0.11719 0.19922 1.8477-1.0898-0.10547-0.17578-0.097656-0.16797-0.089844-0.16797-0.097656-0.16797-0.17969-0.33594-0.089844-0.17188-0.085937-0.16797-0.089844-0.17188-0.14844-0.30078zm2.2344 3.8242 0.12109 0.17969 0.11328 0.16797 0.11719 0.16797 0.12109 0.16797 0.11719 0.16016 0.12109 0.16797 0.11719 0.16406 0.12109 0.16797 0.12891 0.16016 0.12109 0.16016 0.10547 0.13281 1.6953-1.3203-0.089843-0.12109-0.23438-0.30469-0.22656-0.30469-0.22656-0.3125-0.11328-0.15234-0.11328-0.15625-0.10547-0.15625-0.11719-0.16797zm2.7148 3.5 0.17188 0.19922 0.13672 0.15234 0.13672 0.14844 0.13672 0.15234 0.14062 0.14844 0.13672 0.14453 0.28125 0.29688 0.375 0.375 1.5078-1.5273-0.21094-0.21094-0.13281-0.13672-0.26172-0.27344-0.13281-0.13672-0.13281-0.14062-0.12891-0.13672-0.13281-0.14062-0.125-0.14062-0.16797-0.1875zm3.1445 3.125 0.22656 0.19922 0.15234 0.13281 0.15625 0.13281 0.15625 0.125 0.15625 0.13281 0.15625 0.12891 0.16016 0.125 0.15625 0.12891 0.16016 0.125 0.22656 0.17188 1.293-1.7109-0.21094-0.16016-0.14844-0.11719-0.15234-0.11719-0.14844-0.12109-0.14844-0.11719-0.15234-0.12109-0.14062-0.12109-0.14844-0.12109-0.14844-0.125-0.21875-0.1875zm3.5273 2.6914 0.12109 0.082031 0.16797 0.11328 0.17188 0.11328 0.17188 0.10547 0.17188 0.11328 0.17969 0.10547 0.34375 0.21094 0.35938 0.21094 0.20312 0.11719 1.0586-1.8711-0.18359-0.10547-0.16406-0.097656-0.16797-0.097656-0.16016-0.10547-0.16016-0.097656-0.16797-0.10547-0.15625-0.10547-0.32031-0.21094-0.27734-0.1875zm3.8398 2.2109 0.19922 0.097657 0.1875 0.085937 0.1875 0.089844 0.18359 0.085937 0.1875 0.082032 0.19141 0.085937 0.1875 0.085937 0.375 0.16406 0.32422 0.13281 0.8125-1.9883-0.30078-0.12109-0.17578-0.074218-0.17969-0.078125-0.17187-0.082031-0.17969-0.074219-0.17578-0.082031-0.17188-0.082032-0.17969-0.082031-0.17188-0.085937-0.1875-0.089844zm4.1055 1.6836 0.31641 0.10547 0.19922 0.058594 0.19922 0.066406 0.19922 0.0625 0.20312 0.0625 0.19922 0.054687 0.20312 0.0625 0.19922 0.054688 0.20312 0.054687 0.20312 0.050782 0.54688-2.0742-0.375-0.10156-0.19141-0.054687-0.1875-0.050781-0.375-0.10938-0.18359-0.0625-0.1875-0.054687-0.1875-0.0625-0.30469-0.10547zm4.2891 1.1289 0.30469 0.054688 0.21094 0.042969 0.63281 0.10547 0.84375 0.125 0.20312 0.023438 0.26953-2.1289-0.1875-0.027344-0.39844-0.046875-0.39844-0.0625-0.19922-0.035157-0.19141-0.03125-0.19922-0.035156-0.19141-0.035156-0.29297-0.054688zm4.4023 0.55469 0.15234 0.007812 0.21875 0.011719 0.21875 0.015625h0.21875l0.21875 0.011719h1.1797l-0.011719-2.1445h-0.70312l-0.21094-0.003906h-0.20312l-0.20312-0.011718h-0.20312l-0.20312-0.007813-0.20312-0.011719-0.15625-0.011718zm4.4297-0.011719c0.73828-0.050781 1.4727-0.12109 2.2031-0.22266l-0.28516-2.125c-0.69141 0.089844-1.375 0.15625-2.0703 0.21094zm4.3906-0.58203c0.72656-0.14844 1.4453-0.31641 2.1602-0.50781l-0.5625-2.0742c-0.66797 0.18359-1.3438 0.33984-2.0234 0.47656zm4.2773-1.1562c0.69922-0.23828 1.3906-0.50391 2.0742-0.78516l-0.83203-1.9844c-0.64062 0.26953-1.2812 0.51172-1.9414 0.73828zm4.0938-1.7109c0.66016-0.32812 1.3086-0.67969 1.9492-1.0508l-1.082-1.8555c-0.59766 0.34766-1.207 0.67188-1.832 0.98438zm3.832-2.2266c0.61328-0.41797 1.2148-0.84766 1.7969-1.2969l-1.3164-1.6953c-0.54688 0.42188-1.1094 0.82812-1.6836 1.2109zm3.5117-2.7109c0.55078-0.48438 1.0898-0.99219 1.6133-1.5156l-1.5195-1.5195c-0.49219 0.49219-0.99609 0.96875-1.5195 1.4258zm3.125-3.1406c0.48828-0.55859 0.95312-1.125 1.4062-1.7148l-1.707-1.3047c-0.42188 0.55469-0.86328 1.0859-1.3203 1.6094zm-25.695-31.195c3.5938 0 6.832 2.1641 8.2031 5.4805 1.375 3.3203 0.61719 7.1367-1.9219 9.6758-2.5391 2.5391-6.3594 3.3008-9.6758 1.9258-3.3203-1.375-5.4844-4.6133-5.4844-8.2031 0.003906-4.9023 3.9766-8.8789 8.8789-8.8789z" fill-rule="evenodd"/>
</svg>