<svg xmlns="http://www.w3.org/2000/svg" data-name="Layer 1" viewBox="0 0 100 125" x="0px" y="0px"><defs>
</defs>
    <path fill="#FDA800" class="cls-1" d="m54.339,72.72c3.126-.005,7.108.009,7.42.193l19.212,11.149c1.833.953,3.855-.072,3.851-2.128l-.015-6.72h-17.264c-1.98,0-3.596-1.616-3.596-3.596v-22.714c0-1.98,1.616-3.596,3.596-3.596h27.567c.308,0,.608.039.893.113l-.018-13.329c-.2.041-.405.063-.616.063h-28.032c-1.929,0-3.31-1.74-3.31-3.59v-12.765h-9.577v12.806c0,1.98-1.616,3.596-3.596,3.596h-27.567c-.308,0-.607-.039-.893-.113v13.545c.286-.074.585-.113.893-.113h27.567c1.977,0,3.596,1.622,3.596,3.596v22.714c0,.307-.039.605-.112.89Z"/>
    <path fill="#FDA800" class="cls-1" d="m95.111,48.012h-27.567c-.488,0-.892.404-.892.892v22.714c0,.488.404.892.892.892h27.567c.492,0,.893-.402.893-.892v-22.714c0-.429-.42-.892-.893-.892h0Zm-10.5,3.582c1.663-.271,3.351.185,4.883,1.765,3.632,3.746.824,7.766-2.63,11.115-1.487,1.442-3.123,2.716-4.596,4.143-.521.508-1.355.51-1.88,0-1.473-1.428-3.109-2.701-4.596-4.143-3.427-3.322-6.217-7.306-2.714-11.027,1.183-1.43,3.141-2.151,4.966-1.853,1.163.19,2.277.75,3.284,1.529,1.007-.779,2.121-1.339,3.283-1.529Z"/>
    <path fill="#FDA800" class="cls-1" d="m39.461,72.723h11.406c.489-.006.881-.403.881-.892v-22.714c0-.492-.401-.892-.892-.892h-27.567c-.486,0-.886.394-.893.881v14.597l6.343-5.333c.166-.14.404-.27.607-.342,1.54-.544,3.433.981,5.247,3.886,1.786,2.86,3.475,6.662,4.539,9.852.113.321.224.641.33.958h0Zm1.179-5.008c-1.778,0-1.778-2.704,0-2.704h5.832c1.778,0,1.778,2.704,0,2.704h-5.832Zm-3.568-5.89c-1.778,0-1.778-2.704,0-2.704h9.367c1.778,0,1.778,2.704,0,2.704h-9.367Zm-9.338-5.89c-1.778,0-1.778-2.704,0-2.704h18.705c1.778,0,1.778,2.704,0,2.704h-18.705Z"/>
    <path fill="#FDA800" class="cls-1" d="m34.834,17.55l7.258-3.327c.436-.199.923-.146,1.297.098l8.359,5.461V5.892c0-.488-.404-.892-.892-.892h-27.567c-.49,0-.893.4-.893.892v13.425l7.845-4.984c.575-.365,1.321-.241,1.751.263l2.843,2.953h0Zm2.392-10.28c2.081,0,3.783,1.702,3.783,3.783s-1.701,3.783-3.783,3.783-3.783-1.701-3.783-3.783,1.701-3.783,3.783-3.783Z"/>
    <path fill="#FDA800" class="cls-1" d="m95.37,29.451c.133,0,.265-.074.369-.192.146-.167.237-.412.237-.693V5.916c0-.336-.196-.886-.606-.886h-28.032c-.41,0-.606.55-.606.886v22.648c0,.336.195.886.606.886h28.032Zm-9.33-9.753l-6.829,4.47c-1.879,1.231-4.106-.302-4.106-2.449v-8.941c0-2.095,2.193-3.7,4.106-2.449l6.829,4.471c1.714,1.121,1.714,3.776,0,4.897Z"/><circle cx="37.226" cy="11.052" r="1.079"/>
    <path fill="#FDA800" class="cls-1" d="m51.748,23.008l-9.214-6.024-5.719,2.621,1.325,1.376c1.229,1.278-.713,3.148-1.943,1.869l-5.437-5.646-8.363,5.313v5.939c0,.556.278,1.042.893,1.042h27.567c.488,0,.892-.404.892-.892v-5.598Z"/>
    <path fill="#FDA800" class="cls-1" d="m84.562,17.438c.078-.052.081-.324,0-.377l-6.735-4.409c-.079.233-.081,8.956,0,9.195l6.735-4.409Z"/>
    <path fill="#FDA800" class="cls-1" d="m87.56,55.239c-.833-.86-1.697-1.117-2.517-.983-.94.153-1.9.771-2.763,1.604.066.066-1.057.854-1.909.002-.67-.705-1.787-1.448-2.761-1.607-.82-.134-1.683.124-2.516.983-2.277,2.436.845,5.623,2.577,7.302,1.176,1.14,2.435,2.184,3.656,3.274,1.221-1.09,2.48-2.133,3.656-3.274,2.488-2.412,4.614-5.201,2.577-7.302Z"/>
    <path fill="#FDA800" class="cls-1" d="m12.286,74.988l-3.67,1.296c-3.134,1.107-5.455,4.447-4.336,7.773,1.555,3.694,4.763,4.464,8.389,3.443l3.586-1.266-3.971-11.245Z"/>
    <path fill="#FDA800" class="cls-1" d="m17.194,88.765l-2.348.829,2.03,4.729c.268.552,1.023.81,1.588.61l.971-.343-2.241-5.826Z"/>
    <path fill="#FDA800" class="cls-1" d="m33.505,75.61c.199-1.326-.08-2.315-1.128-3.186.165.506.339,1.019.521,1.536l.002.006c.198.559.4,1.108.605,1.644Z"/>
    <path fill="#FDA800" class="cls-1" d="m31.348,68.912c.822.223,1.68.632,2.432,1.189.949.703,1.756,1.655,2.157,2.791.401,1.137.396,2.469.124,3.689-.211.944-.591,1.846-1.075,2.558.736,1.599,1.483,3.005,2.197,4.148.259.414,1.595,2.725,2.094,2.732.132-.229.058-1.498-.175-3.416-.411-3.396-1.503-6.692-2.519-9.945-1.333-3.774-2.873-7.06-4.284-9.32-.18-.288-1.709-3.012-2.118-2.668-.096.347-.017,1.568.199,3.351.171,1.412.497,3.073.966,4.889Z"/>
    <path fill="#FDA800" class="cls-1" d="m27.699,64.339c-.063-.517-.104-1.01-.123-1.477-4.297,3.612-8.589,7.221-12.884,10.832l4.248,12.03,16.805.245c-.285-.383-.57-.802-.852-1.255-1.787-2.861-3.476-6.664-4.539-9.855-1.203-3.409-2.218-6.92-2.653-10.519Z"/></svg>