<svg xmlns="http://www.w3.org/2000/svg" version="1.1" viewBox="-5.0 -10.0 110.0 135.0">
 <path fill="#FDA800" d="m64.883 90.684h-29.766c-1.8438 0-3.3398 1.4961-3.3398 3.3438 0 1.8438 1.4961 3.3398 3.3398 3.3398h29.766c1.8438 0 3.3398-1.4961 3.3398-3.3398 0-1.8477-1.4961-3.3438-3.3398-3.3438zm-5.75-10.293h-18.266l-1.7305 7.9648h21.727zm-24.789-61.77 0.39062 2.3164h-0.003906c0.92188 0.26953 1.8086 0.64062 2.6523 1.0977l1.9141-1.3594h-0.003906c0.54297-0.39062 1.2773-0.37109 1.8008 0.046875 0.042969 0.035156 0.085938 0.070313 0.12891 0.10938l2.7578 2.7578v0.003906c0.51953 0.51562 0.58594 1.332 0.15625 1.9258l-1.3594 1.9141v-0.003906c0.23047 0.42187 0.4375 0.85547 0.62109 1.3008 0.18359 0.44141 0.34375 0.89062 0.47656 1.3516l2.3164 0.39062c0.72266 0.11719 1.25 0.74219 1.25 1.4727v3.8984c0 0.73047-0.53125 1.3555-1.25 1.4766l-2.3164 0.39063v-0.003907c-0.26953 0.92188-0.63672 1.8125-1.0977 2.6523l1.3594 1.9141c0.42969 0.59375 0.36328 1.4102-0.15625 1.9258l-2.7578 2.7578c-0.51562 0.51953-1.332 0.58594-1.9219 0.15625l-1.9141-1.3594c-0.83984 0.46094-1.7305 0.82812-2.6523 1.0977l-0.39062 2.3164h0.003906c-0.12109 0.72266-0.74609 1.25-1.4766 1.2539h-3.8945c-0.73047-0.003906-1.3516-0.53125-1.4727-1.2539l-0.39062-2.3164c-0.45703-0.13281-0.91016-0.29297-1.3516-0.47656-0.44531-0.18359-0.875-0.39062-1.2969-0.62109l-1.9141 1.3594c-0.59375 0.42969-1.4102 0.36328-1.9258-0.15625l-2.7578-2.7578c-0.51953-0.51953-0.58594-1.332-0.16016-1.9258l1.3438-1.9141c-0.22656-0.42188-0.43359-0.85547-0.62109-1.2969-0.17969-0.44531-0.33984-0.89453-0.47656-1.3555l-2.3164-0.39062v0.003906c-0.71875-0.12109-1.2461-0.74609-1.25-1.4766v-3.9023c0-0.73047 0.53125-1.3516 1.25-1.4727l2.3164-0.39062c0.26953-0.91797 0.64062-1.8086 1.0977-2.6523l-1.3594-1.9141v0.003906c-0.42578-0.59375-0.35938-1.4102 0.16016-1.9258l2.7578-2.7578v-0.003906c0.51562-0.51562 1.332-0.58203 1.9258-0.15625l1.9141 1.3594c0.83984-0.46094 1.7305-0.82812 2.6484-1.0977l0.39062-2.3164c0.12109-0.72266 0.74219-1.25 1.4727-1.2539h3.8945c0.73047 0.003907 1.3555 0.53125 1.4766 1.2539zm-1.7812 3.4258-0.39453-2.3477h-2.5l-0.39844 2.3594c-0.078125 0.47266-0.44141 0.85156-0.91406 0.94531-0.58594 0.13672-1.1602 0.32031-1.7148 0.55469-0.57031 0.23438-1.1172 0.51562-1.6367 0.83984-0.41797 0.26172-0.95312 0.23047-1.3359-0.074219l-1.9023-1.3555-1.7656 1.7695 1.3906 1.9531c0.26953 0.37891 0.28516 0.88672 0.039063 1.2852-0.32422 0.52344-0.60938 1.0703-0.84375 1.6367-0.23438 0.5625-0.42188 1.1445-0.55859 1.7422-0.10547 0.46094-0.48047 0.8125-0.94922 0.89062l-2.3477 0.39453v2.5l2.3594 0.39844c0.47266 0.078126 0.85156 0.44141 0.94531 0.91016 0.13672 0.58594 0.32422 1.1602 0.55469 1.7188 0.23438 0.56641 0.51562 1.1133 0.83984 1.6367 0.26172 0.41406 0.23437 0.94922-0.074219 1.3359l-1.3555 1.9062 1.7695 1.7695 1.9531-1.3906c0.37891-0.27344 0.88672-0.28906 1.2852-0.039062 1.043 0.64844 2.1836 1.125 3.3789 1.4023 0.46094 0.10156 0.8125 0.48047 0.89062 0.94531l0.39453 2.3477h2.5l0.39844-2.3594v0.003906c0.078126-0.47656 0.44141-0.85156 0.91016-0.94922 0.58594-0.13672 1.1602-0.32031 1.7188-0.55078 0.56641-0.23437 1.1133-0.51953 1.6328-0.84375 0.41797-0.25781 0.95312-0.22656 1.3398 0.074219l1.9023 1.3555 1.7695-1.7695-1.3906-1.9531v0.003906c-0.27344-0.38281-0.28906-0.89062-0.039063-1.2891 0.65234-1.0391 1.125-2.1836 1.4023-3.3789 0.10547-0.46094 0.48047-0.8125 0.94922-0.88672l2.3477-0.39453v-2.5l-2.3594-0.39844c-0.47266-0.078125-0.85156-0.44141-0.94531-0.91406-0.14062-0.58594-0.32422-1.1602-0.55469-1.7148-0.23438-0.56641-0.51562-1.1172-0.83984-1.6367-0.26172-0.41797-0.23047-0.95312 0.074219-1.3359l1.3516-1.9062-1.7695-1.7695-1.9531 1.3867c-0.38281 0.27344-0.89063 0.28906-1.2891 0.042969-0.51953-0.32422-1.0664-0.60547-1.6328-0.84375-0.56641-0.23438-1.1484-0.41797-1.7422-0.55859-0.46094-0.10547-0.8125-0.48047-0.89062-0.94531zm2.6328 7.5703c-2.043-2.043-5.2422-2.3594-7.6445-0.75781-2.3984 1.6016-3.332 4.6797-2.2305 7.3477 1.1055 2.668 3.9375 4.1836 6.7695 3.6211 2.832-0.5625 4.875-3.0469 4.875-5.9336 0-1.6055-0.63672-3.1445-1.7695-4.2773zm-4.2773-4.1055h-0.003907c-3.9961-0.003907-7.4375 2.8203-8.2188 6.7383-0.78125 3.9219 1.3164 7.8477 5.0078 9.3789s7.9531 0.24219 10.176-3.082c2.2227-3.3203 1.7891-7.75-1.0352-10.578-1.5703-1.5742-3.7031-2.457-5.9258-2.4531zm48.633 10.051 0.39062 2.3164-0.003906-0.003906c0.45703 0.13672 0.91016 0.29688 1.3516 0.48047 0.44531 0.18359 0.875 0.39062 1.2969 0.62109l1.9141-1.3594v-0.003907c0.59375-0.42578 1.4102-0.35938 1.9258 0.16016l2.7578 2.7578c0.51953 0.51562 0.58984 1.332 0.16016 1.9258l-1.3594 1.9141c0.46094 0.83984 0.82812 1.7266 1.0977 2.6484l2.3164 0.39062c0.72266 0.12109 1.25 0.74219 1.2539 1.4727v3.9023c-0.003906 0.73047-0.53125 1.3516-1.2539 1.4727l-2.3164 0.39063c-0.26953 0.91797-0.63672 1.8086-1.0977 2.6484l1.3594 1.9141c0.39062 0.53906 0.375 1.2695-0.039062 1.7891-0.035157 0.050781-0.074219 0.09375-0.11719 0.13672l-2.7578 2.7578c-0.51563 0.51953-1.332 0.58984-1.9219 0.16016l-1.9141-1.3594c-0.42188 0.23047-0.85547 0.4375-1.2969 0.62109s-0.89453 0.33984-1.3516 0.47656l-0.39062 2.3164c-0.12109 0.71875-0.74219 1.2461-1.4727 1.25h-3.9062c-0.73047-0.003906-1.3555-0.53125-1.4766-1.25l-0.39062-2.3164h0.003906c-0.92188-0.26953-1.8086-0.64062-2.6523-1.0977l-1.9141 1.3594h0.003906c-0.54297 0.39062-1.2812 0.37109-1.8008-0.046876-0.042969-0.035156-0.085938-0.070312-0.12891-0.11328l-2.7578-2.7578c-0.51953-0.51172-0.58984-1.3281-0.16016-1.9219l1.3594-1.9141h0.003906c-0.46094-0.83984-0.83203-1.7305-1.1016-2.6484l-2.3164-0.39062c-0.71875-0.12109-1.2461-0.74219-1.25-1.4727v-3.9023c0.003906-0.73047 0.53125-1.3555 1.25-1.4766l2.3164-0.39062c0.13672-0.45703 0.29688-0.91016 0.48047-1.3516 0.18359-0.44141 0.39062-0.875 0.62109-1.2969l-1.3594-1.9141h-0.003906c-0.39062-0.53516-0.375-1.2695 0.042968-1.7891 0.035157-0.050781 0.074219-0.09375 0.11719-0.13672l2.7578-2.7578c0.51563-0.51953 1.3281-0.58594 1.9219-0.16016l1.9141 1.3594c0.41797-0.23047 0.85156-0.4375 1.2969-0.62109 0.44141-0.18359 0.89453-0.34375 1.3516-0.47656l0.39062-2.3164c0.12109-0.71875 0.74219-1.25 1.4727-1.2539h3.9023c0.73047 0.003906 1.3516 0.53516 1.4727 1.2539zm-1.7812 3.4258-0.39453-2.3477-2.5-0.003906-0.39844 2.3594c-0.078124 0.47266-0.44141 0.85156-0.91016 0.94531-1.1875 0.28125-2.3203 0.75391-3.3555 1.4023-0.41797 0.26172-0.95313 0.23047-1.3359-0.074219l-1.9023-1.3555-1.7695 1.7695 1.3906 1.9531c0.27344 0.38281 0.28906 0.89062 0.039062 1.2891-0.65234 1.0391-1.125 2.1797-1.4023 3.375-0.10547 0.46484-0.48047 0.81641-0.94922 0.89062l-2.3477 0.39844v2.5l2.3594 0.39844v-0.003906c0.47266 0.078125 0.85156 0.44141 0.94531 0.91406 0.27734 1.1836 0.75 2.3164 1.3945 3.3516 0.25781 0.41406 0.22656 0.94922-0.078124 1.3359l-1.3555 1.9023 1.7695 1.7695 1.9531-1.3906c0.38281-0.26953 0.89062-0.28516 1.2891-0.039063 1.0391 0.65234 2.1797 1.125 3.375 1.4023 0.46484 0.10547 0.81641 0.48047 0.89062 0.94922l0.39453 2.3477h2.5l0.39844-2.3594c0.078125-0.47266 0.44141-0.85156 0.91406-0.94531 1.1836-0.28125 2.3164-0.75 3.3516-1.3984 0.41406-0.25781 0.95312-0.23047 1.3359 0.078125l1.9023 1.3555 1.7695-1.7695-1.3867-1.9531c-0.27344-0.38281-0.28906-0.89062-0.042969-1.2891 0.32812-0.51953 0.60938-1.0664 0.84375-1.6328 0.23438-0.56641 0.42188-1.1484 0.55859-1.7422 0.10547-0.46484 0.48047-0.8125 0.94922-0.89062l2.3477-0.39453v-2.5l-2.3594-0.39844c-0.47266-0.078125-0.85156-0.44141-0.94531-0.91016-0.28125-1.1875-0.75391-2.3203-1.3984-3.3555-0.26172-0.41406-0.23047-0.95312 0.074219-1.3359l1.3633-1.9023-1.7695-1.7695-1.9531 1.3867v0.003907c-0.37891 0.27344-0.89062 0.28906-1.2852 0.039062-1.043-0.64844-2.1836-1.125-3.3789-1.4023-0.46094-0.10547-0.8125-0.48047-0.89062-0.94531zm2.6328 7.5664h-0.003906c-2.043-2.0391-5.2383-2.3555-7.6406-0.75391-2.3984 1.6055-3.332 4.6797-2.2266 7.3477 1.1055 2.6641 3.9375 4.1797 6.7695 3.6172s4.8672-3.0469 4.8672-5.9336c0.003906-1.6055-0.63281-3.1445-1.7695-4.2773zm-4.2773-4.1055h-0.003906c-3.9961 0-7.4375 2.8242-8.2148 6.7422-0.78125 3.9219 1.3164 7.8477 5.0078 9.375 3.6953 1.5312 7.9531 0.23828 10.172-3.0859 2.2227-3.3203 1.7852-7.75-1.0391-10.578-1.5703-1.5742-3.7031-2.457-5.9258-2.4531zm-72.109 29.762v4.8164-0.003906c0.003906 0.57031 0.46094 1.0312 1.0312 1.0312h89.906c0.57031 0 1.0273-0.46094 1.0312-1.0312v-4.8125zm82.691-65.965c-4.1602-4.1641-10.68-4.8086-15.574-1.5391-4.8945 3.2656-6.7969 9.5352-4.5469 14.973s8.0273 8.5273 13.797 7.3789c5.7734-1.1445 9.9297-6.207 9.9336-12.094 0.003906-3.2695-1.2969-6.4102-3.6133-8.7188zm-23.324 7.3438h-58.336c-0.57031 0-1.0273 0.46094-1.0312 1.0312v55.262h91.969v-55.262c-0.003906-0.57031-0.46094-1.0312-1.0312-1.0312h-2.3672c0.042968 0.45312 0.0625 0.91406 0.0625 1.375 0 5.2422-2.793 10.082-7.332 12.703-4.5352 2.6172-10.129 2.6172-14.664 0-4.5391-2.6211-7.332-7.4609-7.332-12.703 0-0.46484 0.019532-0.92188 0.0625-1.375zm7.5312 2.3945c-0.44531-0.45703-0.44141-1.1875 0.011719-1.6367 0.44922-0.45312 1.1797-0.45703 1.6367-0.011718l3.25 3.25 7.5938-7.5938c0.21875-0.22266 0.51562-0.34766 0.82812-0.35156 0.3125 0 0.60938 0.12109 0.82812 0.34375 0.22266 0.21875 0.34375 0.51953 0.34375 0.82812-0.003906 0.3125-0.12891 0.60938-0.35547 0.82812l-8.2188 8.2188h0.003907c-0.51563 0.51562-1.332 0.56641-1.9062 0.11719-0.046876-0.035156-0.09375-0.074218-0.13672-0.11719l-3.875-3.875zm-59.422 42.438c-0.31641 0.007813-0.62109-0.10938-0.84766-0.32812-0.22656-0.21875-0.35156-0.52344-0.35156-0.83594 0-0.31641 0.125-0.61719 0.35156-0.83594 0.22656-0.22266 0.53125-0.33984 0.84766-0.33203h28.867c0.31641-0.007813 0.62109 0.10938 0.84766 0.33203 0.22266 0.21875 0.35156 0.51953 0.35156 0.83594 0 0.3125-0.12891 0.61719-0.35156 0.83594-0.22656 0.21875-0.53125 0.33594-0.84766 0.32812zm0 7.1328c-0.31641 0.007812-0.62109-0.10938-0.84766-0.32813-0.22656-0.22266-0.35156-0.52344-0.35156-0.83594 0-0.31641 0.125-0.61719 0.35156-0.83984 0.22656-0.21875 0.53125-0.33594 0.84766-0.32812h28.867c0.31641-0.007812 0.62109 0.10938 0.84766 0.32812 0.22266 0.22266 0.35156 0.52344 0.35156 0.83984 0 0.3125-0.12891 0.61328-0.35156 0.83594-0.22656 0.21875-0.53125 0.33594-0.84766 0.32813z" />
</svg>