<svg xmlns="http://www.w3.org/2000/svg" xmlns:xlink="http://www.w3.org/1999/xlink" version="1.1" x="0px" y="0px" viewBox="0 0 32 40" enable-background="new 0 0 32 32" xml:space="preserve"><g>

<path fill="#FDA800" d="M15,22h-1c0,1.1030273,0.8969727,2,2,2v-1C16,22.4477539,15.5522461,22,15,22z"/>

<path fill="#FDA800" d="M14,30h1c0.5522461,0,1-0.4477539,1-1v-1C14.8969727,28,14,28.8969727,14,30z"/>

<path fill="#FDA800" d="M4,22H3c-0.5522461,0-1,0.4477539-1,1v1C3.1030273,24,4,23.1030273,4,22z"/>

<path fill="#FDA800" d="M2,28v1c0,0.5522461,0.4477539,1,1,1h1C4,28.8969727,3.1030273,28,2,28z"/>

<path fill="#FDA800" d="M6.6464844,5.6464844c0.1689453-0.1694336,0.4326172-0.1948242,0.6308594-0.0625l2.5839844,1.7226563l3.4904175-5.2355957   C13.2416382,2.0292969,13.1247559,2,13,2H3C2.4477539,2,2,2.4477539,2,3v7c0,0.0864868,0.0286255,0.1636963,0.0492554,0.2437134   L6.6464844,5.6464844z"/>

<path fill="#FDA800" d="M30,8.0022583h-0.9793091c-0.2775879,0-0.5022583-0.2246094-0.5022583-0.5022583s0.2246704-0.5023193,0.5022583-0.5023193   H30C29.7608643,4.3474731,27.6524048,2.2391357,25.0023193,2v1c0,0.2776489-0.2246704,0.5022583-0.5023193,0.5022583   S23.9976807,3.2776489,23.9976807,3V2C21.3475952,2.2391357,19.2391357,4.3474731,19,6.9976807h0.9793091   c0.2775879,0,0.5022583,0.2246704,0.5022583,0.5023193s-0.2246704,0.5022583-0.5022583,0.5022583H19   c0.0876465,0.9716187,0.4307861,1.8675537,0.9555664,2.6281128l-2.6702271,2.6702271C16.8942261,13.1134644,16.461731,13,16,13   s-0.8942261,0.1134644-1.2853394,0.3005981L12.4140625,11H13c0.5522461,0,1-0.4477539,1-1V3   c0-0.0268555-0.0132446-0.0493774-0.0153198-0.0756836l-3.5686646,5.3530273   c-0.1533203,0.2290039-0.4633789,0.2905273-0.6933594,0.1386719L7.0634766,6.6435547l-4.3071899,4.3071899   C2.8363037,10.9713745,2.9135132,11,3,11h6.5859375l3.7146606,3.7146606C13.1134644,15.1057739,13,15.538269,13,16   s0.1134644,0.8942261,0.3005981,1.2853394L8.5859375,22H5c0,1.6542969-1.3457031,3-3,3v2c1.6542969,0,3,1.3457031,3,3h8   c0-1.6542969,1.3457031-3,3-3v-2c-1.6542969,0-3-1.3457031-3-3h-1.5859375l3.3005981-3.3005981   C15.1057739,18.8865356,15.538269,19,16,19s0.8942261-0.1134644,1.2853394-0.3005981L23,24.4140625V29c0,0.5522461,0.4476929,1,1,1   h5c0.5523071,0,1-0.4477539,1-1v-7c0-0.5523071-0.4476929-1-1-1h-5c-0.4301147,0-0.7892456,0.2744751-0.930481,0.6554565   l-4.3701172-4.3701172C18.8865356,16.8942261,19,16.461731,19,16s-0.1134644-0.8942261-0.3005981-1.2853394l2.6702271-2.6702271   C22.130188,12.5692139,23.026123,12.9123535,23.9976807,13v-0.9793091c0-0.2776489,0.2246704-0.5023193,0.5023193-0.5023193   s0.5023193,0.2246704,0.5023193,0.5023193V13C27.6524048,12.7608643,29.7608643,10.6523438,30,8.0022583z M9,28   c-1.1045532,0-2-0.8954468-2-2s0.8954468-2,2-2s2,0.8954468,2,2S10.1045532,28,9,28z M26.5,23h2c0.2763672,0,0.5,0.2236328,0.5,0.5   S28.7763672,24,28.5,24h-2c-0.2763672,0-0.5-0.2236328-0.5-0.5S26.2236328,23,26.5,23z M26.5,25h2   c0.2763672,0,0.5,0.2236328,0.5,0.5S28.7763672,26,28.5,26h-2c-0.2763672,0-0.5-0.2236328-0.5-0.5S26.2236328,25,26.5,25z M26.5,27   h2c0.2763672,0,0.5,0.2236328,0.5,0.5S28.7763672,28,28.5,28h-2c-0.2763672,0-0.5-0.2236328-0.5-0.5S26.2236328,27,26.5,27z    M24.5,23c0.276123,0,0.5,0.2238159,0.5,0.5c0,0.276123-0.223877,0.5-0.5,0.5S24,23.776123,24,23.5   C24,23.2238159,24.223877,23,24.5,23z M24.5,25c0.276123,0,0.5,0.2238159,0.5,0.5c0,0.276123-0.223877,0.5-0.5,0.5   S24,25.776123,24,25.5C24,25.2238159,24.223877,25,24.5,25z M24.5,27c0.276123,0,0.5,0.2238159,0.5,0.5   c0,0.276123-0.223877,0.5-0.5,0.5S24,27.776123,24,27.5C24,27.2238159,24.223877,27,24.5,27z M24.8551636,7.8551025   C24.7609863,7.9492798,24.6334229,8.0022583,24.5,8.0022583h-2.0092163c-0.2776489,0-0.5023193-0.2246094-0.5023193-0.5022583   s0.2246704-0.5023193,0.5023193-0.5023193h1.8012085l1.8620605-1.8620605c0.196228-0.196228,0.5140991-0.196228,0.7103271,0   c0.196167,0.196228,0.196167,0.5140991,0,0.7103271L24.8551636,7.8551025z"/></g></svg>