<?xml version="1.0" encoding="UTF-8"?>
<!DOCTYPE svg PUBLIC "-//W3C//DTD SVG 1.1//EN" "http://www.w3.org/Graphics/SVG/1.1/DTD/svg11.dtd">
<!-- Creator: CorelDRAW (Evaluation Version) -->
<svg xmlns="http://www.w3.org/2000/svg" xml:space="preserve" width="10.203mm" height="10.203mm" version="1.1" style="shape-rendering:geometricPrecision; text-rendering:geometricPrecision; image-rendering:optimizeQuality; fill-rule:evenodd; clip-rule:evenodd"
viewBox="0 0 110.54 110.54"
 xmlns:xlink="http://www.w3.org/1999/xlink"
 xmlns:xodm="http://www.corel.com/coreldraw/odm/2003">
 <defs>
  <style type="text/css">
   <![CDATA[
    .fil0 {fill:#E60C80}
    .fil2 {fill:white;fill-rule:nonzero}
    .fil1 {fill:#2B2B2A;fill-rule:nonzero}
   ]]>
  </style>
 </defs>
 <g id="Layer_x0020_1">
  <metadata id="CorelCorpID_0Corel-Layer"/>
  <rect class="fil0" y="-0" width="110.54" height="110.54" rx="19.4" ry="54.17"/>
  <g id="_105553845411680">
   <path class="fil1" d="M12.04 43.61l2.69 0 0 8.2c0.61,-0.79 1.33,-1.39 2.17,-1.81 0.85,-0.41 1.76,-0.62 2.74,-0.62 2.05,0 3.71,0.71 5,2.12 1.28,1.41 1.91,3.49 1.91,6.24 0,0.97 -0.09,1.88 -0.26,2.73l0 -0.18c-0.04,-0.01 -0.08,-0.02 -0.09,-0.02 -0.02,-0 -0.03,-0.01 -0.04,-0.01 -0.16,0 -0.31,0.12 -0.43,0.35 -0.12,0.23 -0.2,0.43 -0.24,0.59l0 -0.83 -0.39 0 0 3.21c-0.14,0.23 -0.28,0.45 -0.44,0.65 -0.04,0.06 -0.09,0.12 -0.14,0.18 0.07,-0.25 0.12,-0.57 0.15,-0.93l-0.4 0c-0.04,0.36 -0.11,0.64 -0.21,0.84 -0.1,0.21 -0.24,0.31 -0.41,0.31 -0.22,0 -0.39,-0.17 -0.49,-0.5 -0.1,-0.33 -0.16,-0.73 -0.16,-1.22 0,-0.48 0.04,-0.88 0.11,-1.21 0.11,-0.5 0.3,-0.75 0.56,-0.75 0.19,0 0.33,0.1 0.42,0.29 0.09,0.2 0.14,0.44 0.17,0.74l0.4 0c-0.03,-0.64 -0.14,-1.1 -0.31,-1.36 -0.17,-0.26 -0.4,-0.4 -0.67,-0.4 -0.07,0 -0.13,0.01 -0.19,0.03 0.15,-0.72 0.22,-1.52 0.22,-2.39 0,-1.73 -0.37,-3.17 -1.11,-4.31 -0.75,-1.14 -1.84,-1.71 -3.29,-1.71 -1.26,0 -2.36,0.47 -3.32,1.4 -0.95,0.93 -1.42,2.47 -1.42,4.61 0,1.55 0.19,2.81 0.58,3.77 0.09,0.22 0.19,0.43 0.3,0.63l0.43 2.91 0.43 0 0.21 -1.64c0.19,0.15 0.39,0.27 0.6,0.38l0.17 1.26 0.43 0 0.15 -0.98c0.31,0.08 0.65,0.14 1.01,0.16 0.04,0.12 0.08,0.23 0.13,0.33 0.21,0.44 0.47,0.65 0.78,0.65 0.13,0 0.24,-0.02 0.34,-0.07 0.18,-0.08 0.34,-0.24 0.46,-0.48 0.07,-0.14 0.14,-0.32 0.2,-0.53 0.02,-0.06 0.03,-0.11 0.04,-0.16 0.71,-0.28 1.29,-0.77 1.75,-1.46 -0,0.09 -0,0.18 -0,0.27 0,0.69 0.1,1.26 0.29,1.72 0.19,0.46 0.45,0.69 0.77,0.69l0.05 -0c-1.14,1 -2.56,1.5 -4.27,1.5 -1.25,0 -2.31,-0.3 -3.17,-0.91 -0.51,-0.36 -1.07,-0.93 -1.65,-1.72l0 2.11 -2.55 0 0 -22.69zm14.09 17.51c-0.16,0.6 -0.37,1.16 -0.63,1.7l0 -0.4c0,-0.34 0.06,-0.64 0.17,-0.9 0.11,-0.25 0.26,-0.38 0.46,-0.39zm-6.75 3.25c0.33,-0.01 0.65,-0.05 0.94,-0.12 -0.13,0.26 -0.29,0.39 -0.5,0.39 -0.18,0 -0.33,-0.09 -0.43,-0.28zm-3.43 -1.37c0.08,0.1 0.17,0.19 0.26,0.27l-0.11 0.89 -0.15 -1.16zm1.56 1.09l0.01 0 -0.01 0.04 -0.01 -0.05z"/>
   <path class="fil2" d="M15.77 60.66l0.78 0 -0.42 3.36 -0.04 0 -0.32 -2.53 0 -0.83zm20.88 -11.21c1.17,0 2.31,0.27 3.41,0.82 1.1,0.55 1.93,1.26 2.51,2.13 0.56,0.84 0.92,1.8 1.11,2.91 0.17,0.76 0.25,1.97 0.25,3.64l-0.47 0 0 -0.38 -0.4 0 0 0.38 -11.21 0c0.01,0.45 0.05,0.87 0.11,1.27l0 0.17 -0.33 0 0 0.28 0 0.38 0.33 0 0 2.98 0 0.2c0,0.31 0.03,0.56 0.1,0.75 0.07,0.19 0.2,0.29 0.39,0.29 0.06,0 0.11,-0.01 0.17,-0.02 0.05,-0.01 0.1,-0.03 0.15,-0.06l0 -0.64c-0.03,0.01 -0.06,0.01 -0.08,0.01 -0.02,0 -0.04,0 -0.06,0 -0.08,0 -0.13,-0.02 -0.16,-0.05 -0.06,-0.06 -0.09,-0.17 -0.09,-0.34l0 -0.16 0 -2.24 0 -0.74 0.39 0 0 -0.38 0.78 0c-0.07,0.09 -0.13,0.2 -0.19,0.33 -0.21,0.48 -0.32,1.11 -0.32,1.88l0 0.11 0 0.01 0 0.02 0 0.01 0 0.01 0 0.02 0 0 0 0.02 0 0.02 0 0 0 0.02 0 0.01 0 0.01 0 0.02 0 0 0 0.02 0 0.02 0 0 0 0.02 0 0.01 0 0.01 0 0.02 0 0.01 0 0.01 0 0.02 0 0 0 0.02 0 0.02 0 0 0 0.02 0 0.01 0 0.01 0 0.02 0 0 0 0.02 0 0.02 0 0 0 0.02 0 0.01 0 0.01 0 0.02 0 0.01 0 0.01 0 0.02 0 0 0 0.02 0 0.01 0 0 0 0.02 0 0.01 0 0.01 0 0.02 0 0 0 0.01 0 0.02 0 0 0 0.02 0 0.01 0 0.01 0 0.02 0 0.01 0 0.01 0 0.02 0 0 0 0.02 0 0.01 0 0 0 0.02 0 0.01 0 0.01 0 0.02 0 0 0 0.01 0 0.02 0 0 0 0.02 0 0.01 0 0.01 0 0.02 0 0.01 0 0.01 0 0.02 0 0 0 0.01 0 0.01 0 0 0 0.02 0 0.01 0 0.01 0 0.02 0 0 0 0.01 0 0.02 0 0c0.05,0.26 0.13,0.49 0.22,0.69 0.21,0.44 0.47,0.65 0.78,0.65 0.12,0 0.24,-0.02 0.34,-0.07 0.18,-0.08 0.34,-0.24 0.47,-0.48 0.07,-0.12 0.13,-0.28 0.18,-0.46 0.4,0.1 0.85,0.15 1.34,0.15 0.34,0 0.66,-0.03 0.96,-0.08l0.11 0.78 0.43 0 0.12 -0.94c0.2,-0.06 0.39,-0.14 0.57,-0.23l-0.54 0 0.33 -2.55 0.33 2.49 0.01 0.07 0.16 1.17 0.43 0 0.17 -1.17 0.1 -0.69 0.4 -2.67 0.8 0c-0.07,0.09 -0.13,0.2 -0.19,0.33 -0.18,0.4 -0.28,0.9 -0.31,1.5l0 0.01 0 0.01 0 0.01 -0 0.01 0 0 0 0.01 0 0.01 0 0.01 -0 0.01 0 0.01 0 0.01 0 0 -0 0.01 0 0.01 0 0.01 0 0.01 0 0.01 0 0.01 -0 0 0 0 0 0.01 0 0.01 0 0.01 0 0.01 -0 0.01 0 0 0 0 0 0.01 0 0.01 0 0.01 0 0.01 0 0.01 0 0 -0 0.01 0 0.01 0 0.01 0 0.01 0 0.01 0 0.01 0 0 0 0.01 0 0.01 -0 0.01 0 0.01 0 0.01 0 0.01 0 0 0 0.01 0 0.01 0 0.01 0 0.01 0 0.01 0 0.01 0 0 0 0.01 0 0.01 -0 0.01 0 0.01 0 0.01 0 0.01 0 0 0 0.01 0 0.01 0 0.01 0 0.01 0 0.01 0 0.01 0 0.01 0 0.01 0 0.01 0 0.01 0 0.01 0 0.01 0 0.02 0 0.02 0 0 0 0.02 0 0.01 0 0.01 0 0.02 0 0.01 0 0.01 0 0.02 0 0 0 0.02 0 0.02 0 0 0 0.02 0 0.02 0 0 0 0.02 0 0.01 0 0.01 0 0.02 0 0.01 0 0.01 0 0.02 0 0 0 0.01 0 0.02 0 0 0 0.02 0 0.02 0 0 0 0.02 0 0.01 0 0.01 0 0.02 0 0.01 0 0.01 0 0.02 0 0.01 0 0.01 0 0.02 0 0 0 0.02 0 0.02 0 0 0 0.02 0 0.01 0 0.01 0 0.02 0 0.01 0 0.01 0 0.02 0 0 0 0.01 0 0.02 0 0 0 0.02 0 0.02 0 0 0 0.02 0 0.01 0 0.01 0 0.02 0 0.01 0 0.01 0 0.02 0 0.01 0 0.01 0 0.02 0 0 0 0.02 0 0.01 0 0 0 0.02 0 0.01 0 0.01 0 0.02 0 0.01 0 0.01 0 0.02 0 0.01 0 0.01 0 0.02 0 0 0 0.01 0 0.02 0 0 0 0.02 0 0.01 0 0 0 0.02 0 0.01 0 0.01 0 0.02 0 0 0 0.01 0 0.02 0 0 0 0.01c0.05,0.26 0.13,0.49 0.22,0.69 0.16,0.34 0.36,0.54 0.58,0.62 -0.77,0.63 -1.68,1.08 -2.74,1.32 -0.67,0.17 -1.42,0.25 -2.27,0.25 -1.83,0 -3.42,-0.6 -4.76,-1.79l0 -0.48c-0.03,0.01 -0.05,0.02 -0.07,0.02 -0.02,0 -0.04,0.01 -0.06,0.01 -0.06,0 -0.09,-0.03 -0.11,-0.08 -0.02,-0.05 -0.03,-0.12 -0.03,-0.2l0 -0.34 0 -2.43 0 -0.02 0 -0 0 -0.02 0 -0 0 -0.01 -0 -0.01 0 -0.01 0 -0.01 0 -0.01 0 -0.01 -0 -0.01 0 -0.01 -0 -0 0 -0.02 0 -0 -0 -0.02 0 -0 -0 -0.02 0 -0 -0 -0.02 0 -0 -0 -0.01 0 -0.01 -0 -0.01 -0 -0.01 0 -0.01 -0 -0.01 -0 -0.01 -0 -0.01 0 -0 -0 -0.01 0 -0 -0 -0.02 0 -0 -0 -0.02 0 -0 -0 -0.02 -0 -0 -0 -0.01 -0 -0.01 -0 -0.01 -0 -0.01 -0 -0.01 -0 -0.01 -0 -0.01 -0 -0.01 -0 -0 -0 -0.01 0 -0 -0 -0.01 0 0 -0 -0.02 0 0 -0 -0.01 -0 -0 -0 -0.01 -0 -0 -0 -0.01 -0 -0.01 -0 -0.01 -0 -0.01 -0 -0.01 -0 -0.01 -0 -0.01 -0 -0.01 0 -0 -0 -0.01 0 -0 -0 -0.01 -0 -0 -0 -0.01 -0 -0 -0 -0.01 -0 -0 -0 -0.01 -0 -0.01 -0 -0.01 -0 -0.01 -0 -0.01 -0 -0.01 -0 -0 -0 -0.01 -0 -0 -0 -0.01 -0 -0 -0 -0.01 0 -0 -0 -0.01 -0 -0 -0 -0.01 -0 -0 -0 -0.01 -0 -0 -0 -0.01 -0 -0.01 -0 -0 -0 -0.01 -0 -0 -0 -0.01 -0 -0 -0.01 -0.01 0 -0 -0.01 -0.01 0 0 -0.01 -0.01 0 -0 -0.01 -0.01 -0 -0 -0 -0.01 -0 -0 -0 -0.01 -0 -0.01 -0 -0.01 -0 -0.01 -0 -0 -0 -0.01 -0 -0 -0.01 -0.01 -0 -0 -0.01 -0.01c-0.02,-0.03 -0.04,-0.05 -0.06,-0.08 -0.18,-0.22 -0.41,-0.32 -0.7,-0.32 -0.25,0 -0.47,0.12 -0.66,0.35l-0.04 0.05 -0 0.01 -0 0 -0 0.01 -0 0.01 -0 0.01 -0 0.01 -0 0.01 -0 0.01 -0 0 -0.01 0.01 -0 0 -0.01 0.01 -0 0 -0.01 0.01 0 0 -0.01 0.01 -0 0 -0.01 0.01 -0 0 -0.01 0.01 -0 0 -0 0.01 -0 0.01 -0 0.01 -0 0.01 -0 0.01 -0 0.01 -0 0 -0 0.01 -0 0 -0 0.01 -0 0 -0.01 0.01 -0.01 0.01 0 0 -0 0.01 -0 0 -0 0.01 -0 0.01 -0 0.01 -0 0.01 -0 0.01 -0 0.01 -0 0.01 -0 0.01 -0.01 0.02 -0 0 -0 0.01 0 0 -0 0.02 0 0 -0 0.02 0 0 -0 0.01 -0 0 -0 0.01 -0 0.01 -0.01 0.03 -0 0.01 -0 0.01 -0 0.01 -0 0.01 -0 0.01 -0 0 -0 0.01 -0 0 -0 0.02 0 0 -0 0.02 0 0 -0 0.02 0 0 -0 0.02 -0 0 -0.01 0.04 -0 0.01 -0 0.01 -0 0.01 -0 0.01 0 0.01 -0 0.02 -0 0 -0 0.02 0 0 -0 0.02 0 0 -0 0.02 -0 0 -0 0.02 0 0.01 -0 0.01 0 0.01 -0 0.01 -0 0.01 -0 0.01 -0 0.01 -0 0.01 -0 0.01 -0 0.01 -0 0.02 0 0 -0 0.02 -0 0 -0 0.02c-0.01,0.09 -0.01,0.18 -0.01,0.27l0.09 0 0.29 0c0.02,-0.25 0.05,-0.44 0.1,-0.56 0.09,-0.23 0.24,-0.34 0.46,-0.34 0.19,0 0.33,0.06 0.43,0.19 0.1,0.12 0.15,0.32 0.15,0.6 0,0.13 -0.01,0.24 -0.03,0.31 -0.03,0.13 -0.1,0.21 -0.19,0.23l-0.66 0.16 -0.01 0 -0 0 -0 0 -0 0 -0.01 0 -0 0 -0 0 -0.01 0 -0 0 -0 0 -0 0 -0 0 -0.01 0 -0 0 -0 0 -0 0 -0 0 -0 0 -0 0 -0 0 -0 0 0 0 -0 0 -0.01 0 0 0 -0 0 -0 0 -0 0 -0 0 -0.01 0 -0 0 -0 0 -0 0 -0 0 -0 0 -0 0 -0 0 0 0 -0 0 -0 0 -0 0 -0 0 -0 0 -0 0 -0 0 -0 0 -0 0 -0 0 -0 0 -0 0 0 0 -0 0 -0 0 -0 0 -0 0 -0 0 -0 0 -0 0 -0.01 0 -0 0 0 0 -0 0 -0 0 -0 0 -0 0 -0 0 -0 0 -0 0 -0.01 0 -0 0 -0 0 -0 0 0 0 -0 0 -0.01 0.01 -0 0 -0 0 -0 0 -0 0 -0 0 -0 0 -0 0 -0 0 0 0 -0 0 -0 0 -0 0 -0 0c-0.11,0.08 -0.2,0.19 -0.28,0.32 -0.14,0.24 -0.21,0.59 -0.21,1.04l0 0.09 -0.47 0c0.02,-0.12 0.04,-0.23 0.05,-0.34l-0.41 0c-0.02,0.12 -0.04,0.23 -0.07,0.34l-1.17 0c-0.07,-0.27 -0.11,-0.59 -0.11,-0.98l1.8 0c0,-0.49 -0.01,-0.84 -0.04,-1.06 -0.03,-0.32 -0.08,-0.6 -0.17,-0.85 -0.06,-0.18 -0.14,-0.34 -0.24,-0.47l0.76 0c-0.13,-0.71 -0.2,-1.48 -0.2,-2.29 0,-2.65 0.72,-4.8 2.15,-6.45 1.44,-1.66 3.32,-2.48 5.63,-2.48zm-19.57 11.21l0.91 0 -0.45 3.36 -0.03 0 -0.43 -3.36zm1.32 0l0.8 0c-0.07,0.09 -0.13,0.2 -0.19,0.33 -0.21,0.48 -0.32,1.11 -0.32,1.88 0,0.43 0.03,0.82 0.1,1.14l-0.89 0 0.5 -3.36zm2.09 0l2.55 0c-0.05,0.08 -0.1,0.18 -0.15,0.28 -0.21,0.47 -0.31,1.13 -0.31,1.97 0,0.41 0.03,0.77 0.1,1.1l-1.82 0c0.02,-0.12 0.04,-0.23 0.05,-0.34l-0.41 0c-0.02,0.12 -0.04,0.23 -0.07,0.34l-1.17 0c-0.07,-0.27 -0.11,-0.59 -0.11,-0.98l1.8 0c0,-0.49 -0.01,-0.84 -0.04,-1.06 -0.03,-0.32 -0.08,-0.6 -0.16,-0.85 -0.06,-0.18 -0.14,-0.34 -0.24,-0.47zm3.89 0l0.72 0 0 3.36 -0.48 0c0.03,-0.16 0.05,-0.34 0.06,-0.53l-0.4 0c-0.02,0.2 -0.05,0.38 -0.1,0.53l-1.04 0c-0.08,-0.3 -0.12,-0.67 -0.12,-1.09 0,-0.48 0.04,-0.88 0.11,-1.21 0.11,-0.5 0.3,-0.75 0.56,-0.75 0.19,0 0.33,0.1 0.42,0.29 0.09,0.2 0.14,0.44 0.17,0.74l0.4 0c-0.03,-0.62 -0.13,-1.07 -0.3,-1.33zm1.11 0l0.21 0c-0.11,0.21 -0.18,0.4 -0.21,0.55l0 -0.55zm0.8 0l0.72 0c-0.07,0.09 -0.13,0.2 -0.19,0.33 -0.21,0.48 -0.32,1.11 -0.32,1.88 0,0.43 0.03,0.82 0.1,1.14l-1.1 0 0 -1.6c0,-0.34 0.06,-0.64 0.17,-0.9 0.11,-0.26 0.27,-0.39 0.48,-0.39 0.02,0 0.05,0 0.07,0 0.02,0 0.04,0.01 0.07,0.02l0 -0.49zm8.54 0l2.03 0 0.49 3.36 -2.16 0c0.02,-0.12 0.04,-0.23 0.05,-0.34l-0.4 0c-0.02,0.12 -0.04,0.23 -0.07,0.34l-0.51 0c0.14,0.07 0.29,0.14 0.44,0.19l-0.01 0.03c-0.13,0.28 -0.3,0.42 -0.51,0.42 -0.23,0 -0.4,-0.15 -0.51,-0.44 -0.02,-0.06 -0.04,-0.13 -0.06,-0.2l0 0 -0 -0.01 -0 -0 -0 -0.01 -0 -0.01 -0 -0 -0 -0.01 -0 -0 -0 -0.01 0 -0 -0 -0.01 0 -0 -0 -0.01 -0 -0 -0 -0.01 -0 -0.01 -0 -0.01 -0 -0.01 -0 -0 -0 -0.01 0 -0 -0 -0.01 0 -0 -0 -0.01 -0 -0 -0 -0.01 -0 -0.01 0 -0 -0 -0.01 0 -0 -0 -0.01 0 0 -0 -0.01 0 -0 -0 -0.01 0 -0 -0 -0.01 -0 -0.01 -0 -0.01 -0 -0.01 0 -0 -0 -0.01 0 0 -0 -0.01 0 -0 -0 -0.01 -0 -0 -0 -0.01 -0 -0.01 0 -0.01 -0 -0.01 0 -0 -0 -0.01 0 -0 -0 -0.01 -0 -0 -0 -0.01 -0 -0 -0 -0.01 -0 -0.01 0 -0.01 -0 -0.01 -0 -0 -0 -0.01 0 -0 -0 -0.01 0 -0 -0 -0.01 -0 -0 -0 -0.01 0 -0.01 -0 -0.01 -0 -0.01 0 -0 -0 -0.01 0 -0 -0 -0.01 0 -0 -0 -0.01 -0 -0 0 -0.01c-0.01,-0.14 -0.02,-0.3 -0.03,-0.46l1.8 0c0,-0.49 -0.01,-0.84 -0.04,-1.06 -0.03,-0.32 -0.08,-0.6 -0.16,-0.85 -0.06,-0.18 -0.14,-0.34 -0.24,-0.47zm2.48 0l0.88 0 -0.42 3.36 -0.04 0 -0.42 -3.36zm1.41 0l0.91 0 -0.4 3.01 -0.05 0.35 -0.02 0.13 -0.02 -0.13 -0.03 -0.27 -0.39 -3.09zm3.41 0l0.92 0 0 0.47 0 1.88 0 1.01 -0.55 0 0.02 -0.11 0 -0 0 -0 0 -0 0 -0 0 -0 0 0 0 -0.02 0 -0 0 -0 0 -0 0 -0 0 -0 0 -0 0 -0 0 -0 0 -0 0 -0 0 -0 0 -0 0 -0 0 -0 0 -0 0 -0 0 -0 0 -0 0 -0 0 0 0 -0 0 -0 0 -0 0 -0.01 0 -0 0 -0 0 -0 0 0 0 -0 0 0 0 -0.01 0 -0 0 -0 0 0 0 -0 0 -0 0 -0 0 -0 0 0 0 -0 0 -0 0 -0 0 -0.01 0 -0 0 -0 0 -0.01 0 -0 0 -0 0 -0 0 -0 0 -0 0 -0 0 -0 0 -0 0 -0 0 -0 0 -0 0 -0 0 -0 0 -0 0 -0 0 0 0 -0 0 -0 0 -0 0 -0 0 0 0 -0 0 -0 0 -0 0 -0 0 -0 0 -0 0 -0 0 -0 0 -0 0 0 0 -0 0 0 0 -0 0 -0 0 -0 0 -0 0 -0 0 -0 0 -0 0 -0 0 -0 -0.41 0 -0 0.01 0 0 0 0 -0 0.01 -0 0 0 0 -0 0.01 0 0 0 0 -0 0.01 -0 0.01 -0 0 0 0 -0 0.01 0 0 -0 0 -0 0.01 0 0 0 0 -0 0.01 -0 0.01 -0 0 0 0 -0 0.01 0 0 -0 0 -0 0.01 0 0 -0 0 -0 0.01 0 0 -0 0.01 -0 0 0 0 -0 0.01 0 0 -0 0 -0 0.01 0 0 -0 0 -0 0 0 0 -0 0.01 -0 0 0 0 -0 0.01 0 0 -0 0 -0 0 0 0 -0 0 -0 0.01 0 0 -0 0.01 -0 0 0 0 -0 0.01 0 0 -0 0 -0 0.01 0 0 -0 0 -0 0 0 0 -0 0.01 0 0 -0 0 -0 0 -0 0.01 0 0 -0 0 -0 0 0 0 -0 0 -0 0 0 0 -0 0.01 -0 0 0 0 -0 0.01 -0 0 0 0 -0 0 0 0 -0 0 -0 0 0 0 -0 0.01 0 0 -0 0 -0 0 -0 0 0 0 -0 0.01 0 0 -0 0 -0 0 0 0 -0 0c-0.02,0.08 -0.05,0.15 -0.08,0.22 -0.13,0.28 -0.3,0.42 -0.52,0.42 -0.23,0 -0.4,-0.15 -0.51,-0.44 -0.02,-0.06 -0.04,-0.13 -0.06,-0.2l-0 -0.01 -0 -0 -0 -0.01 0 -0 -0.01 -0.02 -0 -0.01 -0 -0 -0 -0.01 0 -0 -0 -0.01 0 -0 -0 -0.01 -0 -0.01 -0 -0.01 -0 -0.01 -0 -0 -0 -0.01 -0 -0 -0 -0.01 0 -0 -0 -0.01 -0 -0.01 -0 -0.01 -0 -0.01 0 -0 -0 -0.01 -0 0 -0 -0.01 -0 -0 -0 -0.01 -0 -0.01 -0 -0.01 -0 -0.01 -0 -0 -0 -0.01 0 -0 -0 -0.01 -0 -0 -0 -0.01 -0 -0.01 -0 -0.01 -0 -0.03 0 -0 -0 -0.01 0 -0.01 -0 -0.01 -0 -0.01 -0 -0.01 -0 -0.01 0 -0 -0 -0.02 0 -0 -0 -0.01 0 -0.01 -0 -0.01 -0 -0.01 -0 -0.01 -0 -0.02 0 -0 -0 -0.02 0 -0 -0 -0.01 -0 -0.01 -0 -0.01 -0 -0.01 0 -0 -0 -0.02 0 0 -0 -0.02 0 -0 -0 -0.01 -0 -0.01 0 -0.01 -0 -0.01 0 -0 -0 -0.02 0 -0 -0 -0.02 0 -0.01 -0 -0.01 0 -0.01 -0 -0.01 0 -0.02 0 -0 -0 -0.02 0 -0 -0 -0.02 0 -0.01 -0 -0.01 0 -0.01 -0 -0.01 0 -0.02 0 -0 -0 -0.02 0 -0 -0 -0.01 0 -0.01 0 -0.01 -0 -0.01 0 -0.01 0 -0.02 0 -0 -0 -0.02 0 -0 0 -0.01 -0 -0.01 0 -0.01 0 -0.01 0 -0 0 -0.02 1.8 0c0,-0.49 -0.01,-0.84 -0.04,-1.06 -0.03,-0.32 -0.08,-0.6 -0.16,-0.85 -0.06,-0.18 -0.14,-0.34 -0.24,-0.47zm1.32 0l0.15 0c-0.05,0.09 -0.1,0.19 -0.15,0.3l0 -0.3zm1.36 0l0.4 0 0 3.36 -0.12 0c0.08,-0.39 0.12,-0.83 0.12,-1.33 0,-0.8 -0.09,-1.41 -0.28,-1.82 -0.04,-0.08 -0.07,-0.15 -0.11,-0.21zm-0.16 3.36l-1.09 0c-0.02,-0.06 -0.03,-0.12 -0.05,-0.19 -0.06,-0.28 -0.09,-0.65 -0.09,-1.1 0,-0.24 0.01,-0.46 0.03,-0.64l0 -0.01 0 -0.01 0 -0.01 0 -0 0 -0.01 0 -0.01 0 -0 0 -0.01 0 -0.01 0 -0.01 0 -0.01 0 -0 0 -0.01 0 -0.01 0 -0 0 -0.01 0 -0 0 -0.01 0 -0.01 0 -0.01 0 -0.01 0 -0 0 -0.01 0 -0 0 -0.01 0 -0.01 0 -0 0 -0.01 0 -0.01 0 -0.01 0 -0.01 0 -0 0 -0.01 0 -0.01 0 -0 0 -0.01 0 -0 0 -0.01 0 -0.01 0 -0.01 0 -0.01 0 -0 0 -0.01 0 -0 0 -0.01 0 -0.01 0 -0 0 -0.01 0 -0.01 0 -0.01 0 -0.01 0 -0 0 -0.01 0 -0.01 0 -0 0 -0.01 0 -0 0 -0.01 0 -0.01 0 0 0 -0.01 0 -0.01 0 -0 0 -0.01 0 -0 0 -0.01 0 -0.01 0 -0 0 -0.01 0 -0.01 0 -0 0 -0.01 0 -0 0 -0.01 0 -0.01 0 -0 0 -0.01 0 -0 0 -0.01 0 -0.01 0 -0.01 0 -0.01 0 -0 0 -0.01 0 -0 0 -0.01 0 -0.01 0 -0.01 0 -0 0 -0 0 -0.01 0 -0 0 -0.01 0 -0.01 0 -0 0 -0.01 0 -0 0 -0 0 -0.01 0.01 -0.01 0.01 -0.01 0 -0.01c0.14,-0.25 0.3,-0.38 0.48,-0.38 0.22,0 0.38,0.16 0.49,0.5 0.11,0.33 0.17,0.75 0.17,1.26 0,0.52 -0.05,0.95 -0.14,1.29zm-14.18 0l-0.89 0c-0,-0.04 -0,-0.07 -0,-0.11 0,-0.31 0.06,-0.53 0.19,-0.67 0.04,-0.04 0.08,-0.08 0.14,-0.11l0 -0 0.01 -0 0 -0 0 0 0.01 -0 0 -0 0 -0 0 -0 0 0 0.01 -0 0 -0 0.02 -0.01 0 -0 0.01 -0 0 0 0.01 -0 0 -0 0 -0 0 -0 0 0 0 -0 0 -0 0 0 0 -0 0 -0 0 -0 0 -0 0 0 0 -0 0 -0 0 -0 0 -0 0 -0 0 -0 0 -0 0 0 0 -0 0 -0 0 0 0 -0 0 -0 0 0 0 -0 0 0 0 -0 0 -0 0 0 0 0 0 -0 0 -0 0.01 -0 0.01 -0 0 -0 0 -0 0 0 0 -0 0 -0 0 -0 0 -0 0 0 0 -0 0 -0 0.01 -0 0.01 -0 0.01 -0 0.25 -0.06c0.08,-0.02 0.15,-0.05 0.23,-0.09 0.08,-0.04 0.14,-0.1 0.2,-0.16l0 0.65 0 0.01 0 0 0 0.01 0 0.01 0 0 0 0.01 0 0 0 0.01 -0 0.01 0 0 0 0.01 0 0 0 0.01 0 0 0 0.01 -0 0.01 0 0 0 0.01 0 0 -0 0.01 0 0.01 0 0.01 -0 0.01 0 0 0 0.01 0 0 -0 0.01 0 0.01 0 0 -0 0.01 0 0 -0 0.01 0 0.01 0 0.01 -0 0.01 0 0 -0 0.01 0 0 -0 0.01 0 0.01 0 0 -0 0.01 0 0 -0 0.01 0 0 -0 0.01 0 0.01 0 0 -0 0.01 -0 0 -0 0.01 0 0.01 -0 0 -0 0.01 0 0 -0 0.01 -0 0 0 0.01 -0 0.01 -0 0 -0 0.01 0 0 -0 0.01 -0 0.01 0 0 -0 0.01 0 0 -0 0.01 0 0 -0 0.01 -0 0.01 0 0 -0 0.01 0 0 -0 0.01 -0 0.01 0 0 -0 0.01 -0 0.01 0 0 -0 0.01 -0 0.01 0 0 -0 0.01 0 0 -0 0.01 -0 0.01 -0 0 -0 0.01 -0 0 -0 0.01 0 0 -0 0.01 -0 0.01 -0 0 -0 0.01 0 0 -0 0.01 -0 0 -0 0 -0 0.01 0 0 -0 0.01 -0 0 -0 0.01 -0 0.01 -0 0 -0 0.01c-0.02,0.07 -0.05,0.13 -0.08,0.19 -0.05,-0.06 -0.1,-0.13 -0.15,-0.19zm-13.33 0l-0.67 0 0.33 -2.55 0.34 2.55zm3.37 -1.62c-0.02,-0.35 -0.06,-0.63 -0.12,-0.84 -0.11,-0.39 -0.3,-0.58 -0.57,-0.58 -0.19,0 -0.35,0.13 -0.48,0.4 -0.13,0.27 -0.2,0.61 -0.2,1.02l1.36 0zm7.82 0c-0.02,-0.35 -0.06,-0.63 -0.12,-0.84 -0.11,-0.39 -0.3,-0.58 -0.57,-0.58 -0.19,0 -0.35,0.13 -0.48,0.4 -0.13,0.27 -0.2,0.61 -0.2,1.02l1.36 0zm6.52 0c-0.02,-0.35 -0.06,-0.63 -0.12,-0.84 -0.11,-0.39 -0.3,-0.58 -0.57,-0.58 -0.19,0 -0.35,0.13 -0.48,0.4 -0.13,0.27 -0.2,0.61 -0.2,1.02l1.36 0zm6.97 -1.27c-0.1,-0.1 -0.21,-0.16 -0.35,-0.16 -0.12,0 -0.23,0.05 -0.32,0.16l-0 0 -0 0 -0 0 -0 0 -0 0 -0 0 -0 0 -0 0 -0 0 -0 0 0 0 -0 0 -0 0 -0 0 0 0 -0.01 0.01 -0 0 -0 0 -0 0 -0 0 0 0 -0 0 -0 0 -0 0 0 0 -0 0 -0 0 -0 0 -0 0 -0 0 -0 0 0 0 -0 0.01 -0 0 -0 0 -0 0 -0 0 -0 0 -0 0 -0 0 -0 0 0 0 -0 0 -0 0 -0 0 -0 0 -0 0 -0 0 -0 0 -0 0 -0 0 -0 0 0 0 -0 0 -0 0 -0 0 -0 0 -0 0 -0 0 -0 0 -0 0 -0 0 -0 0 -0 0 -0 0 -0 0 0 0 -0 0 -0 0 0 0 -0 0 -0 0 -0 0 0 0 -0 0 -0 0 -0 0 -0 0 -0 0 -0 0 0 0 -0 0 -0 0.01 -0 0c-0.13,0.27 -0.2,0.61 -0.2,1.02l1.36 0c-0.02,-0.35 -0.06,-0.63 -0.12,-0.84l-0 -0.01 -0 -0.01 0 -0 -0 -0.01 -0 -0.01 0 -0 -0 -0.01 -0 -0.01 -0 -0 -0 -0.01 -0 -0.01 0 -0 -0 -0.01 -0 -0.01 -0 -0 -0 -0.01 -0 -0.01 -0 -0 -0 -0 -0 -0.01 -0 -0 -0 -0 -0 -0.01 -0 -0 -0 -0 -0 -0.01 -0 -0 -0 -0 -0.01 -0.01 -0 -0 -0 -0.01 -0 -0.01 0 -0 -0 -0.01 -0 -0.01 0 -0 -0 -0.01 -0 -0.01 0 0 -0 -0.01 -0 -0.01 -0.01 -0.02 -0 -0.01 0 -0 -0 -0.01 -0 -0.01 -0 -0 -0 -0 -0 -0.01 -0 -0 -0 -0 -0 -0.01 -0 -0 -0.01 -0.01 -0 -0 -0.01 -0.01 -0 -0 -0 -0 -0 -0.01 -0 -0 -0 -0 -0 -0.01 -0 -0 -0 -0 -0.01 -0.01 -0 -0 -0.01 -0.01 -0 -0 -0 -0.01 -0.01 -0.01 -0 -0 0 -0 -0.01 -0.01 0 0 -0 -0 -0 -0.01 -0 0 -0 -0 -0 -0 -0 -0 -0 -0 -0 -0zm45.88 -17.44l2.77 0 0 22.61 -2.77 0 0 -22.61zm7.59 19.26l3.22 0 0 3.36 -3.22 -3.36zm-14.6 -19.26l2.77 0 0 22.61 -2.77 0 0 -22.61zm-11.06 20.83c1.83,0 3.09,-0.69 3.78,-2.09 0.68,-1.39 1.02,-2.94 1.02,-4.64 0,-1.54 -0.25,-2.79 -0.74,-3.76 -0.78,-1.52 -2.12,-2.28 -4.03,-2.28 -1.7,0 -2.93,0.65 -3.69,1.94 -0.77,1.29 -1.16,2.85 -1.16,4.68 0,1.76 0.38,3.22 1.16,4.39 0.77,1.17 1.99,1.75 3.66,1.75zm0.11 -15.18c2.13,0 3.92,0.71 5.39,2.13 1.47,1.41 2.2,3.5 2.2,6.25 0,2.66 -0.65,4.85 -1.94,6.59 -1.3,1.73 -3.3,2.6 -6.02,2.6 -2.27,0 -4.07,-0.77 -5.4,-2.3 -1.33,-1.53 -2,-3.59 -2,-6.18 0,-2.77 0.7,-4.98 2.11,-6.62 1.41,-1.64 3.29,-2.46 5.66,-2.46zm-20.76 11.79c0.08,0.92 0.32,1.63 0.69,2.12 0.7,0.89 1.91,1.34 3.63,1.34 1.03,0 1.93,-0.23 2.71,-0.67 0.78,-0.45 1.17,-1.13 1.17,-2.07 0,-0.7 -0.32,-1.24 -0.94,-1.61 -0.4,-0.23 -1.19,-0.49 -2.37,-0.79l-2.2 -0.55c-1.41,-0.35 -2.44,-0.74 -3.11,-1.17 -1.19,-0.75 -1.79,-1.79 -1.79,-3.11 0,-1.56 0.56,-2.82 1.69,-3.78 1.12,-0.97 2.64,-1.45 4.53,-1.45 2.49,0 4.27,0.73 5.37,2.19 0.69,0.92 1.02,1.92 1,2.99l-2.62 0c-0.05,-0.63 -0.27,-1.2 -0.66,-1.71 -0.64,-0.72 -1.74,-1.09 -3.31,-1.09 -1.05,0 -1.84,0.2 -2.38,0.6 -0.54,0.4 -0.81,0.93 -0.81,1.58 0,0.72 0.36,1.3 1.07,1.73 0.41,0.25 1.01,0.48 1.81,0.67l1.83 0.45c1.99,0.48 3.33,0.95 4,1.4 1.08,0.71 1.61,1.82 1.61,3.34 0,1.47 -0.56,2.73 -1.67,3.8 -1.11,1.07 -2.81,1.6 -5.09,1.6 -2.45,0 -4.19,-0.56 -5.21,-1.67 -1.02,-1.11 -1.57,-2.49 -1.64,-4.13l2.66 0zm-7.9 -4.39c-0.11,-1.2 -0.37,-2.16 -0.78,-2.88 -0.76,-1.33 -2.03,-2 -3.8,-2 -1.27,0 -2.34,0.46 -3.2,1.38 -0.86,0.92 -1.32,2.09 -1.37,3.5l9.16 0z"/>
  </g>
 </g>
</svg>
